<svg xmlns:xlink="http://www.w3.org/1999/xlink" xmlns="http://www.w3.org/2000/svg" width="28" height="28" viewBox="0 0 28 28" fill="none">
<path fill-rule="evenodd" clip-rule="evenodd" d="M19.4833 5.24999C19.3545 5.24999 19.25 5.35446 19.25 5.48332V6.18332L19.2547 6.23035C19.2765 6.33667 19.3706 6.41666 19.4833 6.41666H19.8333L19.9362 6.41963C20.8208 6.47088 21.5291 7.17922 21.5804 8.06383L21.5833 8.16666V8.51666L21.5881 8.56368C21.6098 8.67001 21.7039 8.74999 21.8167 8.74999H22.5167C22.6455 8.74999 22.75 8.64552 22.75 8.51666V8.16666L22.753 8.06383C22.8062 7.14519 23.568 6.41666 24.5 6.41666H24.85C24.9789 6.41666 25.0833 6.31219 25.0833 6.18332V5.48332L25.0786 5.4363C25.0568 5.32997 24.9628 5.24999 24.85 5.24999H24.5L24.3972 5.24702C23.5126 5.19576 22.8042 4.48743 22.753 3.60282L22.75 3.49999V3.14999L22.7453 3.10297C22.7235 2.99664 22.6294 2.91666 22.5167 2.91666H21.8167C21.6878 2.91666 21.5833 3.02112 21.5833 3.14999V3.49999L21.5804 3.60282C21.5271 4.52145 20.7653 5.24999 19.8333 5.24999H19.4833ZM22.142 4.65815L22.1661 4.61251L22.2408 4.74208C22.528 5.20953 22.9557 5.59085 23.4191 5.83273C22.9136 6.09778 22.4506 6.5276 22.1672 7.05414C21.8828 6.5276 21.4197 6.09778 20.9142 5.83392C21.4051 5.57657 21.8558 5.16388 22.142 4.65815Z" fill="#D7A8CC"/>
<path fill-rule="evenodd" clip-rule="evenodd" d="M4.50579 3.96797L3.43554 4.08689C3.16437 4.11702 2.95032 4.33108 2.92019 4.60224L2.81106 5.5844C2.49202 8.45574 3.52066 11.313 5.59671 13.3221L6.56518 14.2593C5.92325 15.045 5.73375 16.1139 6.0749 17.0771L6.12495 17.2083L7.8303 21.377C8.07427 21.9733 8.75549 22.259 9.35185 22.015C9.46656 21.9681 9.57288 21.9033 9.66691 21.8231L9.73506 21.7602L11.9313 19.5639L13.7769 23.0245L13.8151 23.0867C14.0218 23.3811 14.4541 23.4223 14.7118 23.1546L22.2951 15.2796L22.3429 15.2235C22.5606 14.9331 22.4616 14.505 22.1216 14.3464L18.5013 12.6569L20.2339 10.9243L20.3045 10.8471C20.3716 10.7668 20.4276 10.6777 20.471 10.5822C20.7377 9.99558 20.4783 9.30392 19.8917 9.03729L15.7134 7.13806L15.5849 7.08329C14.6796 6.72277 13.6625 6.84157 12.8702 7.37865L12.1361 6.64456C10.1313 4.63969 7.32376 3.65487 4.50579 3.96797ZM17.6337 13.5395L15.6147 15.6648L18.0035 18.0536L20.888 15.0582L17.6337 13.5395ZM12.7706 18.6585L14.8109 16.5109L17.1941 18.8941L14.4281 21.7665L12.7706 18.6585ZM7.20476 16.7666C6.97292 16.1999 7.05609 15.5604 7.40854 15.0754L11.1496 18.6958L8.91011 20.9352L7.20476 16.7666ZM13.721 8.22939L17.5 12.0084L19.4089 10.0994L15.2306 8.20016C14.7401 7.97717 14.1853 7.99626 13.721 8.22939ZM16.685 12.8438L11.9408 17.8377L6.40803 12.4837L6.25013 12.3267C4.53957 10.5787 3.69964 8.15177 3.97059 5.71324L4.02787 5.19457L4.63463 5.12751C7.10035 4.85354 9.55693 5.71526 11.3112 7.46952L16.685 12.8438ZM24.9124 24.6708L20.2458 20.0042L19.4208 20.8291L24.0875 25.4958L24.9124 24.6708ZM21.9958 18.2542L24.9124 21.1708L24.0875 21.9958L21.1708 19.0791L21.9958 18.2542ZM21.4124 24.6708L18.4958 21.7542L17.6708 22.5791L20.5875 25.4958L21.4124 24.6708Z" fill="white"/>
<circle cx="8.75" cy="9.91666" r="1.75" fill="#9DC797"/>
<rect x="2.91663" y="19.8333" width="2.33333" height="2.33334" rx="1" fill="#9DC797"/>
<rect x="16.3334" y="2.91666" width="1.75" height="1.75" rx="0.875" fill="#9DC797"/>
<rect x="10.5" y="23.3333" width="1.75" height="1.75" rx="0.875" fill="#9DC797"/>
</svg>