<svg xmlns:xlink="http://www.w3.org/1999/xlink" xmlns="http://www.w3.org/2000/svg" width="29" height="28" viewBox="0 0 29 28" fill="none">
<path fill-rule="evenodd" clip-rule="evenodd" d="M11.3639 12.25H13.1139V11.0833H10.7806L10.7126 11.0873C10.4225 11.121 10.1973 11.3675 10.1973 11.6667V16.9167H11.3639V14.5828L12.5209 14.5833V13.4167L11.3639 13.4161V12.25ZM20.6973 11.0833V12.25H18.9479L18.9508 13.4161L20.1042 13.4167V14.5833L18.9531 14.5828L18.956 15.7448L20.6921 15.7294L20.7024 16.896L18.3795 16.9167C18.0774 16.9193 17.8272 16.692 17.7946 16.3985L17.791 16.3346L17.7806 11.668C17.7799 11.3683 18.0053 11.1211 18.2958 11.0873L18.3639 11.0833H20.6973ZM24.1973 11.0833V12.25H22.4479L22.4508 13.4161L23.6042 13.4167V14.5833L22.4531 14.5828L22.456 15.7448L24.1921 15.7294L24.2024 16.896L21.8795 16.9167C21.5774 16.9193 21.3272 16.692 21.2946 16.3985L21.291 16.3346L21.2806 11.668C21.2799 11.3683 21.5053 11.1211 21.7958 11.0873L21.8639 11.0833H24.1973ZM15.4473 11.0833C16.4138 11.0833 17.1973 11.8668 17.1973 12.8333C17.1973 13.4158 16.9127 13.9319 16.475 14.2499L16.3823 14.3121L16.4246 14.3559C16.8776 14.8469 17.1641 15.4937 17.1946 16.2068L17.1973 16.3333V16.9167H16.0306V16.3333C16.0306 15.6119 15.5941 14.9925 14.9707 14.7247L14.8639 14.6825V16.9167H13.6973V11.6667C13.6973 11.3675 13.9225 11.121 14.2126 11.0873L14.2806 11.0833H15.4473ZM14.8639 12.25H15.4473L15.5153 12.2539C15.8054 12.2876 16.0306 12.5342 16.0306 12.8333C16.0306 13.1555 15.7694 13.4167 15.4473 13.4167H14.8639V12.25Z" fill="#9DC797"/>
<path fill-rule="evenodd" clip-rule="evenodd" d="M26.3024 6.99999C26.4313 6.99999 26.5358 7.10446 26.5358 7.23332V7.93332L26.531 7.98035C26.5093 8.08667 26.4152 8.16666 26.3024 8.16666H25.9524L25.8496 8.16963C24.965 8.22088 24.2567 8.92922 24.2054 9.81383L24.2024 9.91666V10.2667L24.1977 10.3137C24.1759 10.42 24.0819 10.5 23.9691 10.5H23.2691C23.1402 10.5 23.0358 10.3955 23.0358 10.2667V9.91666L23.0328 9.81383C22.9796 8.89519 22.2177 8.16666 21.2858 8.16666H20.9358C20.8069 8.16666 20.7024 8.06219 20.7024 7.93332V7.23332L20.7072 7.1863C20.7289 7.07997 20.823 6.99999 20.9358 6.99999H21.2858L21.3886 6.99702C22.2732 6.94576 22.9815 6.23743 23.0328 5.35282L23.0358 5.24999V4.89999L23.0405 4.85297C23.0623 4.74664 23.1563 4.66666 23.2691 4.66666H23.9691C24.098 4.66666 24.2024 4.77112 24.2024 4.89999V5.24999L24.2054 5.35282C24.2586 6.27145 25.0205 6.99999 25.9524 6.99999H26.3024ZM23.6438 6.40815L23.6197 6.3625L23.5449 6.49208C23.2577 6.95953 22.8301 7.34085 22.3667 7.58273C22.8722 7.84778 23.3352 8.2776 23.6185 8.80414C23.903 8.2776 24.366 7.84778 24.8715 7.58392C24.3807 7.32657 23.9299 6.91388 23.6438 6.40815Z" fill="#D7A8CC"/>
<path fill-rule="evenodd" clip-rule="evenodd" d="M7.9346 9.29893C8.21798 7.9848 9.38685 7 10.7857 7H20.1191V8.16667H10.7857L10.6829 8.16964C9.76426 8.22286 9.03572 8.98469 9.03572 9.91667L9.0318 9.9847C8.9981 10.2748 8.75155 10.5 8.45239 10.5H6.49313L6.41662 10.505C6.24043 10.5283 6.08275 10.6312 5.99092 10.7866L5.12613 12.25H7.28572L7.35375 12.2539C7.64387 12.2876 7.86906 12.5342 7.86906 12.8333V16.3333L7.86513 16.4014C7.83144 16.6915 7.58488 16.9167 7.28572 16.9167H2.61906L2.61906 17.5H3.78572C4.10789 17.5 4.36906 17.7612 4.36906 18.0833C4.36906 18.4055 4.10789 18.6667 3.78572 18.6667H2.61906L2.61906 19.8333H5.0259C5.28493 18.827 6.19848 18.0833 7.28572 18.0833C8.37296 18.0833 9.28652 18.8269 9.54555 19.8333H17.8592C18.1183 18.8269 19.0318 18.0833 20.1191 18.0833C21.2063 18.0833 22.1199 18.827 22.3789 19.8333H23.0357V18.0833H24.2024V20.4167L24.1985 20.4847C24.1648 20.7748 23.9182 21 23.6191 21H22.3789C22.1199 22.0064 21.2063 22.75 20.1191 22.75C19.0318 22.75 18.1183 22.0064 17.8592 21H9.54555C9.28652 22.0064 8.37296 22.75 7.28572 22.75C6.19849 22.75 5.28493 22.0064 5.0259 21H2.03572L1.9677 20.9961C1.67758 20.9624 1.45239 20.7158 1.45239 20.4167V16.3333L1.4576 16.2556C1.46797 16.1785 1.49369 16.104 1.53352 16.0366L4.98651 10.1931L5.04851 10.0956C5.37315 9.62065 5.91291 9.33333 6.49313 9.33333H7.92856L7.9346 9.29893ZM3.05787 15.75L4.43671 13.4167H6.70239V15.75H3.05787ZM18.9524 20.4167C18.9524 19.7723 19.4747 19.25 20.1191 19.25C20.7634 19.25 21.2857 19.7723 21.2857 20.4167C21.2857 21.061 20.7634 21.5833 20.1191 21.5833C19.4747 21.5833 18.9524 21.061 18.9524 20.4167ZM6.11906 20.4167C6.11906 19.7723 6.64139 19.25 7.28572 19.25C7.93006 19.25 8.45239 19.7723 8.45239 20.4167C8.45239 21.061 7.93006 21.5833 7.28572 21.5833C6.64139 21.5833 6.11906 21.061 6.11906 20.4167Z" fill="white"/>
</svg>