<svg xmlns:xlink="http://www.w3.org/1999/xlink" xmlns="http://www.w3.org/2000/svg" width="29" height="28" viewBox="0 0 29 28" fill="none">
<path fill-rule="evenodd" clip-rule="evenodd" d="M25.0715 3.5H14.5715C13.2828 3.5 12.2382 4.54467 12.2382 5.83333V12.8333L12.241 12.9498C12.3017 14.1844 13.3219 15.1667 14.5715 15.1667H17.7542L19.3575 17.2702L19.4071 17.3274C19.6515 17.5753 20.0677 17.5562 20.2855 17.2701L21.8871 15.1667H25.0715C26.3602 15.1667 27.4048 14.122 27.4048 12.8333V5.83333C27.4048 4.54467 26.3602 3.5 25.0715 3.5ZM14.5715 4.66667H25.0715C25.7158 4.66667 26.2382 5.189 26.2382 5.83333V12.8333C26.2382 13.4777 25.7158 14 25.0715 14H21.5989L21.5312 14.0039C21.3749 14.0222 21.2314 14.1031 21.1349 14.2299L19.8215 15.9536L18.5075 14.2298C18.3971 14.085 18.2255 14 18.0435 14H14.5715C13.9272 14 13.4048 13.4777 13.4048 12.8333V5.83333C13.4048 5.189 13.9272 4.66667 14.5715 4.66667ZM11.0715 11.6667V10.5H7.57149L7.40821 10.5022C4.26205 10.5887 1.73816 13.1663 1.73816 16.3333L1.74039 16.4961C1.82351 19.5252 4.21879 21.9868 7.23751 22.1573L7.24716 22.1573L8.85752 24.2702L8.90712 24.3274C9.15144 24.5752 9.56758 24.5562 9.78547 24.2702L11.3952 22.1573L11.5871 22.1442C14.5683 21.8831 16.9048 19.3801 16.9048 16.3333H15.7382L15.736 16.4782C15.6597 18.9793 13.6149 20.9867 11.0965 20.9999L11.0198 21.0054C10.8682 21.0263 10.7296 21.1063 10.6356 21.2297L9.32091 22.9536L8.00688 21.2292L7.95678 21.1717C7.84986 21.064 7.70427 21.0015 7.55056 20.9995L7.42435 20.9978L7.28014 20.9914C4.83845 20.8455 2.90483 18.8108 2.90483 16.3333C2.90483 13.756 4.99416 11.6667 7.57149 11.6667H11.0715Z" fill="white"/>
<path fill-rule="evenodd" clip-rule="evenodd" d="M17.1381 8.74999C17.0093 8.74999 16.9048 8.85446 16.9048 8.98332V9.68332L16.9095 9.73035C16.9313 9.83667 17.0254 9.91666 17.1381 9.91666H17.4881L17.5909 9.91963C18.4756 9.97088 19.1839 10.6792 19.2351 11.5638L19.2381 11.6667V12.0167L19.2429 12.0637C19.2646 12.17 19.3587 12.25 19.4715 12.25H20.1715C20.3003 12.25 20.4048 12.1455 20.4048 12.0167V11.6667L20.4078 11.5638C20.461 10.6452 21.2228 9.91666 22.1548 9.91666H22.5048C22.6337 9.91666 22.7381 9.81219 22.7381 9.68332V8.98332L22.7334 8.9363C22.7116 8.82997 22.6175 8.74999 22.5048 8.74999H22.1548L22.052 8.74702C21.1673 8.69576 20.459 7.98743 20.4078 7.10282L20.4048 6.99999V6.64999L20.4 6.60297C20.3783 6.49664 20.2842 6.41666 20.1715 6.41666H19.4715C19.3426 6.41666 19.2381 6.52112 19.2381 6.64999V6.99999L19.2351 7.10282C19.1819 8.02145 18.4201 8.74999 17.4881 8.74999H17.1381ZM19.7968 8.15815L19.8209 8.1125L19.8956 8.24208C20.1828 8.70953 20.6105 9.09085 21.0739 9.33273C20.5684 9.59778 20.1053 10.0276 19.822 10.5541C19.5376 10.0276 19.0745 9.59778 18.569 9.33392C19.0598 9.07657 19.5106 8.66388 19.7968 8.15815Z" fill="#D7A8CC"/>
<ellipse cx="6.11316" cy="16.3333" rx="0.875" ry="0.875" fill="#9DC797"/>
<ellipse cx="12.5298" cy="16.3333" rx="0.875" ry="0.875" fill="#9DC797"/>
<ellipse cx="9.32145" cy="16.3333" rx="1.16667" ry="1.16667" fill="#9DC797"/>
</svg>