<svg xmlns:xlink="http://www.w3.org/1999/xlink" xmlns="http://www.w3.org/2000/svg" width="29" height="28" viewBox="0 0 29 28" fill="none">
<path fill-rule="evenodd" clip-rule="evenodd" d="M4.59039 5.83333C4.46152 5.83333 4.35706 5.9378 4.35706 6.06667V6.76667L4.3618 6.81369C4.38355 6.92002 4.47763 7 4.59039 7H4.94039L5.04321 7.00297C5.92783 7.05423 6.63616 7.76256 6.68742 8.64717L6.69039 8.75V9.1L6.69513 9.14703C6.71689 9.25335 6.81096 9.33333 6.92372 9.33333H7.62372C7.75259 9.33333 7.85706 9.22887 7.85706 9.1V8.75L7.86003 8.64717C7.91325 7.72854 8.67508 7 9.60706 7H9.95706C10.0859 7 10.1904 6.89553 10.1904 6.76667V6.06667L10.1856 6.01964C10.1639 5.91332 10.0698 5.83333 9.95706 5.83333H9.60706L9.50423 5.83036C8.61962 5.77911 7.91128 5.07077 7.86003 4.18616L7.85706 4.08333V3.73333L7.85232 3.68631C7.83056 3.57998 7.73648 3.5 7.62372 3.5H6.92372C6.79486 3.5 6.69039 3.60447 6.69039 3.73333V4.08333L6.68742 4.18616C6.63419 5.1048 5.87237 5.83333 4.94039 5.83333H4.59039ZM7.24906 5.2415L7.27314 5.19585L7.3479 5.32543C7.63508 5.79287 8.06277 6.1742 8.52614 6.41607C8.02064 6.68112 7.55761 7.11095 7.27431 7.63748C6.98984 7.11095 6.5268 6.68112 6.02131 6.41726C6.51212 6.15991 6.9629 5.74722 7.24906 5.2415Z" fill="#D7A8CC"/>
<path fill-rule="evenodd" clip-rule="evenodd" d="M16.0945 4.49583L15.2696 3.67087L12.5238 6.41668L15.2696 9.16249L16.0945 8.33753L14.7567 7.00001H15.4404L15.6194 7.00208C19.7249 7.09718 23.0238 10.455 23.0238 14.5833C23.0238 18.7715 19.6286 22.1667 15.4404 22.1667C11.2523 22.1667 7.8571 18.7715 7.8571 14.5833H6.69043L6.69231 14.7664C6.78975 19.5144 10.6691 23.3333 15.4404 23.3333C20.2729 23.3333 24.1904 19.4158 24.1904 14.5833C24.1904 9.75086 20.2729 5.83335 15.4404 5.83335H14.7567L16.0945 4.49583Z" fill="white"/>
<rect x="22.4404" y="21.5833" width="2.33334" height="2.33334" rx="1" fill="#9DC797"/>
<rect x="10.1904" y="1.75" width="1.75" height="1.75" rx="0.875" fill="#9DC797"/>
<path d="M12.8153 11.0833C13.9429 11.0833 14.857 11.9974 14.857 13.125C14.857 14.215 14.0029 15.1055 12.9274 15.1637L12.8153 15.1667H11.357V14H12.8153C13.2986 14 13.6903 13.6083 13.6903 13.125C13.6903 12.6702 13.3433 12.2964 12.8996 12.254L12.8153 12.25H10.7737V11.0833H12.8153Z" fill="#9DC797"/>
<path d="M12.8153 14C13.9429 14 14.857 14.9141 14.857 16.0417C14.857 17.1317 14.0029 18.0222 12.9274 18.0803L12.8153 18.0833H10.7737V16.9167H12.8153C13.2986 16.9167 13.6903 16.5249 13.6903 16.0417C13.6903 15.5868 13.3433 15.2131 12.8996 15.1707L12.8153 15.1667H11.357V14H12.8153Z" fill="#9DC797"/>
<path fill-rule="evenodd" clip-rule="evenodd" d="M15.4404 13.4167C15.4404 12.128 16.4851 11.0833 17.7738 11.0833C19.0624 11.0833 20.1071 12.128 20.1071 13.4167V15.75C20.1071 17.0387 19.0624 18.0833 17.7738 18.0833C16.4851 18.0833 15.4404 17.0387 15.4404 15.75V13.4167ZM18.9404 13.4167C18.9404 12.7723 18.4181 12.25 17.7738 12.25C17.1294 12.25 16.6071 12.7723 16.6071 13.4167V15.75C16.6071 16.3943 17.1294 16.9167 17.7738 16.9167C18.4181 16.9167 18.9404 16.3943 18.9404 15.75V13.4167Z" fill="#9DC797"/>
<rect x="2.60706" y="9.33334" width="1.75" height="1.75" rx="0.875" fill="#9DC797"/>
</svg>