<svg xmlns:xlink="http://www.w3.org/1999/xlink" xmlns="http://www.w3.org/2000/svg" width="29" height="28" viewBox="0 0 29 28" fill="none">
<path fill-rule="evenodd" clip-rule="evenodd" d="M0.95953 4.08333C0.830663 4.08333 0.726196 4.1878 0.726196 4.31667V5.01667L0.730937 5.06369C0.752694 5.17002 0.846771 5.25 0.95953 5.25H1.30953L1.41236 5.25297C2.29697 5.30423 3.0053 6.01256 3.05656 6.89717L3.05953 7V7.35L3.06427 7.39703C3.08603 7.50335 3.1801 7.58333 3.29286 7.58333H3.99286C4.12173 7.58333 4.2262 7.47887 4.2262 7.35V7L4.22917 6.89717C4.28239 5.97854 5.04422 5.25 5.9762 5.25H6.3262C6.45506 5.25 6.55953 5.14553 6.55953 5.01667V4.31667L6.55479 4.26964C6.53303 4.16332 6.43895 4.08333 6.3262 4.08333H5.9762L5.87337 4.08036C4.98876 4.02911 4.28042 3.32077 4.22917 2.43616L4.2262 2.33333V1.98333L4.22146 1.93631C4.1997 1.82998 4.10562 1.75 3.99286 1.75H3.29286C3.164 1.75 3.05953 1.85447 3.05953 1.98333V2.33333L3.05656 2.43616C3.00333 3.3548 2.24151 4.08333 1.30953 4.08333H0.95953ZM3.6182 3.4915L3.64228 3.44585L3.71704 3.57543C4.00422 4.04287 4.43191 4.4242 4.89528 4.66607C4.38978 4.93112 3.92675 5.36095 3.64345 5.88748C3.35898 5.36095 2.89594 4.93112 2.39045 4.66726C2.88126 4.40991 3.33204 3.99722 3.6182 3.4915Z" fill="#A63489"/>
<rect x="22.8929" y="21.5833" width="2.33333" height="2.33334" rx="1" fill="#9DC797"/>
<rect x="9.4762" y="1.75" width="1.75" height="1.75" rx="0.875" fill="#9DC797"/>
<rect x="1.30957" y="9.33334" width="1.75" height="1.75" rx="0.875" fill="#9DC797"/>
<path d="M14.1429 5.25V6.41667H15.3095C19.8199 6.41667 23.4762 10.073 23.4762 14.5833C23.4762 19.0937 19.8199 22.75 15.3095 22.75C10.8602 22.75 7.24186 19.1918 7.14488 14.7657L7.14288 14.5833H5.97622C5.97622 19.738 10.1549 23.9167 15.3095 23.9167C20.4642 23.9167 24.6429 19.738 24.6429 14.5833C24.6429 9.49004 20.5631 5.34963 15.4932 5.25177L15.3095 5.25H14.1429Z" fill="white"/>
<path d="M7.05174 7C7.9679 7 8.71059 7.76174 8.71059 8.70139C8.71059 9.17746 8.51995 9.60786 8.21269 9.91667C8.51995 10.2255 8.71059 10.6559 8.71059 11.1319C8.71059 12.0403 8.01659 12.7824 7.14275 12.8308L7.05174 12.8333H5.39288V11.8611H7.05174C7.44438 11.8611 7.76268 11.5347 7.76268 11.1319C7.76268 10.7529 7.48072 10.4414 7.12021 10.4061L7.05174 10.4028H5.86684V9.43056H7.05174C7.44438 9.43056 7.76268 9.1041 7.76268 8.70139C7.76268 8.32237 7.48072 8.01089 7.12021 7.97556L7.05174 7.97222H5.39288V7H7.05174Z" fill="#9DC797"/>
<path fill-rule="evenodd" clip-rule="evenodd" d="M11.0804 7C10.0333 7 9.18455 7.87056 9.18455 8.94444V10.8889C9.18455 11.9628 10.0333 12.8333 11.0804 12.8333C12.1274 12.8333 12.9762 11.9628 12.9762 10.8889V8.94444C12.9762 7.87056 12.1274 7 11.0804 7ZM11.0804 7.97222C11.6039 7.97222 12.0283 8.4075 12.0283 8.94444V10.8889C12.0283 11.4258 11.6039 11.8611 11.0804 11.8611C10.5569 11.8611 10.1325 11.4258 10.1325 10.8889V8.94444C10.1325 8.4075 10.5569 7.97222 11.0804 7.97222Z" fill="#9DC797"/>
<path d="M14.1429 9.91666V15.4223L18.6292 18.0833L19.3929 16.9822L15.5747 14.78V9.91666H14.1429Z" fill="white"/>
</svg>