<svg xmlns:xlink="http://www.w3.org/1999/xlink" xmlns="http://www.w3.org/2000/svg" width="29" height="28" viewBox="0 0 29 28" fill="none">
<path fill-rule="evenodd" clip-rule="evenodd" d="M10.4357 14.5833C10.3069 14.5833 10.2024 14.6878 10.2024 14.8167V15.5167L10.2071 15.5637C10.2289 15.67 10.323 15.75 10.4357 15.75H10.7857L10.8886 15.753C11.7732 15.8042 12.4815 16.5126 12.5328 17.3972L12.5357 17.5V17.85L12.5405 17.897C12.5622 18.0033 12.6563 18.0833 12.7691 18.0833H13.4691C13.5979 18.0833 13.7024 17.9789 13.7024 17.85V17.5L13.7054 17.3972C13.7586 16.4785 14.5204 15.75 15.4524 15.75H15.8024C15.9313 15.75 16.0357 15.6455 16.0357 15.5167V14.8167L16.031 14.7696C16.0092 14.6633 15.9152 14.5833 15.8024 14.5833H15.4524L15.3496 14.5804C14.465 14.5291 13.7566 13.8208 13.7054 12.9362L13.7024 12.8333V12.4833L13.6977 12.4363C13.6759 12.33 13.5818 12.25 13.4691 12.25H12.7691C12.6402 12.25 12.5357 12.3545 12.5357 12.4833V12.8333L12.5328 12.9362C12.4795 13.8548 11.7177 14.5833 10.7857 14.5833H10.4357ZM13.0944 13.9915L13.1185 13.9458L13.1932 14.0754C13.4804 14.5429 13.9081 14.9242 14.3715 15.1661C13.866 15.4311 13.4029 15.8609 13.1196 16.3875C12.8352 15.8609 12.3721 15.4311 11.8666 15.1673C12.3575 14.9099 12.8082 14.4972 13.0944 13.9915Z" fill="#D7A8CC"/>
<rect x="19.5357" y="21.5833" width="2.91667" height="2.91667" rx="1" fill="#9DC797"/>
<rect x="3.78571" y="5.83334" width="2.33333" height="2.33333" rx="1" fill="#9DC797"/>
<path fill-rule="evenodd" clip-rule="evenodd" d="M20.2899 3.08751C20.5177 2.85971 20.887 2.85971 21.1148 3.08751C21.3251 3.29779 21.3413 3.62868 21.1634 3.85751L21.1148 3.91247L17.6148 7.41247C17.387 7.64028 17.0177 7.64028 16.7899 7.41247C16.5796 7.20219 16.5634 6.8713 16.7413 6.64247L16.7899 6.58751L20.2899 3.08751ZM24.6148 3.67084C24.387 3.44304 24.0177 3.44304 23.7899 3.67084L19.7065 7.75418L19.658 7.80913C19.4801 8.03797 19.4963 8.36885 19.7065 8.57914C19.9343 8.80694 20.3037 8.80694 20.5315 8.57914L24.6148 4.4958L24.6634 4.44085C24.8413 4.21201 24.8251 3.88113 24.6148 3.67084ZM25.1982 7.17084C24.9704 6.94304 24.601 6.94304 24.3732 7.17084L20.8732 10.6708L20.8247 10.7258C20.6468 10.9546 20.6629 11.2855 20.8732 11.4958C21.101 11.7236 21.4704 11.7236 21.6982 11.4958L25.1982 7.9958L25.2467 7.94085C25.4246 7.71201 25.4084 7.38113 25.1982 7.17084ZM24.0315 12.4208C23.8037 12.193 23.4343 12.193 23.2065 12.4208L20.8732 14.7542L20.8247 14.8091C20.6468 15.038 20.6629 15.3689 20.8732 15.5791C21.101 15.8069 21.4704 15.8069 21.6982 15.5791L24.0315 13.2458L24.08 13.1908C24.258 12.962 24.2418 12.6311 24.0315 12.4208ZM15.0399 4.25418C15.2677 4.02637 15.637 4.02637 15.8648 4.25418C16.0751 4.46446 16.0913 4.79534 15.9134 5.02418L15.8648 5.07914L13.5315 7.41247C13.3037 7.64028 12.9343 7.64028 12.7065 7.41247C12.4963 7.20219 12.4801 6.8713 12.658 6.64247L12.7065 6.58751L15.0399 4.25418ZM14.869 8.16666H11.369C8.46952 8.16666 6.11902 10.5172 6.11902 13.4167V16.9167C6.11902 19.8162 8.46952 22.1667 11.369 22.1667H14.869C17.7685 22.1667 20.119 19.8162 20.119 16.9167V13.4167C20.119 10.5172 17.7685 8.16666 14.869 8.16666ZM11.369 9.33332H14.869C17.1242 9.33332 18.9524 11.1615 18.9524 13.4167V16.9167C18.9524 19.1718 17.1242 21 14.869 21H11.369C9.11386 21 7.28569 19.1718 7.28569 16.9167V13.4167C7.28569 11.1615 9.11386 9.33332 11.369 9.33332Z" fill="white"/>
<path d="M4.95237 15.75V16.9167C4.95237 20.4042 7.73473 23.242 11.2008 23.3312L11.369 23.3333H13.119V24.5H11.369C7.24071 24.5 3.88287 21.2011 3.78778 17.0957L3.78571 16.9167V15.75H4.95237Z" fill="#9DC797"/>
</svg>