<svg xmlns:xlink="http://www.w3.org/1999/xlink" xmlns="http://www.w3.org/2000/svg" width="29" height="28" viewBox="0 0 29 28" fill="none">
<rect x="24.0476" y="23.3333" width="2.33334" height="2.33334" rx="1" fill="#9DC797"/>
<rect x="3.04761" y="6.41666" width="1.75" height="1.75" rx="0.875" fill="#9DC797"/>
<rect x="3.04761" y="2.33334" width="1.75" height="1.75" rx="0.875" fill="#9DC797"/>
<path fill-rule="evenodd" clip-rule="evenodd" d="M20.1976 13.4167C20.0688 13.4167 19.9643 13.5211 19.9643 13.65V14.35L19.969 14.397C19.9908 14.5034 20.0849 14.5833 20.1976 14.5833H20.5476L20.6505 14.5863C21.5351 14.6376 22.2434 15.3459 22.2947 16.2305L22.2976 16.3333V16.6833L22.3024 16.7304C22.3241 16.8367 22.4182 16.9167 22.531 16.9167H23.231C23.3598 16.9167 23.4643 16.8122 23.4643 16.6833V16.3333L23.4673 16.2305C23.5205 15.3119 24.2823 14.5833 25.2143 14.5833H25.5643C25.6932 14.5833 25.7976 14.4789 25.7976 14.35V13.65L25.7929 13.603C25.7711 13.4967 25.6771 13.4167 25.5643 13.4167H25.2143L25.1115 13.4137C24.2269 13.3625 23.5185 12.6541 23.4673 11.7695L23.4643 11.6667V11.3167L23.4596 11.2697C23.4378 11.1633 23.3437 11.0833 23.231 11.0833H22.531C22.4021 11.0833 22.2976 11.1878 22.2976 11.3167V11.6667L22.2947 11.7695C22.2414 12.6881 21.4796 13.4167 20.5476 13.4167H20.1976ZM22.8563 12.8248L22.8804 12.7792L22.9551 12.9088C23.2423 13.3762 23.67 13.7575 24.1334 13.9994C23.6279 14.2645 23.1648 14.6943 22.8815 15.2208C22.5971 14.6943 22.134 14.2645 21.6285 14.0006C22.1194 13.7433 22.5701 13.3306 22.8563 12.8248Z" fill="#D7A8CC"/>
<path d="M8.88096 7.58334H14.7143V8.75001H8.88096V7.58334Z" fill="white"/>
<path d="M14.7143 9.91668H8.88096V11.0833H14.7143V9.91668Z" fill="white"/>
<path d="M8.88096 12.25H12.381V13.4167H8.88096V12.25Z" fill="white"/>
<path d="M11.7976 21.5833C12.442 21.5833 12.9643 21.061 12.9643 20.4167C12.9643 19.7723 12.442 19.25 11.7976 19.25C11.1533 19.25 10.631 19.7723 10.631 20.4167C10.631 21.061 11.1533 21.5833 11.7976 21.5833Z" fill="white"/>
<path fill-rule="evenodd" clip-rule="evenodd" d="M20.5476 4.08334C22.1585 4.08334 23.4643 5.38918 23.4643 7.00001V9.62501H22.2976V7.00001C22.2976 6.03351 21.5141 5.25001 20.5476 5.25001H19.9645C20.3307 5.73748 20.5476 6.34341 20.5476 7.00001V11.375H19.381V7.00001C19.381 6.03351 18.5975 5.25001 17.631 5.25001H17.0478C17.414 5.73748 17.631 6.34341 17.631 7.00001V21C17.631 21.6566 17.414 22.2625 17.0478 22.75H17.631C18.5975 22.75 19.381 21.9665 19.381 21V16.9167H20.5476V21C20.5476 21.6566 20.3307 22.2625 19.9645 22.75H20.5476C21.5141 22.75 22.2976 21.9665 22.2976 21V18.0833H23.4643V21C23.4643 22.6108 22.1585 23.9167 20.5476 23.9167H8.88096C7.27013 23.9167 5.96429 22.6108 5.96429 21V7.00001C5.96429 5.38918 7.27013 4.08334 8.88096 4.08334H20.5476ZM8.88096 5.25001C7.91446 5.25001 7.13096 6.03351 7.13096 7.00001V21C7.13096 21.9665 7.91446 22.75 8.88096 22.75H14.7143C15.6808 22.75 16.4643 21.9665 16.4643 21V7.00001C16.4643 6.03351 15.6808 5.25001 14.7143 5.25001H8.88096Z" fill="white"/>
</svg>