<svg xmlns:xlink="http://www.w3.org/1999/xlink" xmlns="http://www.w3.org/2000/svg" width="29" height="28" viewBox="0 0 29 28" fill="none">
<path fill-rule="evenodd" clip-rule="evenodd" d="M7.66192 8.74999C7.53306 8.74999 7.42859 8.85446 7.42859 8.98332V9.68332L7.43333 9.73035C7.45509 9.83667 7.54916 9.91666 7.66192 9.91666H8.01192L8.11475 9.91963C8.99936 9.97088 9.7077 10.6792 9.75895 11.5638L9.76192 11.6667V12.0167L9.76666 12.0637C9.78842 12.17 9.8825 12.25 9.99526 12.25H10.6953C10.8241 12.25 10.9286 12.1455 10.9286 12.0167V11.6667L10.9316 11.5638C10.9848 10.6452 11.7466 9.91666 12.6786 9.91666H13.0286C13.1575 9.91666 13.2619 9.81219 13.2619 9.68332V8.98332L13.2572 8.9363C13.2354 8.82997 13.1413 8.74999 13.0286 8.74999H12.6786L12.5758 8.74702C11.6911 8.69576 10.9828 7.98743 10.9316 7.10282L10.9286 6.99999V6.64999L10.9238 6.60297C10.9021 6.49664 10.808 6.41666 10.6953 6.41666H9.99526C9.86639 6.41666 9.76192 6.52112 9.76192 6.64999V6.99999L9.75895 7.10282C9.70572 8.02145 8.9439 8.74999 8.01192 8.74999H7.66192ZM10.3206 8.15815L10.3447 8.1125L10.4194 8.24208C10.7066 8.70953 11.1343 9.09085 11.5977 9.33273C11.0922 9.59778 10.6291 10.0276 10.3458 10.5541C10.0614 10.0276 9.59834 9.59778 9.09284 9.33392C9.58365 9.07657 10.0344 8.66388 10.3206 8.15815Z" fill="#D7A8CC"/>
<path fill-rule="evenodd" clip-rule="evenodd" d="M17.9257 15.0638C17.8724 14.1452 17.1106 13.4167 16.1786 13.4167H4.51196L4.40914 13.4196C3.4905 13.4729 2.76196 14.2347 2.76196 15.1667V21L2.76493 21.1028C2.81816 22.0215 3.57998 22.75 4.51196 22.75H16.1786L16.2815 22.747C17.2001 22.6938 17.9286 21.932 17.9286 21V15.1667L17.9257 15.0638ZM4.51196 14.5833H16.1786C16.5008 14.5833 16.762 14.8445 16.762 15.1667V17.5H13.262V18.6667H16.762V21L16.758 21.068C16.7243 21.3581 16.4778 21.5833 16.1786 21.5833H4.51196L4.44393 21.5794C4.15382 21.5457 3.92863 21.2991 3.92863 21V18.6667H7.42863V17.5H3.92863V15.1667L3.93255 15.0986C3.96625 14.8085 4.21281 14.5833 4.51196 14.5833Z" fill="white"/>
<path fill-rule="evenodd" clip-rule="evenodd" d="M18.3618 7.41248L17.5368 6.58752L14.791 9.33334L17.5368 12.0791L18.3618 11.2542L17.0243 9.91667H23.1786L23.2814 9.91964C24.2 9.97287 24.9286 10.7347 24.9286 11.6667V15.75L24.9256 15.8528C24.8724 16.7715 24.1106 17.5 23.1786 17.5H17.3452V18.6667H23.1786L23.3051 18.664C24.8572 18.5977 26.0952 17.3184 26.0952 15.75V11.6667L26.0926 11.5402C26.0263 9.98802 24.747 8.75 23.1786 8.75H17.0237L18.3618 7.41248Z" fill="white"/>
<rect x="5.67859" y="4.66666" width="2.33333" height="2.33333" rx="1" fill="#9DC797"/>
<path d="M10.3452 16.3333C11.3117 16.3333 12.0952 17.1168 12.0952 18.0833C12.0952 19.0498 11.3117 19.8333 10.3452 19.8333C9.37872 19.8333 8.59521 19.0498 8.59521 18.0833C8.59521 17.1168 9.37872 16.3333 10.3452 16.3333Z" fill="#9DC797"/>
</svg>