<svg xmlns="http://www.w3.org/2000/svg" xmlns:xlink="http://www.w3.org/1999/xlink" viewBox="0 0 1200 580" width="1200" height="580" preserveAspectRatio="xMidYMid meet" style="width: 100%; height: 100%; transform: translate3d(0px, 0px, 0px); content-visibility: visible;"><defs><clipPath id="__lottie_element_1817"><rect width="1200" height="580" x="0" y="0"></rect></clipPath><linearGradient id="__lottie_element_1827" spreadMethod="pad" gradientUnits="userSpaceOnUse" x1="-205" y1="0" x2="-39" y2="0"><stop offset="0%" stop-color="rgb(238,211,255)"></stop><stop offset="50%" stop-color="rgb(246,233,255)"></stop><stop offset="100%" stop-color="rgb(255,255,255)"></stop></linearGradient><linearGradient id="__lottie_element_1828" spreadMethod="pad" gradientUnits="userSpaceOnUse" x1="-182" y1="0" x2="-118" y2="0"><stop offset="0%" stop-color="rgb(255,255,255)"></stop><stop offset="50%" stop-color="rgb(236,213,250)"></stop><stop offset="100%" stop-color="rgb(217,170,246)"></stop></linearGradient><linearGradient id="__lottie_element_1827" spreadMethod="pad" gradientUnits="userSpaceOnUse" x1="-205" y1="0" x2="-39" y2="0"><stop offset="0%" stop-color="rgb(238,211,255)"></stop><stop offset="50%" stop-color="rgb(246,233,255)"></stop><stop offset="100%" stop-color="rgb(255,255,255)"></stop></linearGradient><linearGradient id="__lottie_element_1828" spreadMethod="pad" gradientUnits="userSpaceOnUse" x1="-182" y1="0" x2="-118" y2="0"><stop offset="0%" stop-color="rgb(255,255,255)"></stop><stop offset="50%" stop-color="rgb(236,213,250)"></stop><stop offset="100%" stop-color="rgb(217,170,246)"></stop></linearGradient></defs><g clip-path="url(#__lottie_element_1817)"><g transform="matrix(1,0,0,1,501.7499694824219,309.47998046875)" opacity="1" style="display: block;"><path fill="#F3DFFF" fill-opacity="1" d=" M518.3400268554688,10.199000358581543 C518.3400268554688,10.199000358581543 4.75,10.199000358581543 4.75,10.199000358581543 C2.259999990463257,10.199000358581543 0.25,8.189000129699707 0.25,5.698999881744385 C0.25,5.698999881744385 0.25,4.75 0.25,4.75 C0.25,2.259999990463257 2.259999990463257,0.25 4.75,0.25 C4.75,0.25 518.3400268554688,0.25 518.3400268554688,0.25 C520.8300170898438,0.25 522.8400268554688,2.259999990463257 522.8400268554688,4.75 C522.8400268554688,4.75 522.8400268554688,5.698999881744385 522.8400268554688,5.698999881744385 C522.8400268554688,8.189000129699707 520.8300170898438,10.199000358581543 518.3400268554688,10.199000358581543z"></path></g><g transform="matrix(1,0,0,1,599.0799560546875,49.58000183105469)" opacity="1" style="display: block;"><g opacity="1" transform="matrix(1,0,0,1,52.78499984741211,158.1199951171875)"><path fill="#DEE9ED" fill-opacity="1" d=" M47.005001068115234,-67.19100189208984 C34.85499954223633,-55.04100036621094 26.944000244140625,-41.08000183105469 21.795000076293945,-28.040000915527344 C20.40399932861328,-70.30000305175781 7.193999767303467,-102.03099822998047 7.193999767303467,-102.03099822998047 C0.02500000037252903,-85.9010009765625 -3.2660000324249268,-65.9000015258789 -4.556000232696533,-46.90999984741211 C-16.114999771118164,-85.30999755859375 -37.60499954223633,-102.03099822998047 -37.60499954223633,-102.03099822998047 C-39.84600067138672,-77.38099670410156 -36.03499984741211,-50.720001220703125 -31.165000915527344,-28.850000381469727 C-36.84600067138672,-35.4900016784668 -43.8650016784668,-41.861000061035156 -52.53499984741211,-47.28099822998047 C-52.53499984741211,-47.28099822998047 -52.53499984741211,-6.550000190734863 -36.564998626708984,17.420000076293945 C-36.564998626708984,17.420000076293945 -51.98500061035156,17.420000076293945 -51.98500061035156,17.420000076293945 C-51.98500061035156,17.420000076293945 -37.055999755859375,102.03099822998047 -37.055999755859375,102.03099822998047 C-37.055999755859375,102.03099822998047 37.60499954223633,102.03099822998047 37.60499954223633,102.03099822998047 C37.60499954223633,102.03099822998047 52.53499984741211,17.420000076293945 52.53499984741211,17.420000076293945 C52.53499984741211,17.420000076293945 34.685001373291016,17.420000076293945 34.685001373291016,17.420000076293945 C51.53499984741211,-17.40999984741211 47.005001068115234,-67.19100189208984 47.005001068115234,-67.19100189208984z"></path></g><g opacity="1" transform="matrix(1,0,0,1,316.30999755859375,130.19500732421875)"><path fill="#DEE9ED" fill-opacity="1" d=" M60.970001220703125,-25.0049991607666 C60.970001220703125,-25.0049991607666 14.168999671936035,-92.59500122070312 14.168999671936035,-92.59500122070312 C15.470000267028809,-96.16500091552734 15.949999809265137,-99.96499633789062 15.600000381469727,-103.71499633789062 C15.600000381469727,-103.71499633789062 17.579999923706055,-105.69499969482422 17.579999923706055,-105.69499969482422 C22.458999633789062,-110.57499694824219 22.809999465942383,-118.36499786376953 18.399999618530273,-123.66500091552734 C14.1899995803833,-128.71499633789062 6.929999828338623,-129.94500732421875 1.2890000343322754,-126.56500244140625 C1.2890000343322754,-126.56500244140625 -1.0410000085830688,-125.16500091552734 -1.0410000085830688,-125.16500091552734 C-7.989999771118164,-127.65499877929688 -15.920000076293945,-127.07499694824219 -22.6299991607666,-123.04499816894531 C-22.6299991607666,-123.04499816894531 -26.211000442504883,-120.8949966430664 -26.211000442504883,-120.8949966430664 C-37.47999954223633,-125.54499816894531 -50.500999450683594,-125.32499694824219 -61.93000030517578,-119.6050033569336 C-61.93000030517578,-119.6050033569336 -67.18000030517578,-116.9749984741211 -67.18000030517578,-116.9749984741211 C-67.18000030517578,-116.9749984741211 -50.56999969482422,-98.98500061035156 -50.56999969482422,-98.98500061035156 C-50.56999969482422,-98.98500061035156 -78.79100036621094,-98.98500061035156 -78.79100036621094,-98.98500061035156 C-80.62100219726562,-98.98500061035156 -82.11000061035156,-97.49500274658203 -82.11000061035156,-95.66500091552734 C-82.11000061035156,-95.66500091552734 -82.11000061035156,-7.735000133514404 -82.11000061035156,-7.735000133514404 C-82.11000061035156,-5.90500020980835 -80.62100219726562,-4.414999961853027 -78.79100036621094,-4.414999961853027 C-78.79100036621094,-4.414999961853027 -10.770000457763672,-4.414999961853027 -10.770000457763672,-4.414999961853027 C-8.9399995803833,-4.414999961853027 -7.449999809265137,-5.90500020980835 -7.449999809265137,-7.735000133514404 C-7.449999809265137,-7.735000133514404 -7.449999809265137,-52.28499984741211 -7.449999809265137,-52.28499984741211 C-7.449999809265137,-52.28499984741211 1.7400000095367432,-42.334999084472656 1.7400000095367432,-42.334999084472656 C7.360000133514404,-49.3650016784668 10.449999809265137,-57.67499923706055 11.0600004196167,-66.125 C11.0600004196167,-66.125 44.650001525878906,-19.934999465942383 44.650001525878906,-19.934999465942383 C39.4900016784668,-15.725000381469727 36.189998626708984,-9.3149995803833 36.189998626708984,-2.134999990463257 C36.189998626708984,4.764999866485596 39.2400016784668,10.9350004196167 44.060001373291016,15.145000457763672 C44.060001373291016,15.145000457763672 -9.75100040435791,101.23500061035156 -9.75100040435791,101.23500061035156 C-9.75100040435791,101.23500061035156 -21.239999771118164,101.23500061035156 -21.239999771118164,101.23500061035156 C-23.489999771118164,101.23500061035156 -25.59000015258789,101.8949966430664 -27.371000289916992,103.01499938964844 C-27.371000289916992,103.01499938964844 -27.371000289916992,35.3849983215332 -27.371000289916992,35.3849983215332 C-27.371000289916992,35.3849983215332 -72.16000366210938,35.3849983215332 -72.16000366210938,35.3849983215332 C-72.16000366210938,35.3849983215332 -72.16000366210938,129.94500732421875 -72.16000366210938,129.94500732421875 C-72.16000366210938,129.94500732421875 -55.70000076293945,129.94500732421875 -55.70000076293945,129.94500732421875 C-55.70000076293945,129.94500732421875 -27.389999389648438,129.94500732421875 -27.389999389648438,129.94500732421875 C-27.389999389648438,129.94500732421875 53.38999938964844,129.94500732421875 53.38999938964844,129.94500732421875 C53.38999938964844,120.43499755859375 45.68000030517578,112.71499633789062 36.15999984741211,112.71499633789062 C36.15999984741211,112.71499633789062 30.420000076293945,112.71499633789062 30.420000076293945,112.71499633789062 C30.420000076293945,106.375 25.280000686645508,101.2249984741211 18.93000030517578,101.2249984741211 C18.93000030517578,101.2249984741211 7.440000057220459,101.2249984741211 7.440000057220459,101.2249984741211 C7.440000057220459,101.2249984741211 57.72999954223633,20.7549991607666 57.72999954223633,20.7549991607666 C58.189998626708984,20.78499984741211 58.650001525878906,20.825000762939453 59.119998931884766,20.825000762939453 C71.80999755859375,20.825000762939453 82.08999633789062,10.545000076293945 82.08999633789062,-2.1449999809265137 C82.11000061035156,-14.194999694824219 72.78900146484375,-24.075000762939453 60.970001220703125,-25.0049991607666z M-17.440000534057617,-14.385000228881836 C-17.440000534057617,-14.385000228881836 -72.19000244140625,-14.385000228881836 -72.19000244140625,-14.385000228881836 C-72.19000244140625,-14.385000228881836 -72.19000244140625,-89.03500366210938 -72.19000244140625,-89.03500366210938 C-72.19000244140625,-89.03500366210938 -41.40999984741211,-89.03500366210938 -41.40999984741211,-89.03500366210938 C-41.40999984741211,-89.03500366210938 -17.440000534057617,-63.064998626708984 -17.440000534057617,-63.064998626708984 C-17.440000534057617,-63.064998626708984 -17.440000534057617,-14.385000228881836 -17.440000534057617,-14.385000228881836z"></path></g></g><g transform="matrix(1,0,0,1,656.0399780273438,115.37000274658203)" opacity="1" style="display: block;"><g opacity="1" transform="matrix(1,0,0,1,104.76899719238281,189.38499450683594)"><path fill="#B33B9D" fill-opacity="1" d=" M89.59100341796875,4.974999904632568 C89.59100341796875,4.974999904632568 -89.59100341796875,4.974999904632568 -89.59100341796875,4.974999904632568 C-89.59100341796875,4.974999904632568 -89.59100341796875,4.013999938964844 -89.59100341796875,4.013999938964844 C-89.59100341796875,-0.9559999704360962 -85.56900024414062,-4.974999904632568 -80.5989990234375,-4.974999904632568 C-80.5989990234375,-4.974999904632568 80.59100341796875,-4.974999904632568 80.59100341796875,-4.974999904632568 C85.56099700927734,-4.974999904632568 89.5790023803711,-0.9559999704360962 89.5790023803711,4.013999938964844 C89.5790023803711,4.013999938964844 89.5790023803711,4.974999904632568 89.5790023803711,4.974999904632568 C89.5790023803711,4.974999904632568 89.59100341796875,4.974999904632568 89.59100341796875,4.974999904632568z"></path></g><g opacity="1" transform="matrix(1,0,0,1,87.3489990234375,171.96499633789062)"><path fill="#B33B9D" fill-opacity="1" d=" M2.490000009536743,-12.444999694824219 C2.490000009536743,-12.444999694824219 17.420000076293945,-12.444999694824219 17.420000076293945,-12.444999694824219 C17.420000076293945,-12.444999694824219 17.420000076293945,12.444999694824219 17.420000076293945,12.444999694824219 C17.420000076293945,12.444999694824219 -17.420000076293945,12.444999694824219 -17.420000076293945,12.444999694824219 C2.490000009536743,12.434000015258789 2.490000009536743,-12.444999694824219 2.490000009536743,-12.444999694824219z"></path></g><g opacity="1" transform="matrix(1,0,0,1,104.7699966430664,79.88500213623047)"><path fill="#A8128C" fill-opacity="1" d=" M93.45899963378906,79.63500213623047 C93.45899963378906,79.63500213623047 -93.46099853515625,79.63500213623047 -93.46099853515625,79.63500213623047 C-99.56999969482422,79.63500213623047 -104.5199966430664,74.68499755859375 -104.5199966430664,68.57499694824219 C-104.5199966430664,68.57499694824219 -104.5199966430664,-68.57499694824219 -104.5199966430664,-68.57499694824219 C-104.5199966430664,-74.68499755859375 -99.56999969482422,-79.63500213623047 -93.46099853515625,-79.63500213623047 C-93.46099853515625,-79.63500213623047 93.45899963378906,-79.63500213623047 93.45899963378906,-79.63500213623047 C99.56900024414062,-79.63500213623047 104.5199966430664,-74.68499755859375 104.5199966430664,-68.57499694824219 C104.5199966430664,-68.57499694824219 104.5199966430664,68.56500244140625 104.5199966430664,68.56500244140625 C104.5199966430664,74.68499755859375 99.56900024414062,79.63500213623047 93.45899963378906,79.63500213623047z"></path></g><g opacity="1" transform="matrix(1,0,0,1,109.7490005493164,79.88500213623047)"><path fill="#B23B9D" fill-opacity="1" d=" M93.45099639892578,79.63500213623047 C93.45099639892578,79.63500213623047 -93.45899963378906,79.63500213623047 -93.45899963378906,79.63500213623047 C-99.56999969482422,79.63500213623047 -104.5199966430664,74.68499755859375 -104.5199966430664,68.57499694824219 C-104.5199966430664,68.57499694824219 -104.5199966430664,-68.57499694824219 -104.5199966430664,-68.57499694824219 C-104.5199966430664,-74.68499755859375 -99.56999969482422,-79.63500213623047 -93.45899963378906,-79.63500213623047 C-93.45899963378906,-79.63500213623047 93.46099853515625,-79.63500213623047 93.46099853515625,-79.63500213623047 C99.57099914550781,-79.63500213623047 104.5199966430664,-74.68499755859375 104.5199966430664,-68.57499694824219 C104.5199966430664,-68.57499694824219 104.5199966430664,68.56500244140625 104.5199966430664,68.56500244140625 C104.51100158691406,74.68499755859375 99.55999755859375,79.63500213623047 93.45099639892578,79.63500213623047z"></path></g><g opacity="1" transform="matrix(1,0,0,1,21.270000457763672,127.55000305175781)"><path fill="#221F1F" fill-opacity="0.2" d=" M21.020000457763672,31.969999313354492 C13.5600004196167,6.659999847412109 -1.2799999713897705,-15.489999771118164 -21.020000457763672,-31.969999313354492 C-21.020000457763672,-31.969999313354492 -21.020000457763672,20.90999984741211 -21.020000457763672,20.90999984741211 C-21.020000457763672,27.020000457763672 -16.06999969482422,31.969999313354492 -9.960000038146973,31.969999313354492 C-9.960000038146973,31.969999313354492 21.020000457763672,31.969999313354492 21.020000457763672,31.969999313354492z"></path></g><g opacity="1" transform="matrix(1,0,0,1,109.7490005493164,67.44000244140625)"><path fill="#82176E" fill-opacity="1" d=" M104.51000213623047,67.19000244140625 C104.51000213623047,67.19000244140625 -104.5199966430664,67.19000244140625 -104.5199966430664,67.19000244140625 C-104.5199966430664,67.19000244140625 -104.5199966430664,-56.130001068115234 -104.5199966430664,-56.130001068115234 C-104.5199966430664,-62.2400016784668 -99.56999969482422,-67.19000244140625 -93.45999908447266,-67.19000244140625 C-93.45999908447266,-67.19000244140625 93.45999908447266,-67.19000244140625 93.45999908447266,-67.19000244140625 C99.57099914550781,-67.19000244140625 104.5199966430664,-62.2400016784668 104.5199966430664,-56.130001068115234 C104.5199966430664,-56.130001068115234 104.5199966430664,56.91999816894531 104.5199966430664,56.91999816894531 C104.5199966430664,56.91999816894531 104.5199966430664,58.790000915527344 104.5199966430664,58.790000915527344 C104.5199966430664,58.790000915527344 104.5199966430664,67.19000244140625 104.5199966430664,67.19000244140625 C104.5199966430664,67.19000244140625 104.51000213623047,67.19000244140625 104.51000213623047,67.19000244140625z"></path></g><g opacity="1" transform="matrix(1,0,0,1,109.75,67.44499969482422)"><path fill="#FFE7FC" fill-opacity="1" d=" M94.54000091552734,62.21500015258789 C94.54000091552734,62.21500015258789 -94.54000091552734,62.21500015258789 -94.54000091552734,62.21500015258789 C-97.30000305175781,62.21500015258789 -99.54000091552734,59.974998474121094 -99.54000091552734,57.21500015258789 C-99.54000091552734,57.21500015258789 -99.54000091552734,-57.21500015258789 -99.54000091552734,-57.21500015258789 C-99.54000091552734,-59.974998474121094 -97.30000305175781,-62.21500015258789 -94.54000091552734,-62.21500015258789 C-94.54000091552734,-62.21500015258789 94.54000091552734,-62.21500015258789 94.54000091552734,-62.21500015258789 C97.30000305175781,-62.21500015258789 99.54000091552734,-59.974998474121094 99.54000091552734,-57.21500015258789 C99.54000091552734,-57.21500015258789 99.54000091552734,57.21500015258789 99.54000091552734,57.21500015258789 C99.54000091552734,59.974998474121094 97.30000305175781,62.21500015258789 94.54000091552734,62.21500015258789z"></path></g><g opacity="1" transform="matrix(1,0,0,1,109.7490005493164,145.42999267578125)"><path fill="#221F1F" fill-opacity="0.12" d=" M0,-5.579999923706055 C3.0820000171661377,-5.579999923706055 5.579999923706055,-3.0820000171661377 5.579999923706055,0 C5.579999923706055,3.0820000171661377 3.0820000171661377,5.579999923706055 0,5.579999923706055 C-3.0820000171661377,5.579999923706055 -5.579999923706055,3.0820000171661377 -5.579999923706055,0 C-5.579999923706055,-3.0820000171661377 -3.0820000171661377,-5.579999923706055 0,-5.579999923706055z"></path></g><g opacity="1" transform="matrix(1,0,0,1,109.74500274658203,189.38499450683594)"><path fill="#C843B0" fill-opacity="1" d=" M89.58499908447266,4.974999904632568 C89.58499908447266,4.974999904632568 -89.58499908447266,4.974999904632568 -89.58499908447266,4.974999904632568 C-89.58499908447266,4.974999904632568 -89.58499908447266,4.013999938964844 -89.58499908447266,4.013999938964844 C-89.58499908447266,-0.9559999704360962 -85.56500244140625,-4.974999904632568 -80.59500122070312,-4.974999904632568 C-80.59500122070312,-4.974999904632568 80.59500122070312,-4.974999904632568 80.59500122070312,-4.974999904632568 C85.56400299072266,-4.974999904632568 89.58499908447266,-0.9559999704360962 89.58499908447266,4.013999938964844 C89.58499908447266,4.013999938964844 89.58499908447266,4.974999904632568 89.58499908447266,4.974999904632568z"></path></g><g opacity="1" transform="matrix(1,0,0,1,109.7490005493164,171.96499633789062)"><path fill="#A02A83" fill-opacity="1" d=" M14.930000305175781,-12.444999694824219 C14.930000305175781,-12.444999694824219 0,-12.444999694824219 0,-12.444999694824219 C0,-12.444999694824219 -14.928999900817871,-12.444999694824219 -14.928999900817871,-12.444999694824219 C-14.928999900817871,-12.444999694824219 -14.928999900817871,12.444999694824219 -34.84000015258789,12.444999694824219 C-34.84000015258789,12.444999694824219 0,12.444999694824219 0,12.444999694824219 C0,12.444999694824219 34.84000015258789,12.444999694824219 34.84000015258789,12.444999694824219 C14.930000305175781,12.434000015258789 14.930000305175781,-12.444999694824219 14.930000305175781,-12.444999694824219z"></path></g><g opacity="1" transform="matrix(1,0,0,1,107.26000213623047,162.00999450683594)"><path fill="#731562" fill-opacity="1" d=" M-17.420000076293945,-2.490000009536743 C-17.420000076293945,-2.490000009536743 17.420000076293945,-2.490000009536743 17.420000076293945,-2.490000009536743 C17.420000076293945,-2.490000009536743 17.420000076293945,2.490000009536743 17.420000076293945,2.490000009536743 C17.420000076293945,2.490000009536743 -17.420000076293945,2.490000009536743 -17.420000076293945,2.490000009536743 C-17.420000076293945,2.490000009536743 -17.420000076293945,-2.490000009536743 -17.420000076293945,-2.490000009536743z"></path></g><g opacity="1" transform="matrix(1,0,0,1,174.7239990234375,42.55500030517578)"><path fill="#FFFFFF" fill-opacity="1" d=" M-24.375,27.375 C-24.375,27.375 24.375,27.375 24.375,27.375 C26.03499984741211,27.375 27.375,26.03499984741211 27.375,24.375 C27.375,24.375 27.375,-24.375 27.375,-24.375 C27.375,-26.03499984741211 26.03499984741211,-27.375 24.375,-27.375 C24.375,-27.375 -24.375,-27.375 -24.375,-27.375 C-26.034000396728516,-27.375 -27.375,-26.03499984741211 -27.375,-24.375 C-27.375,-24.375 -27.375,24.375 -27.375,24.375 C-27.375,26.03499984741211 -26.034000396728516,27.375 -24.375,27.375z"></path></g><g opacity="1" transform="matrix(1,0,0,1,194.63499450683594,82.375)"><path fill="#FFFFFF" fill-opacity="1" d=" M-4.465000152587891,7.465000152587891 C-4.465000152587891,7.465000152587891 4.465000152587891,7.465000152587891 4.465000152587891,7.465000152587891 C6.125,7.465000152587891 7.465000152587891,6.125 7.465000152587891,4.465000152587891 C7.465000152587891,4.465000152587891 7.465000152587891,-4.465000152587891 7.465000152587891,-4.465000152587891 C7.465000152587891,-6.125 6.125,-7.465000152587891 4.465000152587891,-7.465000152587891 C4.465000152587891,-7.465000152587891 -4.465000152587891,-7.465000152587891 -4.465000152587891,-7.465000152587891 C-6.125,-7.465000152587891 -7.465000152587891,-6.125 -7.465000152587891,-4.465000152587891 C-7.465000152587891,-4.465000152587891 -7.465000152587891,4.465000152587891 -7.465000152587891,4.465000152587891 C-7.465000152587891,6.125 -6.125,7.465000152587891 -4.465000152587891,7.465000152587891z"></path></g><g opacity="1" transform="matrix(1,0,0,1,174.72500610351562,82.375)"><path fill="#FFFFFF" fill-opacity="1" d=" M-4.465000152587891,7.465000152587891 C-4.465000152587891,7.465000152587891 4.465000152587891,7.465000152587891 4.465000152587891,7.465000152587891 C6.124000072479248,7.465000152587891 7.465000152587891,6.125 7.465000152587891,4.465000152587891 C7.465000152587891,4.465000152587891 7.465000152587891,-4.465000152587891 7.465000152587891,-4.465000152587891 C7.465000152587891,-6.125 6.124000072479248,-7.465000152587891 4.465000152587891,-7.465000152587891 C4.465000152587891,-7.465000152587891 -4.465000152587891,-7.465000152587891 -4.465000152587891,-7.465000152587891 C-6.125,-7.465000152587891 -7.465000152587891,-6.125 -7.465000152587891,-4.465000152587891 C-7.465000152587891,-4.465000152587891 -7.465000152587891,4.465000152587891 -7.465000152587891,4.465000152587891 C-7.465000152587891,6.125 -6.125,7.465000152587891 -4.465000152587891,7.465000152587891z"></path></g><g opacity="1" transform="matrix(1,0,0,1,50.30400085449219,52.5099983215332)"><path fill="#E6E7E7" fill-opacity="1" d=" M-24.375,37.33000183105469 C-24.375,37.33000183105469 24.375,37.33000183105469 24.375,37.33000183105469 C26.03499984741211,37.33000183105469 27.375,35.9900016784668 27.375,34.33000183105469 C27.375,34.33000183105469 27.375,-34.33000183105469 27.375,-34.33000183105469 C27.375,-35.9900016784668 26.03499984741211,-37.33000183105469 24.375,-37.33000183105469 C24.375,-37.33000183105469 -24.375,-37.33000183105469 -24.375,-37.33000183105469 C-26.03499984741211,-37.33000183105469 -27.375,-35.9900016784668 -27.375,-34.33000183105469 C-27.375,-34.33000183105469 -27.375,34.33000183105469 -27.375,34.33000183105469 C-27.375,35.9900016784668 -26.03499984741211,37.33000183105469 -24.375,37.33000183105469z"></path></g><g opacity="1" transform="matrix(1,0,0,1,110.02400207519531,112.23999786376953)"><path fill="#F3EEEB" fill-opacity="1" d=" M-92.0739974975586,17.420000076293945 C-92.0739974975586,17.420000076293945 92.0739974975586,17.420000076293945 92.0739974975586,17.420000076293945 C92.0739974975586,17.420000076293945 92.0739974975586,-14.420000076293945 92.0739974975586,-14.420000076293945 C92.0739974975586,-16.079999923706055 90.73500061035156,-17.420000076293945 89.0739974975586,-17.420000076293945 C89.0739974975586,-17.420000076293945 -89.0739974975586,-17.420000076293945 -89.0739974975586,-17.420000076293945 C-90.73400115966797,-17.420000076293945 -92.0739974975586,-16.079999923706055 -92.0739974975586,-14.420000076293945 C-92.0739974975586,-14.420000076293945 -92.0739974975586,17.420000076293945 -92.0739974975586,17.420000076293945z"></path></g><g opacity="1" transform="matrix(1,0,0,1,117.48500061035156,20.165000915527344)"><path fill="#FFFFFF" fill-opacity="1" d=" M-20.385000228881836,4.974999904632568 C-20.385000228881836,4.974999904632568 20.385000228881836,4.974999904632568 20.385000228881836,4.974999904632568 C22.875,4.974999904632568 24.885000228881836,2.9649999141693115 24.885000228881836,0.4749999940395355 C24.885000228881836,0.4749999940395355 24.885000228881836,-0.4749999940395355 24.885000228881836,-0.4749999940395355 C24.885000228881836,-2.9649999141693115 22.875,-4.974999904632568 20.385000228881836,-4.974999904632568 C20.385000228881836,-4.974999904632568 -20.385000228881836,-4.974999904632568 -20.385000228881836,-4.974999904632568 C-22.874000549316406,-4.974999904632568 -24.885000228881836,-2.9649999141693115 -24.885000228881836,-0.4749999940395355 C-24.885000228881836,-0.4749999940395355 -24.885000228881836,0.4749999940395355 -24.885000228881836,0.4749999940395355 C-24.885000228881836,2.9549999237060547 -22.86400032043457,4.974999904632568 -20.385000228881836,4.974999904632568z"></path></g><g opacity="1" transform="matrix(1,0,0,1,50.29499816894531,79.88500213623047)"><path fill="#E8373F" fill-opacity="1" d=" M-21.395000457763672,4.974999904632568 C-21.395000457763672,4.974999904632568 21.395000457763672,4.974999904632568 21.395000457763672,4.974999904632568 C21.94499969482422,4.974999904632568 22.395000457763672,4.525000095367432 22.395000457763672,3.9749999046325684 C22.395000457763672,3.9749999046325684 22.395000457763672,-3.9749999046325684 22.395000457763672,-3.9749999046325684 C22.395000457763672,-4.525000095367432 21.94499969482422,-4.974999904632568 21.395000457763672,-4.974999904632568 C21.395000457763672,-4.974999904632568 -21.395000457763672,-4.974999904632568 -21.395000457763672,-4.974999904632568 C-21.945999145507812,-4.974999904632568 -22.395000457763672,-4.525000095367432 -22.395000457763672,-3.9749999046325684 C-22.395000457763672,-3.9749999046325684 -22.395000457763672,3.9749999046325684 -22.395000457763672,3.9749999046325684 C-22.395000457763672,4.525000095367432 -21.945999145507812,4.974999904632568 -21.395000457763672,4.974999904632568z"></path></g><g opacity="1" transform="matrix(1,0,0,1,124.59500122070312,32.599998474121094)"><path fill="#FFFFFF" fill-opacity="1" d=" M-15.524999618530273,2.490000009536743 C-15.524999618530273,2.490000009536743 15.524999618530273,2.490000009536743 15.524999618530273,2.490000009536743 C16.764999389648438,2.490000009536743 17.774999618530273,1.4800000190734863 17.774999618530273,0.23999999463558197 C17.774999618530273,0.23999999463558197 17.774999618530273,-0.23999999463558197 17.774999618530273,-0.23999999463558197 C17.774999618530273,-1.4800000190734863 16.764999389648438,-2.490000009536743 15.524999618530273,-2.490000009536743 C15.524999618530273,-2.490000009536743 -15.524999618530273,-2.490000009536743 -15.524999618530273,-2.490000009536743 C-16.764999389648438,-2.490000009536743 -17.774999618530273,-1.4800000190734863 -17.774999618530273,-0.23999999463558197 C-17.774999618530273,-0.23999999463558197 -17.774999618530273,0.23999999463558197 -17.774999618530273,0.23999999463558197 C-17.774999618530273,1.4800000190734863 -16.764999389648438,2.490000009536743 -15.524999618530273,2.490000009536743z"></path></g><g opacity="1" transform="matrix(1,0,0,1,60.255001068115234,22.649999618530273)"><path fill="#FFFFFF" fill-opacity="1" d=" M-10.194999694824219,2.490000009536743 C-10.194999694824219,2.490000009536743 10.194999694824219,2.490000009536743 10.194999694824219,2.490000009536743 C11.4350004196167,2.490000009536743 12.444999694824219,1.4800000190734863 12.444999694824219,0.23999999463558197 C12.444999694824219,0.23999999463558197 12.444999694824219,-0.23999999463558197 12.444999694824219,-0.23999999463558197 C12.444999694824219,-1.4800000190734863 11.4350004196167,-2.490000009536743 10.194999694824219,-2.490000009536743 C10.194999694824219,-2.490000009536743 -10.194999694824219,-2.490000009536743 -10.194999694824219,-2.490000009536743 C-11.434000015258789,-2.490000009536743 -12.444999694824219,-1.4800000190734863 -12.444999694824219,-0.23999999463558197 C-12.444999694824219,-0.23999999463558197 -12.444999694824219,0.23999999463558197 -12.444999694824219,0.23999999463558197 C-12.444999694824219,1.4800000190734863 -11.434000015258789,2.490000009536743 -10.194999694824219,2.490000009536743z"></path></g><g opacity="1" transform="matrix(1,0,0,1,62.744998931884766,42.560001373291016)"><path fill="#FFFFFF" fill-opacity="1" d=" M-7.704999923706055,2.490000009536743 C-7.704999923706055,2.490000009536743 7.704999923706055,2.490000009536743 7.704999923706055,2.490000009536743 C8.944999694824219,2.490000009536743 9.954999923706055,1.4800000190734863 9.954999923706055,0.23999999463558197 C9.954999923706055,0.23999999463558197 9.954999923706055,-0.23999999463558197 9.954999923706055,-0.23999999463558197 C9.954999923706055,-1.4800000190734863 8.944999694824219,-2.490000009536743 7.704999923706055,-2.490000009536743 C7.704999923706055,-2.490000009536743 -7.704999923706055,-2.490000009536743 -7.704999923706055,-2.490000009536743 C-8.944999694824219,-2.490000009536743 -9.954999923706055,-1.4800000190734863 -9.954999923706055,-0.23999999463558197 C-9.954999923706055,-0.23999999463558197 -9.954999923706055,0.23999999463558197 -9.954999923706055,0.23999999463558197 C-9.954999923706055,1.4800000190734863 -8.954999923706055,2.490000009536743 -7.704999923706055,2.490000009536743z"></path></g><g opacity="1" transform="matrix(1,0,0,1,40.345001220703125,67.44000244140625)"><path fill="#FFFFFF" fill-opacity="1" d=" M-10.194999694824219,2.490000009536743 C-10.194999694824219,2.490000009536743 10.194999694824219,2.490000009536743 10.194999694824219,2.490000009536743 C11.4350004196167,2.490000009536743 12.444999694824219,1.4800000190734863 12.444999694824219,0.23999999463558197 C12.444999694824219,0.23999999463558197 12.444999694824219,-0.23999999463558197 12.444999694824219,-0.23999999463558197 C12.444999694824219,-1.4800000190734863 11.4350004196167,-2.490000009536743 10.194999694824219,-2.490000009536743 C10.194999694824219,-2.490000009536743 -10.194999694824219,-2.490000009536743 -10.194999694824219,-2.490000009536743 C-11.4350004196167,-2.490000009536743 -12.444999694824219,-1.4800000190734863 -12.444999694824219,-0.23999999463558197 C-12.444999694824219,-0.23999999463558197 -12.444999694824219,0.23999999463558197 -12.444999694824219,0.23999999463558197 C-12.444999694824219,1.4800000190734863 -11.4350004196167,2.490000009536743 -10.194999694824219,2.490000009536743z"></path></g><g opacity="1" transform="matrix(1,0,0,1,55.279998779296875,32.599998474121094)"><path fill="#FFFFFF" fill-opacity="1" d=" M-15.170000076293945,2.490000009536743 C-15.170000076293945,2.490000009536743 15.170000076293945,2.490000009536743 15.170000076293945,2.490000009536743 C16.40999984741211,2.490000009536743 17.420000076293945,1.4800000190734863 17.420000076293945,0.23999999463558197 C17.420000076293945,0.23999999463558197 17.420000076293945,-0.23999999463558197 17.420000076293945,-0.23999999463558197 C17.420000076293945,-1.4800000190734863 16.40999984741211,-2.490000009536743 15.170000076293945,-2.490000009536743 C15.170000076293945,-2.490000009536743 -15.170000076293945,-2.490000009536743 -15.170000076293945,-2.490000009536743 C-16.40999984741211,-2.490000009536743 -17.420000076293945,-1.4800000190734863 -17.420000076293945,-0.23999999463558197 C-17.420000076293945,-0.23999999463558197 -17.420000076293945,0.23999999463558197 -17.420000076293945,0.23999999463558197 C-17.420000076293945,1.4800000190734863 -16.420000076293945,2.490000009536743 -15.170000076293945,2.490000009536743z"></path></g><g opacity="1" transform="matrix(1,0,0,1,52.78900146484375,52.5099983215332)"><path fill="#FFFFFF" fill-opacity="1" d=" M-17.65999984741211,2.490000009536743 C-17.65999984741211,2.490000009536743 17.65999984741211,2.490000009536743 17.65999984741211,2.490000009536743 C18.900999069213867,2.490000009536743 19.90999984741211,1.4800000190734863 19.90999984741211,0.23999999463558197 C19.90999984741211,0.23999999463558197 19.90999984741211,-0.23999999463558197 19.90999984741211,-0.23999999463558197 C19.90999984741211,-1.4800000190734863 18.900999069213867,-2.490000009536743 17.65999984741211,-2.490000009536743 C17.65999984741211,-2.490000009536743 -17.65999984741211,-2.490000009536743 -17.65999984741211,-2.490000009536743 C-18.899999618530273,-2.490000009536743 -19.90999984741211,-1.4800000190734863 -19.90999984741211,-0.23999999463558197 C-19.90999984741211,-0.23999999463558197 -19.90999984741211,0.23999999463558197 -19.90999984741211,0.23999999463558197 C-19.90999984741211,1.4800000190734863 -18.899999618530273,2.490000009536743 -17.65999984741211,2.490000009536743z"></path></g><g opacity="1" transform="matrix(1,0,0,1,124.59500122070312,42.560001373291016)"><path fill="#FFFFFF" fill-opacity="1" d=" M-15.524999618530273,2.490000009536743 C-15.524999618530273,2.490000009536743 15.524999618530273,2.490000009536743 15.524999618530273,2.490000009536743 C16.764999389648438,2.490000009536743 17.774999618530273,1.4800000190734863 17.774999618530273,0.23999999463558197 C17.774999618530273,0.23999999463558197 17.774999618530273,-0.23999999463558197 17.774999618530273,-0.23999999463558197 C17.774999618530273,-1.4800000190734863 16.764999389648438,-2.490000009536743 15.524999618530273,-2.490000009536743 C15.524999618530273,-2.490000009536743 -15.524999618530273,-2.490000009536743 -15.524999618530273,-2.490000009536743 C-16.764999389648438,-2.490000009536743 -17.774999618530273,-1.4800000190734863 -17.774999618530273,-0.23999999463558197 C-17.774999618530273,-0.23999999463558197 -17.774999618530273,0.23999999463558197 -17.774999618530273,0.23999999463558197 C-17.774999618530273,1.4800000190734863 -16.764999389648438,2.490000009536743 -15.524999618530273,2.490000009536743z"></path></g><g opacity="1" transform="matrix(1,0,0,1,174.73500061035156,42.54999923706055)"><path fill="#F78E46" fill-opacity="1" d=" M-8.4350004196167,0.9900000095367432 C-8.4350004196167,0.9900000095367432 -10.175999641418457,3.0199999809265137 -10.175999641418457,3.0199999809265137 C-10.706000328063965,3.640000104904175 -11.656000137329102,3.680000066757202 -12.236000061035156,3.0999999046325684 C-12.236000061035156,3.0999999046325684 -16.44499969482422,-1.1100000143051147 -16.44499969482422,-1.1100000143051147 C-16.954999923706055,-1.6200000047683716 -16.9950008392334,-2.440000057220459 -16.53499984741211,-3 C-16.53499984741211,-3 -9.515000343322754,-11.430000305175781 -9.515000343322754,-11.430000305175781 C-9.244999885559082,-11.75 -8.854999542236328,-11.9399995803833 -8.4350004196167,-11.9399995803833 C-8.4350004196167,-11.9399995803833 -4.224999904632568,-11.9399995803833 -4.224999904632568,-11.9399995803833 C-3.694999933242798,-11.9399995803833 -3.2060000896453857,-11.640000343322754 -2.9649999141693115,-11.15999984741211 C-2.255000114440918,-9.75 -1.3250000476837158,-9.130000114440918 -0.004000000189989805,-9.130000114440918 C1.315000057220459,-9.130000114440918 2.246000051498413,-9.75 2.9560000896453857,-11.15999984741211 C3.194999933242798,-11.640000343322754 3.674999952316284,-11.9399995803833 4.215000152587891,-11.9399995803833 C4.215000152587891,-11.9399995803833 8.425000190734863,-11.9399995803833 8.425000190734863,-11.9399995803833 C8.845000267028809,-11.9399995803833 9.234000205993652,-11.75 9.503999710083008,-11.430000305175781 C9.503999710083008,-11.430000305175781 16.524999618530273,-3 16.524999618530273,-3 C16.996000289916992,-2.440000057220459 16.95599937438965,-1.6200000047683716 16.434999465942383,-1.1100000143051147 C16.434999465942383,-1.1100000143051147 12.225000381469727,3.0999999046325684 12.225000381469727,3.0999999046325684 C11.645000457763672,3.680000066757202 10.694000244140625,3.640000104904175 10.164999961853027,3.0199999809265137 C10.164999961853027,3.0199999809265137 8.425000190734863,0.9900000095367432 8.425000190734863,0.9900000095367432 C8.425000190734863,0.9900000095367432 8.425000190734863,10.539999961853027 8.425000190734863,10.539999961853027 C8.425000190734863,11.319999694824219 7.795000076293945,11.9399995803833 7.025000095367432,11.9399995803833 C7.025000095367432,11.9399995803833 -7.025000095367432,11.9399995803833 -7.025000095367432,11.9399995803833 C-7.804999828338623,11.9399995803833 -8.425999641418457,11.3100004196167 -8.425999641418457,10.539999961853027 C-8.425999641418457,10.539999961853027 -8.425999641418457,0.9900000095367432 -8.425999641418457,0.9900000095367432 C-8.425999641418457,0.9900000095367432 -8.4350004196167,0.9900000095367432 -8.4350004196167,0.9900000095367432z"></path></g></g><g transform="matrix(1,0,0,1,837.1510009765625,233.25001525878906)" opacity="1" style="display: block;"><g opacity="1" transform="matrix(1,0,0,1,39.89899826049805,24.510000228881836)"><path fill="#D51D3B" fill-opacity="1" d=" M24.709999084472656,21.56999969482422 C24.709999084472656,21.56999969482422 37.849998474121094,4.050000190734863 37.849998474121094,4.050000190734863 C39.64899826049805,1.649999976158142 39.64899826049805,-1.6399999856948853 37.849998474121094,-4.039999961853027 C37.849998474121094,-4.039999961853027 24.709999084472656,-21.559999465942383 24.709999084472656,-21.559999465942383 C23.440000534057617,-23.260000228881836 21.43899917602539,-24.260000228881836 19.319000244140625,-24.260000228881836 C19.319000244140625,-24.260000228881836 -32.90999984741211,-24.260000228881836 -32.90999984741211,-24.260000228881836 C-36.630001068115234,-24.260000228881836 -39.650001525878906,-21.239999771118164 -39.650001525878906,-17.520000457763672 C-39.650001525878906,-17.520000457763672 -39.650001525878906,17.520000457763672 -39.650001525878906,17.520000457763672 C-39.650001525878906,21.239999771118164 -36.630001068115234,24.260000228881836 -32.90999984741211,24.260000228881836 C-32.90999984741211,24.260000228881836 19.319000244140625,24.260000228881836 19.319000244140625,24.260000228881836 C21.43899917602539,24.260000228881836 23.440000534057617,23.260000228881836 24.709999084472656,21.56999969482422z M21,0 C21,-3.3499999046325684 23.7189998626709,-6.070000171661377 27.069000244140625,-6.070000171661377 C30.41900062561035,-6.070000171661377 33.14099884033203,-3.3499999046325684 33.14099884033203,0 C33.14099884033203,3.3499999046325684 30.41900062561035,6.070000171661377 27.069000244140625,6.070000171661377 C23.7189998626709,6.070000171661377 21,3.3499999046325684 21,0z"></path></g><g opacity="1" transform="matrix(1,0,0,1,44.27899932861328,24.510000228881836)"><path fill="#E8373E" fill-opacity="1" d=" M24.709999084472656,21.56999969482422 C24.709999084472656,21.56999969482422 37.85100173950195,4.050000190734863 37.85100173950195,4.050000190734863 C39.650001525878906,1.649999976158142 39.650001525878906,-1.6399999856948853 37.85100173950195,-4.039999961853027 C37.85100173950195,-4.039999961853027 24.709999084472656,-21.559999465942383 24.709999084472656,-21.559999465942383 C23.440000534057617,-23.260000228881836 21.440000534057617,-24.260000228881836 19.31999969482422,-24.260000228881836 C19.31999969482422,-24.260000228881836 -32.9109992980957,-24.260000228881836 -32.9109992980957,-24.260000228881836 C-36.63100051879883,-24.260000228881836 -39.64899826049805,-21.239999771118164 -39.64899826049805,-17.520000457763672 C-39.64899826049805,-17.520000457763672 -39.64899826049805,17.520000457763672 -39.64899826049805,17.520000457763672 C-39.64899826049805,21.239999771118164 -36.63100051879883,24.260000228881836 -32.9109992980957,24.260000228881836 C-32.9109992980957,24.260000228881836 19.31999969482422,24.260000228881836 19.31999969482422,24.260000228881836 C21.440000534057617,24.260000228881836 23.440000534057617,23.260000228881836 24.709999084472656,21.56999969482422z"></path></g><g opacity="1" transform="matrix(1,0,0,1,34.95899963378906,24.510000228881836)"><path fill="#FFFFFF" fill-opacity="1" d=" M-6.070000171661377,12.130000114440918 C-6.070000171661377,12.130000114440918 -12.130000114440918,12.130000114440918 -12.130000114440918,12.130000114440918 C-12.130000114440918,12.130000114440918 6.059999942779541,-12.130000114440918 6.059999942779541,-12.130000114440918 C6.059999942779541,-12.130000114440918 12.130000114440918,-12.130000114440918 12.130000114440918,-12.130000114440918 C12.130000114440918,-12.130000114440918 -6.070000171661377,12.130000114440918 -6.070000171661377,12.130000114440918z"></path></g><g opacity="1" transform="matrix(1,0,0,1,47.0890007019043,30.579999923706055)"><path fill="#FFFFFF" fill-opacity="1" d=" M0.0010000000474974513,-6.070000171661377 C3.3540000915527344,-6.070000171661377 6.068999767303467,-3.3519999980926514 6.068999767303467,0 C6.068999767303467,3.3529999256134033 3.3540000915527344,6.070000171661377 0.0010000000474974513,6.070000171661377 C-3.3519999980926514,6.070000171661377 -6.068999767303467,3.3529999256134033 -6.068999767303467,0 C-6.068999767303467,-3.3519999980926514 -3.3519999980926514,-6.070000171661377 0.0010000000474974513,-6.070000171661377z"></path></g><g opacity="1" transform="matrix(1,0,0,1,22.82900047302246,18.450000762939453)"><path fill="#FFFFFF" fill-opacity="1" d=" M0.0010000000474974513,-6.070000171661377 C3.3529999256134033,-6.070000171661377 6.068999767303467,-3.3519999980926514 6.068999767303467,0 C6.068999767303467,3.3519999980926514 3.3529999256134033,6.070000171661377 0.0010000000474974513,6.070000171661377 C-3.3519999980926514,6.070000171661377 -6.068999767303467,3.3519999980926514 -6.068999767303467,0 C-6.068999767303467,-3.3519999980926514 -3.3519999980926514,-6.070000171661377 0.0010000000474974513,-6.070000171661377z"></path></g></g><g transform="matrix(1,0,0,1,116.30999755859375,518.52001953125)" opacity="1" style="display: block;"><g opacity="1" transform="matrix(1,0,0,1,298.8699951171875,5.224999904632568)"><path fill="#F2DFFF" fill-opacity="1" d=" M294.1199951171875,4.974999904632568 C294.1199951171875,4.974999904632568 -294.1199951171875,4.974999904632568 -294.1199951171875,4.974999904632568 C-296.6099853515625,4.974999904632568 -298.6199951171875,2.9649999141693115 -298.6199951171875,0.4749999940395355 C-298.6199951171875,0.4749999940395355 -298.6199951171875,-0.4749999940395355 -298.6199951171875,-0.4749999940395355 C-298.6199951171875,-2.9639999866485596 -296.6099853515625,-4.974999904632568 -294.1199951171875,-4.974999904632568 C-294.1199951171875,-4.974999904632568 294.1199951171875,-4.974999904632568 294.1199951171875,-4.974999904632568 C296.6099853515625,-4.974999904632568 298.6199951171875,-2.9639999866485596 298.6199951171875,-0.4749999940395355 C298.6199951171875,-0.4749999940395355 298.6199951171875,0.4749999940395355 298.6199951171875,0.4749999940395355 C298.6199951171875,2.9549999237060547 296.6099853515625,4.974999904632568 294.1199951171875,4.974999904632568z"></path></g></g><g transform="matrix(1,0,0,1,161.10000610351562,150.20999145507812)" opacity="1" style="display: block;"><g opacity="1" transform="matrix(1,0,0,1,231.67999267578125,89.83499908447266)"><path fill="#CEDDE6" fill-opacity="1" d=" M2.490000009536743,-89.58499908447266 C2.490000009536743,-89.58499908447266 -2.490000009536743,-89.58499908447266 -2.490000009536743,-89.58499908447266 C-2.490000009536743,-89.58499908447266 -2.490000009536743,24.885000228881836 -2.490000009536743,24.885000228881836 C-2.490000009536743,24.885000228881836 -57.2400016784668,79.63500213623047 -57.2400016784668,79.63500213623047 C-57.2400016784668,79.63500213623047 -15.720000267028809,79.63500213623047 -15.720000267028809,79.63500213623047 C-12.920000076293945,85.51499938964844 -6.940000057220459,89.58499908447266 0,89.58499908447266 C6.940000057220459,89.58499908447266 12.920000076293945,85.51499938964844 15.720000267028809,79.63500213623047 C15.720000267028809,79.63500213623047 57.2400016784668,79.63500213623047 57.2400016784668,79.63500213623047 C57.2400016784668,79.63500213623047 2.490000009536743,24.885000228881836 2.490000009536743,24.885000228881836 C2.490000009536743,24.885000228881836 2.490000009536743,-89.58499908447266 2.490000009536743,-89.58499908447266z"></path></g><g opacity="1" transform="matrix(1,0,0,1,132.14500427246094,181.9149932861328)"><path fill="#E7EFF3" fill-opacity="1" d=" M29.03499984741211,-32.35499954223633 C29.03499984741211,-32.35499954223633 -29.03499984741211,-32.35499954223633 -29.03499984741211,-32.35499954223633 C-30.864999771118164,-32.35499954223633 -32.35499954223633,-30.864999771118164 -32.35499954223633,-29.03499984741211 C-32.35499954223633,-29.03499984741211 -32.35499954223633,29.03499984741211 -32.35499954223633,29.03499984741211 C-32.35499954223633,30.864999771118164 -30.864999771118164,32.35499954223633 -29.03499984741211,32.35499954223633 C-29.03499984741211,32.35499954223633 29.03499984741211,32.35499954223633 29.03499984741211,32.35499954223633 C30.864999771118164,32.35499954223633 32.35499954223633,30.864999771118164 32.35499954223633,29.03499984741211 C32.35499954223633,29.03499984741211 32.35499954223633,-29.03499984741211 32.35499954223633,-29.03499984741211 C32.35499954223633,-30.864999771118164 30.864999771118164,-32.35499954223633 29.03499984741211,-32.35499954223633z M22.395000457763672,22.395000457763672 C22.395000457763672,22.395000457763672 -22.395000457763672,22.395000457763672 -22.395000457763672,22.395000457763672 C-22.395000457763672,22.395000457763672 -22.395000457763672,-22.393999099731445 -22.395000457763672,-22.393999099731445 C-22.395000457763672,-22.393999099731445 22.395000457763672,-22.393999099731445 22.395000457763672,-22.393999099731445 C22.395000457763672,-22.393999099731445 22.395000457763672,22.395000457763672 22.395000457763672,22.395000457763672z"></path></g><g opacity="1" transform="matrix(1,0,0,1,45.04499816894531,251.58999633789062)"><path fill="#E7EFF3" fill-opacity="1" d=" M41.474998474121094,-116.95999908447266 C41.474998474121094,-116.95999908447266 -26.545000076293945,-116.95999908447266 -26.545000076293945,-116.95999908447266 C-28.375,-116.95999908447266 -29.864999771118164,-115.47000122070312 -29.864999771118164,-113.63999938964844 C-29.864999771118164,-113.63999938964844 -29.864999771118164,-25.709999084472656 -29.864999771118164,-25.709999084472656 C-29.864999771118164,-23.8799991607666 -28.375,-22.389999389648438 -26.545000076293945,-22.389999389648438 C-26.545000076293945,-22.389999389648438 -9.954999923706055,-22.389999389648438 -9.954999923706055,-22.389999389648438 C-9.954999923706055,-22.389999389648438 -9.954999923706055,43.650001525878906 -9.954999923706055,43.650001525878906 C-11.425000190734863,42.79899978637695 -13.114999771118164,42.310001373291016 -14.9350004196167,42.310001373291016 C-14.9350004196167,42.310001373291016 -14.9350004196167,37.33000183105469 -14.9350004196167,37.33000183105469 C-14.9350004196167,37.33000183105469 -19.915000915527344,37.33000183105469 -19.915000915527344,37.33000183105469 C-19.915000915527344,37.33000183105469 -19.915000915527344,27.378999710083008 -19.915000915527344,27.378999710083008 C-19.915000915527344,27.378999710083008 -29.864999771118164,27.378999710083008 -29.864999771118164,27.378999710083008 C-29.864999771118164,27.378999710083008 -29.864999771118164,37.33000183105469 -29.864999771118164,37.33000183105469 C-29.864999771118164,37.33000183105469 -34.845001220703125,37.33000183105469 -34.845001220703125,37.33000183105469 C-34.845001220703125,37.33000183105469 -34.845001220703125,42.310001373291016 -34.845001220703125,42.310001373291016 C-40.345001220703125,42.310001373291016 -44.79499816894531,46.77000045776367 -44.79499816894531,52.25899887084961 C-44.79499816894531,52.25899887084961 -44.79499816894531,116.95999908447266 -44.79499816894531,116.95999908447266 C-44.79499816894531,116.95999908447266 -9.954999923706055,116.95999908447266 -9.954999923706055,116.95999908447266 C-9.954999923706055,116.95999908447266 -4.974999904632568,116.95999908447266 -4.974999904632568,116.95999908447266 C-4.974999904632568,116.95999908447266 24.885000228881836,116.95999908447266 24.885000228881836,116.95999908447266 C24.885000228881836,116.95999908447266 24.885000228881836,-22.399999618530273 24.885000228881836,-22.399999618530273 C24.885000228881836,-22.399999618530273 41.474998474121094,-22.399999618530273 41.474998474121094,-22.399999618530273 C43.30500030517578,-22.399999618530273 44.79499816894531,-23.889999389648438 44.79499816894531,-25.719999313354492 C44.79499816894531,-25.719999313354492 44.79499816894531,-113.6500015258789 44.79499816894531,-113.6500015258789 C44.79499816894531,-115.47000122070312 43.314998626708984,-116.95999908447266 41.474998474121094,-116.95999908447266z M34.845001220703125,-32.349998474121094 C34.845001220703125,-32.349998474121094 24.895000457763672,-32.349998474121094 24.895000457763672,-32.349998474121094 C24.895000457763672,-32.349998474121094 24.895000457763672,-37.33000183105469 24.895000457763672,-37.33000183105469 C24.895000457763672,-37.33000183105469 -9.944999694824219,-37.33000183105469 -9.944999694824219,-37.33000183105469 C-9.944999694824219,-37.33000183105469 -9.944999694824219,-32.349998474121094 -9.944999694824219,-32.349998474121094 C-9.944999694824219,-32.349998474121094 -19.895000457763672,-32.349998474121094 -19.895000457763672,-32.349998474121094 C-19.895000457763672,-32.349998474121094 -19.895000457763672,-107 -19.895000457763672,-107 C-19.895000457763672,-107 34.85499954223633,-107 34.85499954223633,-107 C34.85499954223633,-107 34.85499954223633,-32.349998474121094 34.85499954223633,-32.349998474121094 C34.85499954223633,-32.349998474121094 34.845001220703125,-32.349998474121094 34.845001220703125,-32.349998474121094z"></path></g><g opacity="1" transform="matrix(1,0,0,1,390.94500732421875,341.1789855957031)"><path fill="#E7EFF3" fill-opacity="1" d=" M12.444999694824219,-17.420000076293945 C12.444999694824219,-17.420000076293945 12.444999694824219,-27.3700008392334 12.444999694824219,-27.3700008392334 C12.444999694824219,-27.3700008392334 -27.375,-27.3700008392334 -27.375,-27.3700008392334 C-27.375,-27.3700008392334 -27.375,17.420000076293945 -27.375,17.420000076293945 C-27.375,22.920000076293945 -22.915000915527344,27.3700008392334 -17.424999237060547,27.3700008392334 C-17.424999237060547,27.3700008392334 2.484999895095825,27.3700008392334 2.484999895095825,27.3700008392334 C7.985000133514404,27.3700008392334 12.4350004196167,22.90999984741211 12.4350004196167,17.420000076293945 C12.4350004196167,17.420000076293945 12.4350004196167,12.440999984741211 12.4350004196167,12.440999984741211 C20.684999465942383,12.440999984741211 27.364999771118164,5.761000156402588 27.364999771118164,-2.489000082015991 C27.375,-10.73900032043457 20.69499969482422,-17.420000076293945 12.444999694824219,-17.420000076293945z M22.405000686645508,-2.489000082015991 C22.405000686645508,3.010999917984009 17.94499969482422,7.460000038146973 12.454999923706055,7.460000038146973 C12.454999923706055,7.460000038146973 12.454999923706055,-12.449000358581543 12.454999923706055,-12.449000358581543 C17.94499969482422,-12.439000129699707 22.405000686645508,-7.988999843597412 22.405000686645508,-2.489000082015991z"></path></g><g opacity="1" transform="matrix(1,0,0,1,443.2099914550781,323.7650146484375)"><path fill="#E7EFF3" fill-opacity="1" d=" M14.359999656677246,-19.915000915527344 C14.359999656677246,-19.915000915527344 12.859999656677246,-19.915000915527344 12.859999656677246,-19.915000915527344 C12.859999656677246,-19.915000915527344 19.709999084472656,-43.40399932861328 19.709999084472656,-43.40399932861328 C19.709999084472656,-43.40399932861328 14.930000305175781,-44.79499816894531 14.930000305175781,-44.79499816894531 C14.930000305175781,-44.79499816894531 7.670000076293945,-19.90399932861328 7.670000076293945,-19.90399932861328 C7.670000076293945,-19.90399932861328 4.96999979019165,-19.90399932861328 4.96999979019165,-19.90399932861328 C4.96999979019165,-19.90399932861328 4.96999979019165,-44.79499816894531 4.96999979019165,-44.79499816894531 C4.96999979019165,-44.79499816894531 -0.009999999776482582,-44.79499816894531 -0.009999999776482582,-44.79499816894531 C-0.009999999776482582,-44.79499816894531 -0.009999999776482582,-19.90399932861328 -0.009999999776482582,-19.90399932861328 C-0.009999999776482582,-19.90399932861328 -7.960000038146973,-19.90399932861328 -7.960000038146973,-19.90399932861328 C-7.960000038146973,-19.90399932861328 -15.239999771118164,-39.81399917602539 -15.239999771118164,-39.81399917602539 C-15.239999771118164,-39.81399917602539 -19.90999984741211,-38.104000091552734 -19.90999984741211,-38.104000091552734 C-19.90999984741211,-38.104000091552734 -13.25,-19.90399932861328 -13.25,-19.90399932861328 C-13.25,-19.90399932861328 -14.359999656677246,-19.90399932861328 -14.359999656677246,-19.90399932861328 C-17.420000076293945,-19.90399932861328 -19.90999984741211,-17.424999237060547 -19.90999984741211,-14.354000091552734 C-19.90999984741211,-14.354000091552734 -19.90999984741211,44.79499816894531 -19.90999984741211,44.79499816894531 C-19.90999984741211,44.79499816894531 19.90999984741211,44.79499816894531 19.90999984741211,44.79499816894531 C19.90999984741211,44.79499816894531 19.90999984741211,-14.354000091552734 19.90999984741211,-14.354000091552734 C19.90999984741211,-17.434999465942383 17.42099952697754,-19.915000915527344 14.359999656677246,-19.915000915527344z"></path></g></g><g transform="matrix(1,0,0,1,210.8800048828125,394.09002685546875)" opacity="1" style="display: block;"><g opacity="1" transform="matrix(1,0,0,1,30.110000610351562,62.36000061035156)"><path fill="#46516A" fill-opacity="1" d=" M20.860000610351562,62.11000061035156 C20.860000610351562,62.11000061035156 -20.860000610351562,62.11000061035156 -20.860000610351562,62.11000061035156 C-25.829999923706055,62.11000061035156 -29.860000610351562,58.08100128173828 -29.860000610351562,53.11000061035156 C-29.860000610351562,53.11000061035156 -29.860000610351562,-53.11000061035156 -29.860000610351562,-53.11000061035156 C-29.860000610351562,-58.07899856567383 -25.829999923706055,-62.11000061035156 -20.860000610351562,-62.11000061035156 C-20.860000610351562,-62.11000061035156 20.860000610351562,-62.11000061035156 20.860000610351562,-62.11000061035156 C25.829999923706055,-62.11000061035156 29.860000610351562,-58.07899856567383 29.860000610351562,-53.11000061035156 C29.860000610351562,-53.11000061035156 29.860000610351562,53.12099838256836 29.860000610351562,53.12099838256836 C29.860000610351562,58.08100128173828 25.829999923706055,62.11000061035156 20.860000610351562,62.11000061035156z"></path></g><g opacity="1" transform="matrix(1,0,0,1,35.084999084472656,62.36000061035156)"><path fill="#6D788E" fill-opacity="1" d=" M20.864999771118164,62.11000061035156 C20.864999771118164,62.11000061035156 -20.864999771118164,62.11000061035156 -20.864999771118164,62.11000061035156 C-25.834999084472656,62.11000061035156 -29.864999771118164,58.08100128173828 -29.864999771118164,53.11000061035156 C-29.864999771118164,53.11000061035156 -29.864999771118164,-53.11000061035156 -29.864999771118164,-53.11000061035156 C-29.864999771118164,-58.07899856567383 -25.834999084472656,-62.11000061035156 -20.864999771118164,-62.11000061035156 C-20.864999771118164,-62.11000061035156 20.854999542236328,-62.11000061035156 20.854999542236328,-62.11000061035156 C25.825000762939453,-62.11000061035156 29.854999542236328,-58.07899856567383 29.854999542236328,-53.11000061035156 C29.854999542236328,-53.11000061035156 29.854999542236328,53.12099838256836 29.854999542236328,53.12099838256836 C29.864999771118164,58.08100128173828 25.834999084472656,62.11000061035156 20.864999771118164,62.11000061035156z"></path></g><g opacity="1" transform="matrix(1,0,0,1,35.09000015258789,62.2599983215332)"><path fill="#EAEBEE" fill-opacity="1" d=" M9.949999809265137,-57.2400016784668 C9.949999809265137,-57.2400016784668 9.949999809265137,-57.2400016784668 9.949999809265137,-57.2400016784668 C9.949999809265137,-54.4900016784668 7.71999979019165,-52.2599983215332 4.96999979019165,-52.2599983215332 C4.96999979019165,-52.2599983215332 -4.980000019073486,-52.2599983215332 -4.980000019073486,-52.2599983215332 C-7.730000019073486,-52.2599983215332 -9.960000038146973,-54.4900016784668 -9.960000038146973,-57.2400016784668 C-9.960000038146973,-57.2400016784668 -19.90999984741211,-57.2400016784668 -19.90999984741211,-57.2400016784668 C-22.65999984741211,-57.2400016784668 -24.889999389648438,-55.0099983215332 -24.889999389648438,-52.2599983215332 C-24.889999389648438,-52.2599983215332 -24.889999389648438,52.2599983215332 -24.889999389648438,52.2599983215332 C-24.889999389648438,55.0099983215332 -22.65999984741211,57.2400016784668 -19.90999984741211,57.2400016784668 C-19.90999984741211,57.2400016784668 19.90999984741211,57.2400016784668 19.90999984741211,57.2400016784668 C22.65999984741211,57.2400016784668 24.889999389648438,55.0099983215332 24.889999389648438,52.2599983215332 C24.889999389648438,52.2599983215332 24.889999389648438,-52.2599983215332 24.889999389648438,-52.2599983215332 C24.889999389648438,-55.0099983215332 22.65999984741211,-57.2400016784668 19.90999984741211,-57.2400016784668 C19.90999984741211,-57.2400016784668 9.949999809265137,-57.2400016784668 9.949999809265137,-57.2400016784668z"></path></g><g opacity="1" transform="matrix(1,0,0,1,35.09000015258789,35.08100128173828)"><path fill="#FFFFFF" fill-opacity="1" d=" M-16.90999984741211,19.90999984741211 C-16.90999984741211,19.90999984741211 16.90999984741211,19.90999984741211 16.90999984741211,19.90999984741211 C18.56999969482422,19.90999984741211 19.90999984741211,18.56999969482422 19.90999984741211,16.90999984741211 C19.90999984741211,16.90999984741211 19.90999984741211,-16.90999984741211 19.90999984741211,-16.90999984741211 C19.90999984741211,-18.56999969482422 18.56999969482422,-19.90999984741211 16.90999984741211,-19.90999984741211 C16.90999984741211,-19.90999984741211 -16.90999984741211,-19.90999984741211 -16.90999984741211,-19.90999984741211 C-18.56999969482422,-19.90999984741211 -19.90999984741211,-18.56999969482422 -19.90999984741211,-16.90999984741211 C-19.90999984741211,-16.90999984741211 -19.90999984741211,16.90999984741211 -19.90999984741211,16.90999984741211 C-19.90999984741211,18.56999969482422 -18.56999969482422,19.90999984741211 -16.90999984741211,19.90999984741211z"></path></g><g opacity="1" transform="matrix(1,0,0,1,35.08000183105469,35.08599853515625)"><path fill="#F78E45" fill-opacity="1" d=" M-5.940000057220459,0.6949999928474426 C-5.940000057220459,0.6949999928474426 -7.170000076293945,2.125 -7.170000076293945,2.125 C-7.550000190734863,2.565000057220459 -8.210000038146973,2.5850000381469727 -8.619999885559082,2.184999942779541 C-8.619999885559082,2.184999942779541 -11.59000015258789,-0.7850000262260437 -11.59000015258789,-0.7850000262260437 C-11.949999809265137,-1.1449999809265137 -11.979999542236328,-1.725000023841858 -11.649999618530273,-2.115999937057495 C-11.649999618530273,-2.115999937057495 -6.699999809265137,-8.055000305175781 -6.699999809265137,-8.055000305175781 C-6.510000228881836,-8.28499984741211 -6.230000019073486,-8.414999961853027 -5.940000057220459,-8.414999961853027 C-5.940000057220459,-8.414999961853027 -2.9700000286102295,-8.414999961853027 -2.9700000286102295,-8.414999961853027 C-2.5899999141693115,-8.414999961853027 -2.25,-8.204999923706055 -2.0799999237060547,-7.866000175476074 C-1.5800000429153442,-6.866000175476074 -0.9300000071525574,-6.434999942779541 0,-6.434999942779541 C0.9300000071525574,-6.434999942779541 1.590000033378601,-6.875 2.0799999237060547,-7.866000175476074 C2.25,-8.204999923706055 2.5899999141693115,-8.414999961853027 2.9700000286102295,-8.414999961853027 C2.9700000286102295,-8.414999961853027 5.940000057220459,-8.414999961853027 5.940000057220459,-8.414999961853027 C6.230000019073486,-8.414999961853027 6.510000228881836,-8.28499984741211 6.699999809265137,-8.055000305175781 C6.699999809265137,-8.055000305175781 11.649999618530273,-2.115999937057495 11.649999618530273,-2.115999937057495 C11.979999542236328,-1.725000023841858 11.949999809265137,-1.1449999809265137 11.59000015258789,-0.7850000262260437 C11.59000015258789,-0.7850000262260437 8.619999885559082,2.184999942779541 8.619999885559082,2.184999942779541 C8.210000038146973,2.5940001010894775 7.539999961853027,2.565000057220459 7.170000076293945,2.125 C7.170000076293945,2.125 5.940000057220459,0.6949999928474426 5.940000057220459,0.6949999928474426 C5.940000057220459,0.6949999928474426 5.940000057220459,7.423999786376953 5.940000057220459,7.423999786376953 C5.940000057220459,7.974999904632568 5.5,8.414999961853027 4.949999809265137,8.414999961853027 C4.949999809265137,8.414999961853027 -4.949999809265137,8.414999961853027 -4.949999809265137,8.414999961853027 C-5.5,8.414999961853027 -5.940000057220459,7.974999904632568 -5.940000057220459,7.423999786376953 C-5.940000057220459,7.423999786376953 -5.940000057220459,0.6949999928474426 -5.940000057220459,0.6949999928474426z"></path></g><g opacity="1" transform="matrix(1,0,0,1,35.44499969482422,62.459999084472656)"><path fill="#FFFFFF" fill-opacity="1" d=" M-18.014999389648438,2.490000009536743 C-18.014999389648438,2.490000009536743 18.014999389648438,2.490000009536743 18.014999389648438,2.490000009536743 C19.2549991607666,2.490000009536743 20.264999389648438,1.4800000190734863 20.264999389648438,0.23999999463558197 C20.264999389648438,0.23999999463558197 20.264999389648438,-0.23999999463558197 20.264999389648438,-0.23999999463558197 C20.264999389648438,-1.4800000190734863 19.2549991607666,-2.490000009536743 18.014999389648438,-2.490000009536743 C18.014999389648438,-2.490000009536743 -18.014999389648438,-2.490000009536743 -18.014999389648438,-2.490000009536743 C-19.2549991607666,-2.490000009536743 -20.264999389648438,-1.4800000190734863 -20.264999389648438,-0.23999999463558197 C-20.264999389648438,-0.23999999463558197 -20.264999389648438,0.23999999463558197 -20.264999389648438,0.23999999463558197 C-20.264999389648438,1.4800000190734863 -19.264999389648438,2.490000009536743 -18.014999389648438,2.490000009536743z"></path></g><g opacity="1" transform="matrix(1,0,0,1,35.44499969482422,107.24500274658203)"><path fill="#FFFFFF" fill-opacity="1" d=" M-20.264999389648438,12.446000099182129 C-20.264999389648438,12.446000099182129 20.264999389648438,12.446000099182129 20.264999389648438,12.446000099182129 C20.264999389648438,12.446000099182129 20.264999389648438,-10.196000099182129 20.264999389648438,-10.196000099182129 C20.264999389648438,-11.4350004196167 19.2549991607666,-12.446000099182129 18.014999389648438,-12.446000099182129 C18.014999389648438,-12.446000099182129 -18.014999389648438,-12.446000099182129 -18.014999389648438,-12.446000099182129 C-19.2549991607666,-12.446000099182129 -20.264999389648438,-11.4350004196167 -20.264999389648438,-10.196000099182129 C-20.264999389648438,-10.196000099182129 -20.264999389648438,12.446000099182129 -20.264999389648438,12.446000099182129z"></path></g><g opacity="1" transform="matrix(1,0,0,1,42.90999984741211,72.41100311279297)"><path fill="#FFFFFF" fill-opacity="1" d=" M-10.550000190734863,2.490000009536743 C-10.550000190734863,2.490000009536743 10.550000190734863,2.490000009536743 10.550000190734863,2.490000009536743 C11.789999961853027,2.490000009536743 12.800000190734863,1.4800000190734863 12.800000190734863,0.23999999463558197 C12.800000190734863,0.23999999463558197 12.800000190734863,-0.23999999463558197 12.800000190734863,-0.23999999463558197 C12.800000190734863,-1.4809999465942383 11.789999961853027,-2.490000009536743 10.550000190734863,-2.490000009536743 C10.550000190734863,-2.490000009536743 -10.550000190734863,-2.490000009536743 -10.550000190734863,-2.490000009536743 C-11.789999961853027,-2.490000009536743 -12.800000190734863,-1.4809999465942383 -12.800000190734863,-0.23999999463558197 C-12.800000190734863,-0.23999999463558197 -12.800000190734863,0.23999999463558197 -12.800000190734863,0.23999999463558197 C-12.800000190734863,1.4800000190734863 -11.800000190734863,2.490000009536743 -10.550000190734863,2.490000009536743z"></path></g><g opacity="1" transform="matrix(1,0,0,1,35.09000015258789,84.8550033569336)"><path fill="#5BBBEB" fill-opacity="1" d=" M-18.90999984741211,4.974999904632568 C-18.90999984741211,4.974999904632568 18.90999984741211,4.974999904632568 18.90999984741211,4.974999904632568 C19.459999084472656,4.974999904632568 19.90999984741211,4.525000095367432 19.90999984741211,3.9749999046325684 C19.90999984741211,3.9749999046325684 19.90999984741211,-3.9749999046325684 19.90999984741211,-3.9749999046325684 C19.90999984741211,-4.525000095367432 19.459999084472656,-4.974999904632568 18.90999984741211,-4.974999904632568 C18.90999984741211,-4.974999904632568 -18.90999984741211,-4.974999904632568 -18.90999984741211,-4.974999904632568 C-19.459999084472656,-4.974999904632568 -19.90999984741211,-4.525000095367432 -19.90999984741211,-3.9749999046325684 C-19.90999984741211,-3.9749999046325684 -19.90999984741211,3.9749999046325684 -19.90999984741211,3.9749999046325684 C-19.90999984741211,4.525000095367432 -19.469999313354492,4.974999904632568 -18.90999984741211,4.974999904632568z"></path></g></g><g transform="matrix(1,0,0,1,285.5299987792969,350.1500244140625)" opacity="1" style="display: block;"><g opacity="1" transform="matrix(1,0,0,1,109.74500274658203,77.3949966430664)"><path fill="#A0A2A6" fill-opacity="1" d=" M-100.49500274658203,-77.1449966430664 C-100.49500274658203,-77.1449966430664 100.49500274658203,-77.1449966430664 100.49500274658203,-77.1449966430664 C105.46499633789062,-77.1449966430664 109.49500274658203,-73.11599731445312 109.49500274658203,-68.1449966430664 C109.49500274658203,-68.1449966430664 109.49500274658203,77.1449966430664 109.49500274658203,77.1449966430664 C109.49500274658203,77.1449966430664 -109.49500274658203,77.1449966430664 -109.49500274658203,77.1449966430664 C-109.49500274658203,77.1449966430664 -109.49500274658203,-68.1449966430664 -109.49500274658203,-68.1449966430664 C-109.49500274658203,-73.11599731445312 -105.46499633789062,-77.1449966430664 -100.49500274658203,-77.1449966430664z"></path></g><g opacity="1" transform="matrix(1,0,0,1,114.7249984741211,77.3949966430664)"><path fill="#54617D" fill-opacity="1" d=" M-100.49500274658203,-77.1449966430664 C-100.49500274658203,-77.1449966430664 100.49500274658203,-77.1449966430664 100.49500274658203,-77.1449966430664 C105.46499633789062,-77.1449966430664 109.49500274658203,-73.11599731445312 109.49500274658203,-68.1449966430664 C109.49500274658203,-68.1449966430664 109.49500274658203,77.1449966430664 109.49500274658203,77.1449966430664 C109.49500274658203,77.1449966430664 -109.49500274658203,77.1449966430664 -109.49500274658203,77.1449966430664 C-109.49500274658203,77.1449966430664 -109.49500274658203,-68.1449966430664 -109.49500274658203,-68.1449966430664 C-109.49500274658203,-73.11599731445312 -105.46499633789062,-77.1449966430664 -100.49500274658203,-77.1449966430664z"></path></g><g opacity="1" transform="matrix(1,0,0,1,114.72000122070312,77.11499786376953)"><path fill="#F5F6F7" fill-opacity="1" d=" M-99.5199966430664,-67.46499633789062 C-99.5199966430664,-67.46499633789062 99.5199966430664,-67.46499633789062 99.5199966430664,-67.46499633789062 C102.27999877929688,-67.46499633789062 104.5199966430664,-65.2249984741211 104.5199966430664,-62.46500015258789 C104.5199966430664,-62.46500015258789 104.5199966430664,67.46499633789062 104.5199966430664,67.46499633789062 C104.5199966430664,67.46499633789062 -104.5199966430664,67.46499633789062 -104.5199966430664,67.46499633789062 C-104.5199966430664,67.46499633789062 -104.5199966430664,-62.46500015258789 -104.5199966430664,-62.46500015258789 C-104.5199966430664,-65.2249984741211 -102.27999877929688,-67.46499633789062 -99.5199966430664,-67.46499633789062z"></path></g><g opacity="1" transform="matrix(1,0,0,1,119.69999694824219,162.0050048828125)"><path fill="#898B8E" fill-opacity="1" d=" M112.69999694824219,7.465000152587891 C112.69999694824219,7.465000152587891 -112.69999694824219,7.465000152587891 -112.69999694824219,7.465000152587891 C-116.43000030517578,7.465000152587891 -119.44999694824219,4.443999767303467 -119.44999694824219,0.7149999737739563 C-119.44999694824219,0.7149999737739563 -119.44999694824219,-7.465000152587891 -119.44999694824219,-7.465000152587891 C-119.44999694824219,-7.465000152587891 112.69999694824219,-7.465000152587891 112.69999694824219,-7.465000152587891 C116.43000030517578,-7.465000152587891 119.44999694824219,-4.445000171661377 119.44999694824219,-0.7149999737739563 C119.44999694824219,-0.7149999737739563 119.44999694824219,0.7149999737739563 119.44999694824219,0.7149999737739563 C119.44999694824219,4.443999767303467 116.43000030517578,7.465000152587891 112.69999694824219,7.465000152587891z"></path></g><g opacity="1" transform="matrix(1,0,0,1,139.61000061035156,162.0050048828125)"><path fill="#C9CCCD" fill-opacity="1" d=" M112.69999694824219,7.465000152587891 C112.69999694824219,7.465000152587891 -112.69999694824219,7.465000152587891 -112.69999694824219,7.465000152587891 C-116.43000030517578,7.465000152587891 -119.44999694824219,4.443999767303467 -119.44999694824219,0.7149999737739563 C-119.44999694824219,0.7149999737739563 -119.44999694824219,-7.465000152587891 -119.44999694824219,-7.465000152587891 C-119.44999694824219,-7.465000152587891 119.44999694824219,-7.465000152587891 119.44999694824219,-7.465000152587891 C119.44999694824219,-7.465000152587891 119.44999694824219,0.7149999737739563 119.44999694824219,0.7149999737739563 C119.44999694824219,4.443999767303467 116.41999816894531,7.465000152587891 112.69999694824219,7.465000152587891z"></path></g><g opacity="1" transform="matrix(1,0,0,1,47.53499984741211,57.48899841308594)"><path fill="#EBEBEC" fill-opacity="1" d=" M-24.375,37.33000183105469 C-24.375,37.33000183105469 24.375,37.33000183105469 24.375,37.33000183105469 C26.03499984741211,37.33000183105469 27.375,35.9900016784668 27.375,34.33000183105469 C27.375,34.33000183105469 27.375,-34.33000183105469 27.375,-34.33000183105469 C27.375,-35.98899841308594 26.03499984741211,-37.33000183105469 24.375,-37.33000183105469 C24.375,-37.33000183105469 -24.375,-37.33000183105469 -24.375,-37.33000183105469 C-26.03499984741211,-37.33000183105469 -27.375,-35.98899841308594 -27.375,-34.33000183105469 C-27.375,-34.33000183105469 -27.375,34.33000183105469 -27.375,34.33000183105469 C-27.375,35.97999954223633 -26.03499984741211,37.33000183105469 -24.375,37.33000183105469z"></path></g><g opacity="1" transform="matrix(1,0,0,1,47.525001525878906,84.86499786376953)"><path fill="#5BBBEB" fill-opacity="1" d=" M-21.395000457763672,4.974999904632568 C-21.395000457763672,4.974999904632568 21.395000457763672,4.974999904632568 21.395000457763672,4.974999904632568 C21.94499969482422,4.974999904632568 22.395000457763672,4.525000095367432 22.395000457763672,3.9749999046325684 C22.395000457763672,3.9749999046325684 22.395000457763672,-3.9749999046325684 22.395000457763672,-3.9749999046325684 C22.395000457763672,-4.525000095367432 21.94499969482422,-4.974999904632568 21.395000457763672,-4.974999904632568 C21.395000457763672,-4.974999904632568 -21.395000457763672,-4.974999904632568 -21.395000457763672,-4.974999904632568 C-21.94499969482422,-4.974999904632568 -22.395000457763672,-4.525000095367432 -22.395000457763672,-3.9749999046325684 C-22.395000457763672,-3.9749999046325684 -22.395000457763672,3.9749999046325684 -22.395000457763672,3.9749999046325684 C-22.395000457763672,4.525000095367432 -21.94499969482422,4.974999904632568 -21.395000457763672,4.974999904632568z"></path></g><g opacity="1" transform="matrix(1,0,0,1,57.48500061035156,27.6200008392334)"><path fill="#FFFFFF" fill-opacity="1" d=" M-10.194999694824219,2.490000009536743 C-10.194999694824219,2.490000009536743 10.194999694824219,2.490000009536743 10.194999694824219,2.490000009536743 C11.4350004196167,2.490000009536743 12.444999694824219,1.4800000190734863 12.444999694824219,0.23999999463558197 C12.444999694824219,0.23999999463558197 12.444999694824219,-0.23999999463558197 12.444999694824219,-0.23999999463558197 C12.444999694824219,-1.4809999465942383 11.4350004196167,-2.490000009536743 10.194999694824219,-2.490000009536743 C10.194999694824219,-2.490000009536743 -10.194999694824219,-2.490000009536743 -10.194999694824219,-2.490000009536743 C-11.4350004196167,-2.490000009536743 -12.444999694824219,-1.4809999465942383 -12.444999694824219,-0.23999999463558197 C-12.444999694824219,-0.23999999463558197 -12.444999694824219,0.23999999463558197 -12.444999694824219,0.23999999463558197 C-12.444999694824219,1.4900000095367432 -11.4350004196167,2.490000009536743 -10.194999694824219,2.490000009536743z"></path></g><g opacity="1" transform="matrix(1,0,0,1,59.974998474121094,47.529998779296875)"><path fill="#FFFFFF" fill-opacity="1" d=" M-7.704999923706055,2.490000009536743 C-7.704999923706055,2.490000009536743 7.704999923706055,2.490000009536743 7.704999923706055,2.490000009536743 C8.944999694824219,2.490000009536743 9.954999923706055,1.4800000190734863 9.954999923706055,0.23999999463558197 C9.954999923706055,0.23999999463558197 9.954999923706055,-0.23999999463558197 9.954999923706055,-0.23999999463558197 C9.954999923706055,-1.4809999465942383 8.944999694824219,-2.490000009536743 7.704999923706055,-2.490000009536743 C7.704999923706055,-2.490000009536743 -7.704999923706055,-2.490000009536743 -7.704999923706055,-2.490000009536743 C-8.944999694824219,-2.490000009536743 -9.954999923706055,-1.4809999465942383 -9.954999923706055,-0.23999999463558197 C-9.954999923706055,-0.23999999463558197 -9.954999923706055,0.23999999463558197 -9.954999923706055,0.23999999463558197 C-9.954999923706055,1.4900000095367432 -8.944999694824219,2.490000009536743 -7.704999923706055,2.490000009536743z"></path></g><g opacity="1" transform="matrix(1,0,0,1,37.57500076293945,72.41999816894531)"><path fill="#FFFFFF" fill-opacity="1" d=" M-10.194999694824219,2.490000009536743 C-10.194999694824219,2.490000009536743 10.194999694824219,2.490000009536743 10.194999694824219,2.490000009536743 C11.4350004196167,2.490000009536743 12.444999694824219,1.4800000190734863 12.444999694824219,0.23999999463558197 C12.444999694824219,0.23999999463558197 12.444999694824219,-0.23999999463558197 12.444999694824219,-0.23999999463558197 C12.444999694824219,-1.4809999465942383 11.4350004196167,-2.490000009536743 10.194999694824219,-2.490000009536743 C10.194999694824219,-2.490000009536743 -10.194999694824219,-2.490000009536743 -10.194999694824219,-2.490000009536743 C-11.4350004196167,-2.490000009536743 -12.444999694824219,-1.4809999465942383 -12.444999694824219,-0.23999999463558197 C-12.444999694824219,-0.23999999463558197 -12.444999694824219,0.23999999463558197 -12.444999694824219,0.23999999463558197 C-12.444999694824219,1.4800000190734863 -11.4350004196167,2.490000009536743 -10.194999694824219,2.490000009536743z"></path></g><g opacity="1" transform="matrix(1,0,0,1,52.5099983215332,37.58000183105469)"><path fill="#FFFFFF" fill-opacity="1" d=" M-15.170000076293945,2.490000009536743 C-15.170000076293945,2.490000009536743 15.170000076293945,2.490000009536743 15.170000076293945,2.490000009536743 C16.40999984741211,2.490000009536743 17.420000076293945,1.4800000190734863 17.420000076293945,0.23999999463558197 C17.420000076293945,0.23999999463558197 17.420000076293945,-0.23999999463558197 17.420000076293945,-0.23999999463558197 C17.420000076293945,-1.4809999465942383 16.40999984741211,-2.490000009536743 15.170000076293945,-2.490000009536743 C15.170000076293945,-2.490000009536743 -15.170000076293945,-2.490000009536743 -15.170000076293945,-2.490000009536743 C-16.40999984741211,-2.490000009536743 -17.420000076293945,-1.4809999465942383 -17.420000076293945,-0.23999999463558197 C-17.420000076293945,-0.23999999463558197 -17.420000076293945,0.23999999463558197 -17.420000076293945,0.23999999463558197 C-17.420000076293945,1.4800000190734863 -16.40999984741211,2.490000009536743 -15.170000076293945,2.490000009536743z"></path></g><g opacity="1" transform="matrix(1,0,0,1,50.02000045776367,57.4900016784668)"><path fill="#FFFFFF" fill-opacity="1" d=" M-17.65999984741211,2.490000009536743 C-17.65999984741211,2.490000009536743 17.65999984741211,2.490000009536743 17.65999984741211,2.490000009536743 C18.899999618530273,2.490000009536743 19.90999984741211,1.4800000190734863 19.90999984741211,0.23999999463558197 C19.90999984741211,0.23999999463558197 19.90999984741211,-0.23999999463558197 19.90999984741211,-0.23999999463558197 C19.90999984741211,-1.4809999465942383 18.899999618530273,-2.490000009536743 17.65999984741211,-2.490000009536743 C17.65999984741211,-2.490000009536743 -17.65999984741211,-2.490000009536743 -17.65999984741211,-2.490000009536743 C-18.899999618530273,-2.490000009536743 -19.90999984741211,-1.4809999465942383 -19.90999984741211,-0.23999999463558197 C-19.90999984741211,-0.23999999463558197 -19.90999984741211,0.23999999463558197 -19.90999984741211,0.23999999463558197 C-19.90999984741211,1.4800000190734863 -18.899999618530273,2.490000009536743 -17.65999984741211,2.490000009536743z"></path></g><g opacity="1" transform="matrix(1,0,0,1,181.9149932861328,47.534000396728516)"><path fill="#FFFFFF" fill-opacity="1" d=" M-24.375,27.375 C-24.375,27.375 24.375,27.375 24.375,27.375 C26.03499984741211,27.375 27.375,26.03499984741211 27.375,24.375 C27.375,24.375 27.375,-24.375 27.375,-24.375 C27.375,-26.034000396728516 26.03499984741211,-27.375 24.375,-27.375 C24.375,-27.375 -24.375,-27.375 -24.375,-27.375 C-26.03499984741211,-27.375 -27.375,-26.034000396728516 -27.375,-24.375 C-27.375,-24.375 -27.375,24.375 -27.375,24.375 C-27.375,26.024999618530273 -26.03499984741211,27.375 -24.375,27.375z"></path></g><g opacity="1" transform="matrix(1,0,0,1,181.9149932861328,47.529998779296875)"><path fill="#F78E45" fill-opacity="1" d=" M-8.4350004196167,0.9900000095367432 C-8.4350004196167,0.9900000095367432 -10.175000190734863,3.0199999809265137 -10.175000190734863,3.0199999809265137 C-10.704999923706055,3.640000104904175 -11.654999732971191,3.680000066757202 -12.234999656677246,3.0999999046325684 C-12.234999656677246,3.0999999046325684 -16.44499969482422,-1.1100000143051147 -16.44499969482422,-1.1100000143051147 C-16.954999923706055,-1.6200000047683716 -16.9950008392334,-2.440000057220459 -16.53499984741211,-3 C-16.53499984741211,-3 -9.515000343322754,-11.430000305175781 -9.515000343322754,-11.430000305175781 C-9.244999885559082,-11.75 -8.854999542236328,-11.9399995803833 -8.4350004196167,-11.9399995803833 C-8.4350004196167,-11.9399995803833 -4.224999904632568,-11.9399995803833 -4.224999904632568,-11.9399995803833 C-3.694999933242798,-11.9399995803833 -3.2049999237060547,-11.640000343322754 -2.9649999141693115,-11.15999984741211 C-2.255000114440918,-9.75 -1.3250000476837158,-9.130000114440918 -0.004999999888241291,-9.130000114440918 C1.315000057220459,-9.130000114440918 2.244999885559082,-9.75 2.9549999237060547,-11.15999984741211 C3.194999933242798,-11.640000343322754 3.674999952316284,-11.9399995803833 4.215000152587891,-11.9399995803833 C4.215000152587891,-11.9399995803833 8.425000190734863,-11.9399995803833 8.425000190734863,-11.9399995803833 C8.845000267028809,-11.9399995803833 9.234999656677246,-11.75 9.505000114440918,-11.430000305175781 C9.505000114440918,-11.430000305175781 16.524999618530273,-3 16.524999618530273,-3 C16.9950008392334,-2.440000057220459 16.954999923706055,-1.6200000047683716 16.434999465942383,-1.1100000143051147 C16.434999465942383,-1.1100000143051147 12.225000381469727,3.0999999046325684 12.225000381469727,3.0999999046325684 C11.645000457763672,3.680000066757202 10.694999694824219,3.640000104904175 10.164999961853027,3.0199999809265137 C10.164999961853027,3.0199999809265137 8.425000190734863,0.9900000095367432 8.425000190734863,0.9900000095367432 C8.425000190734863,0.9900000095367432 8.425000190734863,10.539999961853027 8.425000190734863,10.539999961853027 C8.425000190734863,11.319999694824219 7.795000076293945,11.9399995803833 7.025000095367432,11.9399995803833 C7.025000095367432,11.9399995803833 -7.025000095367432,11.9399995803833 -7.025000095367432,11.9399995803833 C-7.804999828338623,11.9399995803833 -8.425000190734863,11.3100004196167 -8.425000190734863,10.539999961853027 C-8.425000190734863,10.539999961853027 -8.425000190734863,0.9900000095367432 -8.425000190734863,0.9900000095367432 C-8.425000190734863,0.9900000095367432 -8.4350004196167,0.9900000095367432 -8.4350004196167,0.9900000095367432z"></path></g><g opacity="1" transform="matrix(1,0,0,1,192.3300018310547,38.81999969482422)"><path fill="#221F1F" fill-opacity="0.3" d=" M21.93000030517578,-38.56999969482422 C21.93000030517578,-38.56999969482422 -31.8799991607666,-38.56999969482422 -31.8799991607666,-38.56999969482422 C-21.540000915527344,-5.269999980926514 1.649999976158142,22.360000610351562 31.8799991607666,38.56999969482422 C31.8799991607666,38.56999969482422 31.8799991607666,-28.610000610351562 31.8799991607666,-28.610000610351562 C31.889999389648438,-34.11000061035156 27.43000030517578,-38.56999969482422 21.93000030517578,-38.56999969482422z"></path></g><g opacity="1" transform="matrix(1,0,0,1,124.67500305175781,25.134000778198242)"><path fill="#FFFFFF" fill-opacity="1" d=" M-20.385000228881836,4.974999904632568 C-20.385000228881836,4.974999904632568 20.385000228881836,4.974999904632568 20.385000228881836,4.974999904632568 C22.875,4.974999904632568 24.885000228881836,2.9649999141693115 24.885000228881836,0.4749999940395355 C24.885000228881836,0.4749999940395355 24.885000228881836,-0.4749999940395355 24.885000228881836,-0.4749999940395355 C24.885000228881836,-2.9639999866485596 22.875,-4.974999904632568 20.385000228881836,-4.974999904632568 C20.385000228881836,-4.974999904632568 -20.385000228881836,-4.974999904632568 -20.385000228881836,-4.974999904632568 C-22.875,-4.974999904632568 -24.885000228881836,-2.9639999866485596 -24.885000228881836,-0.4749999940395355 C-24.885000228881836,-0.4749999940395355 -24.885000228881836,0.4749999940395355 -24.885000228881836,0.4749999940395355 C-24.885000228881836,2.9649999141693115 -22.864999771118164,4.974999904632568 -20.385000228881836,4.974999904632568z"></path></g><g opacity="1" transform="matrix(1,0,0,1,131.78500366210938,37.58000183105469)"><path fill="#FFFFFF" fill-opacity="1" d=" M-15.524999618530273,2.490000009536743 C-15.524999618530273,2.490000009536743 15.524999618530273,2.490000009536743 15.524999618530273,2.490000009536743 C16.764999389648438,2.490000009536743 17.774999618530273,1.4800000190734863 17.774999618530273,0.23999999463558197 C17.774999618530273,0.23999999463558197 17.774999618530273,-0.23999999463558197 17.774999618530273,-0.23999999463558197 C17.774999618530273,-1.4809999465942383 16.764999389648438,-2.490000009536743 15.524999618530273,-2.490000009536743 C15.524999618530273,-2.490000009536743 -15.524999618530273,-2.490000009536743 -15.524999618530273,-2.490000009536743 C-16.764999389648438,-2.490000009536743 -17.774999618530273,-1.4809999465942383 -17.774999618530273,-0.23999999463558197 C-17.774999618530273,-0.23999999463558197 -17.774999618530273,0.23999999463558197 -17.774999618530273,0.23999999463558197 C-17.774999618530273,1.4800000190734863 -16.764999389648438,2.490000009536743 -15.524999618530273,2.490000009536743z"></path></g><g opacity="1" transform="matrix(1,0,0,1,131.78500366210938,47.529998779296875)"><path fill="#FFFFFF" fill-opacity="1" d=" M-15.524999618530273,2.490000009536743 C-15.524999618530273,2.490000009536743 15.524999618530273,2.490000009536743 15.524999618530273,2.490000009536743 C16.764999389648438,2.490000009536743 17.774999618530273,1.4800000190734863 17.774999618530273,0.23999999463558197 C17.774999618530273,0.23999999463558197 17.774999618530273,-0.23999999463558197 17.774999618530273,-0.23999999463558197 C17.774999618530273,-1.4809999465942383 16.764999389648438,-2.490000009536743 15.524999618530273,-2.490000009536743 C15.524999618530273,-2.490000009536743 -15.524999618530273,-2.490000009536743 -15.524999618530273,-2.490000009536743 C-16.764999389648438,-2.490000009536743 -17.774999618530273,-1.4809999465942383 -17.774999618530273,-0.23999999463558197 C-17.774999618530273,-0.23999999463558197 -17.774999618530273,0.23999999463558197 -17.774999618530273,0.23999999463558197 C-17.774999618530273,1.4900000095367432 -16.764999389648438,2.490000009536743 -15.524999618530273,2.490000009536743z"></path></g><g opacity="1" transform="matrix(1,0,0,1,201.81500244140625,87.35399627685547)"><path fill="#FFFFFF" fill-opacity="1" d=" M-4.465000152587891,7.465000152587891 C-4.465000152587891,7.465000152587891 4.465000152587891,7.465000152587891 4.465000152587891,7.465000152587891 C6.125,7.465000152587891 7.465000152587891,6.125 7.465000152587891,4.465000152587891 C7.465000152587891,4.465000152587891 7.465000152587891,-4.465000152587891 7.465000152587891,-4.465000152587891 C7.465000152587891,-6.125 6.125,-7.465000152587891 4.465000152587891,-7.465000152587891 C4.465000152587891,-7.465000152587891 -4.465000152587891,-7.465000152587891 -4.465000152587891,-7.465000152587891 C-6.125,-7.465000152587891 -7.465000152587891,-6.125 -7.465000152587891,-4.465000152587891 C-7.465000152587891,-4.465000152587891 -7.465000152587891,4.465000152587891 -7.465000152587891,4.465000152587891 C-7.465000152587891,6.114999771118164 -6.114999771118164,7.465000152587891 -4.465000152587891,7.465000152587891z"></path></g><g opacity="1" transform="matrix(1,0,0,1,181.9149932861328,87.35399627685547)"><path fill="#FFFFFF" fill-opacity="1" d=" M-4.465000152587891,7.465000152587891 C-4.465000152587891,7.465000152587891 4.465000152587891,7.465000152587891 4.465000152587891,7.465000152587891 C6.125,7.465000152587891 7.465000152587891,6.125 7.465000152587891,4.465000152587891 C7.465000152587891,4.465000152587891 7.465000152587891,-4.465000152587891 7.465000152587891,-4.465000152587891 C7.465000152587891,-6.125 6.125,-7.465000152587891 4.465000152587891,-7.465000152587891 C4.465000152587891,-7.465000152587891 -4.465000152587891,-7.465000152587891 -4.465000152587891,-7.465000152587891 C-6.125,-7.465000152587891 -7.465000152587891,-6.125 -7.465000152587891,-4.465000152587891 C-7.465000152587891,-4.465000152587891 -7.465000152587891,4.465000152587891 -7.465000152587891,4.465000152587891 C-7.465000152587891,6.114999771118164 -6.125,7.465000152587891 -4.465000152587891,7.465000152587891z"></path></g><g opacity="1" transform="matrix(1,0,0,1,114.7249984741211,124.68000030517578)"><path fill="#EBEBEC" fill-opacity="1" d=" M-94.56500244140625,19.90999984741211 C-94.56500244140625,19.90999984741211 94.56500244140625,19.90999984741211 94.56500244140625,19.90999984741211 C94.56500244140625,19.90999984741211 94.56500244140625,-16.90999984741211 94.56500244140625,-16.90999984741211 C94.56500244140625,-18.56999969482422 93.2249984741211,-19.90999984741211 91.56500244140625,-19.90999984741211 C91.56500244140625,-19.90999984741211 -91.56500244140625,-19.90999984741211 -91.56500244140625,-19.90999984741211 C-93.2249984741211,-19.90999984741211 -94.56500244140625,-18.56999969482422 -94.56500244140625,-16.90999984741211 C-94.56500244140625,-16.90999984741211 -94.56500244140625,19.90999984741211 -94.56500244140625,19.90999984741211z"></path></g><g opacity="1" transform="matrix(1,0,0,1,142.09500122070312,157.02999877929688)"><path fill="#A8A9AC" fill-opacity="1" d=" M17.895000457763672,2.490000009536743 C17.895000457763672,2.490000009536743 -17.895000457763672,2.490000009536743 -17.895000457763672,2.490000009536743 C-20.385000228881836,2.490000009536743 -22.395000457763672,0.47999998927116394 -22.395000457763672,-2.009999990463257 C-22.395000457763672,-2.009999990463257 -22.395000457763672,-2.490000009536743 -22.395000457763672,-2.490000009536743 C-22.395000457763672,-2.490000009536743 22.395000457763672,-2.490000009536743 22.395000457763672,-2.490000009536743 C22.395000457763672,-2.490000009536743 22.395000457763672,-2.009999990463257 22.395000457763672,-2.009999990463257 C22.395000457763672,0.4699999988079071 20.385000228881836,2.490000009536743 17.895000457763672,2.490000009536743z"></path></g></g><g style="display: block;" transform="matrix(1,0,0,1,274.76220703125,340.4809875488281)" opacity="1.0005098337090954"><g opacity="1" transform="matrix(1,0,0,1,23.295000076293945,14.354999542236328)"><path fill="#D61F3A" fill-opacity="1" d=" M14.364999771118164,12.543999671936035 C14.364999771118164,12.543999671936035 22.0049991607666,2.3550000190734863 22.0049991607666,2.3550000190734863 C23.045000076293945,0.9639999866485596 23.045000076293945,-0.9559999704360962 22.0049991607666,-2.3459999561309814 C22.0049991607666,-2.3459999561309814 14.364999771118164,-12.53600025177002 14.364999771118164,-12.53600025177002 C13.625,-13.526000022888184 12.46500015258789,-14.104999542236328 11.234999656677246,-14.104999542236328 C11.234999656677246,-14.104999542236328 -19.125,-14.104999542236328 -19.125,-14.104999542236328 C-21.28499984741211,-14.104999542236328 -23.045000076293945,-12.354999542236328 -23.045000076293945,-10.1850004196167 C-23.045000076293945,-10.1850004196167 -23.045000076293945,10.184000015258789 -23.045000076293945,10.184000015258789 C-23.045000076293945,12.343999862670898 -21.295000076293945,14.104999542236328 -19.125,14.104999542236328 C-19.125,14.104999542236328 11.234999656677246,14.104999542236328 11.234999656677246,14.104999542236328 C12.46500015258789,14.104999542236328 13.625,13.524999618530273 14.364999771118164,12.543999671936035z M12.204999923706055,0.004000000189989805 C12.204999923706055,-1.9459999799728394 13.78499984741211,-3.5260000228881836 15.734999656677246,-3.5260000228881836 C17.684999465942383,-3.5260000228881836 19.264999389648438,-1.9459999799728394 19.264999389648438,0.004000000189989805 C19.264999389648438,1.9539999961853027 17.684999465942383,3.5339999198913574 15.734999656677246,3.5339999198913574 C13.78499984741211,3.5250000953674316 12.204999923706055,1.9539999961853027 12.204999923706055,0.004000000189989805z"></path></g><g opacity="1" transform="matrix(1,0,0,1,25.834999084472656,14.354999542236328)"><path fill="#ED4042" fill-opacity="1" d=" M14.364999771118164,12.543999671936035 C14.364999771118164,12.543999671936035 22.0049991607666,2.3550000190734863 22.0049991607666,2.3550000190734863 C23.045000076293945,0.9639999866485596 23.045000076293945,-0.9559999704360962 22.0049991607666,-2.3459999561309814 C22.0049991607666,-2.3459999561309814 14.364999771118164,-12.53600025177002 14.364999771118164,-12.53600025177002 C13.625,-13.526000022888184 12.46500015258789,-14.104999542236328 11.234999656677246,-14.104999542236328 C11.234999656677246,-14.104999542236328 -19.125,-14.104999542236328 -19.125,-14.104999542236328 C-21.28499984741211,-14.104999542236328 -23.045000076293945,-12.354999542236328 -23.045000076293945,-10.1850004196167 C-23.045000076293945,-10.1850004196167 -23.045000076293945,10.184000015258789 -23.045000076293945,10.184000015258789 C-23.045000076293945,12.343999862670898 -21.295000076293945,14.104999542236328 -19.125,14.104999542236328 C-19.125,14.104999542236328 11.234999656677246,14.104999542236328 11.234999656677246,14.104999542236328 C12.46500015258789,14.104999542236328 13.625,13.52400016784668 14.364999771118164,12.543999671936035z"></path></g><g opacity="1" transform="matrix(1,0,0,1,20.420000076293945,14.359000205993652)"><path fill="#FFFFFF" fill-opacity="1" d=" M-3.5299999713897705,7.050000190734863 C-3.5299999713897705,7.050000190734863 -7.050000190734863,7.050000190734863 -7.050000190734863,7.050000190734863 C-7.050000190734863,7.050000190734863 3.5199999809265137,-7.050000190734863 3.5199999809265137,-7.050000190734863 C3.5199999809265137,-7.050000190734863 7.050000190734863,-7.050000190734863 7.050000190734863,-7.050000190734863 C7.050000190734863,-7.050000190734863 -3.5299999713897705,7.050000190734863 -3.5299999713897705,7.050000190734863z"></path></g><g opacity="1" transform="matrix(1,0,0,1,27.469999313354492,17.878999710083008)"><path fill="#FFFFFF" fill-opacity="1" d=" M0,-3.5299999713897705 C1.9490000009536743,-3.5299999713897705 3.5299999713897705,-1.9500000476837158 3.5299999713897705,0 C3.5299999713897705,1.9490000009536743 1.9490000009536743,3.5299999713897705 0,3.5299999713897705 C-1.9500000476837158,3.5299999713897705 -3.5299999713897705,1.9490000009536743 -3.5299999713897705,0 C-3.5299999713897705,-1.9500000476837158 -1.9500000476837158,-3.5299999713897705 0,-3.5299999713897705z"></path></g><g opacity="1" transform="matrix(1,0,0,1,13.369999885559082,10.829999923706055)"><path fill="#FFFFFF" fill-opacity="1" d=" M0,-3.5299999713897705 C1.9490000009536743,-3.5299999713897705 3.5299999713897705,-1.9500000476837158 3.5299999713897705,-0.0010000000474974513 C3.5299999713897705,1.9490000009536743 1.9490000009536743,3.5299999713897705 0,3.5299999713897705 C-1.9500000476837158,3.5299999713897705 -3.5299999713897705,1.9490000009536743 -3.5299999713897705,-0.0010000000474974513 C-3.5299999713897705,-1.9500000476837158 -1.9500000476837158,-3.5299999713897705 0,-3.5299999713897705z"></path></g></g><g transform="matrix(1,0,0,1,454.7500305175781,160.16998291015625)" opacity="1" style="display: block;"><g opacity="1" transform="matrix(1,0,0,1,117.20999908447266,34.83000183105469)"><path fill="#612785" fill-opacity="1" d=" M-17.420000076293945,-14.680000305175781 C-17.420000076293945,-14.680000305175781 17.420000076293945,-14.680000305175781 17.420000076293945,-14.680000305175781 C17.420000076293945,-14.680000305175781 17.420000076293945,14.680000305175781 17.420000076293945,14.680000305175781 C17.420000076293945,14.680000305175781 -17.420000076293945,14.680000305175781 -17.420000076293945,14.680000305175781 C-17.420000076293945,14.680000305175781 -17.420000076293945,-14.680000305175781 -17.420000076293945,-14.680000305175781z"></path></g><g opacity="1" transform="matrix(1,0,0,1,117.20999908447266,10.204999923706055)"><path fill="#974CC6" fill-opacity="1" d=" M28.329999923706055,-9.954999923706055 C28.329999923706055,-9.954999923706055 -28.329999923706055,-9.954999923706055 -28.329999923706055,-9.954999923706055 C-33.29999923706055,-9.954999923706055 -37.33000183105469,-5.925000190734863 -37.33000183105469,-0.9549999833106995 C-37.33000183105469,-0.9549999833106995 -37.33000183105469,0.9549999833106995 -37.33000183105469,0.9549999833106995 C-37.33000183105469,5.925000190734863 -33.29999923706055,9.954999923706055 -28.329999923706055,9.954999923706055 C-28.329999923706055,9.954999923706055 28.329999923706055,9.954999923706055 28.329999923706055,9.954999923706055 C33.29999923706055,9.954999923706055 37.33000183105469,5.925000190734863 37.33000183105469,0.9549999833106995 C37.33000183105469,0.9549999833106995 37.33000183105469,-0.9549999833106995 37.33000183105469,-0.9549999833106995 C37.33000183105469,-5.934999942779541 33.29999923706055,-9.954999923706055 28.329999923706055,-9.954999923706055z"></path></g><g opacity="1" transform="matrix(1,0,0,1,117.20999908447266,151.0500030517578)"><path fill="#974CC6" fill-opacity="1" d=" M0,-116.95999908447266 C64.59600067138672,-116.95999908447266 116.95999908447266,-64.59500122070312 116.95999908447266,0 C116.95999908447266,64.59600067138672 64.59600067138672,116.95999908447266 0,116.95999908447266 C-64.59500122070312,116.95999908447266 -116.95999908447266,64.59600067138672 -116.95999908447266,0 C-116.95999908447266,-64.59500122070312 -64.59500122070312,-116.95999908447266 0,-116.95999908447266z"></path></g><g opacity="1" transform="matrix(1,0,0,1,234.39700317382812,303.64599609375)"><path fill="#FFFDFD" fill-opacity="1" d=" M-219.24000549316406,-152.04100036621094 C-219.24000549316406,-95.69100189208984 -173.55999755859375,-50.01100158691406 -117.20999908447266,-50.01100158691406 C-60.86000061035156,-50.01100158691406 -15.180000305175781,-95.69100189208984 -15.180000305175781,-152.04100036621094 C-15.180000305175781,-208.39100646972656 -60.86000061035156,-254.07000732421875 -117.20999908447266,-254.07000732421875 C-173.55999755859375,-254.07000732421875 -219.24000549316406,-208.39100646972656 -219.24000549316406,-152.04100036621094z"></path></g><g opacity="1" transform="matrix(1,0,0,1,258.5299987792969,303.53399658203125)"><path fill="url(&quot;#__lottie_element_1827&quot;)" fill-opacity="1" d=" M-51.880001068115234,-152.91000366210938 C-51.880001068115234,-128.6199951171875 -61.720001220703125,-106.62999725341797 -77.63999938964844,-90.70999908447266 C-93.55999755859375,-74.79000091552734 -115.55000305175781,-64.94999694824219 -139.83999633789062,-64.94999694824219 C-164.1300048828125,-64.94999694824219 -186.1199951171875,-74.80000305175781 -202.0399932861328,-90.70999908447266 C-202.0399932861328,-90.70999908447266 -138.97000122070312,-153.17999267578125 -138.97000122070312,-153.17999267578125 C-138.97000122070312,-153.17999267578125 -139.83999633789062,-240.86000061035156 -139.83999633789062,-240.86000061035156 C-115.55000305175781,-240.86000061035156 -93.55999755859375,-231.00999450683594 -77.63999938964844,-215.10000610351562 C-61.720001220703125,-199.17999267578125 -51.880001068115234,-177.19000244140625 -51.880001068115234,-152.91000366210938z"></path></g><g opacity="1" transform="matrix(1,0,0,1,296.55499267578125,214.3350067138672)"><path fill="url(&quot;#__lottie_element_1828&quot;)" fill-opacity="1" d=" M-176.19000244140625,-151.80999755859375 C-176.52000427246094,-151.80999755859375 -176.85000610351562,-151.80999755859375 -177.1699981689453,-151.8000030517578 C-177.5,-151.8000030517578 -177.82000732421875,-151.7899932861328 -178.14999389648438,-151.77999877929688 C-178.14999389648438,-151.77999877929688 -176.72000122070312,-64.93000030517578 -176.72000122070312,-64.93000030517578 C-176.72000122070312,-64.93000030517578 -115,-124.69000244140625 -115,-124.69000244140625 C-130.2899932861328,-139.99000549316406 -152.85000610351562,-151.80999755859375 -176.19000244140625,-151.80999755859375z"></path></g></g><g transform="matrix(-0.7071067690849304,-0.7071067690849304,0.7071067690849304,-0.7071067690849304,523.1090087890625,384.9797668457031)" opacity="0.5" style="display: block;"><g opacity="1" transform="matrix(1,0,0,1,17.670000076293945,52.5099983215332)"><path fill="#9533D1" fill-opacity="1" d=" M-2.490000009536743,-52.2599983215332 C-17.420000076293945,-2.490000009536743 -17.420000076293945,34.84000015258789 -17.420000076293945,34.84000015258789 C-17.420000076293945,44.459999084472656 -9.619999885559082,52.2599983215332 0,52.2599983215332 C9.619999885559082,52.2599983215332 17.420000076293945,44.459999084472656 17.420000076293945,34.84000015258789 C17.420000076293945,34.83000183105469 17.420000076293945,-2.490000009536743 -2.490000009536743,-52.2599983215332z"></path></g><g opacity="1" transform="matrix(1,0,0,1,17.420000076293945,87.58999633789062)"><path fill="#FFFFFF" fill-opacity="1" d=" M0,-7.710000038146973 C4.257999897003174,-7.710000038146973 7.710000038146973,-4.257999897003174 7.710000038146973,0 C7.710000038146973,4.257999897003174 4.257999897003174,7.710000038146973 0,7.710000038146973 C-4.257999897003174,7.710000038146973 -7.710000038146973,4.257999897003174 -7.710000038146973,0 C-7.710000038146973,-4.257999897003174 -4.257999897003174,-7.710000038146973 0,-7.710000038146973z"></path></g></g><g transform="matrix(0.6691306233406067,0.7431448101997375,-0.7431448101997375,0.6691306233406067,626.64697265625,238.49148559570312)" opacity="1" style="display: block;"><g opacity="1" transform="matrix(1,0,0,1,17.670000076293945,52.5099983215332)"><path fill="#9432D1" fill-opacity="1" d=" M-2.490000009536743,-52.2599983215332 C-17.420000076293945,-2.490000009536743 -17.420000076293945,34.84000015258789 -17.420000076293945,34.84000015258789 C-17.420000076293945,44.459999084472656 -9.619999885559082,52.2599983215332 0,52.2599983215332 C9.619999885559082,52.2599983215332 17.420000076293945,44.459999084472656 17.420000076293945,34.84000015258789 C17.420000076293945,34.83000183105469 17.420000076293945,-2.490000009536743 -2.490000009536743,-52.2599983215332z"></path></g><g opacity="1" transform="matrix(1,0,0,1,17.420000076293945,87.58999633789062)"><path fill="#FFFFFF" fill-opacity="1" d=" M0,-7.710000038146973 C4.257999897003174,-7.710000038146973 7.710000038146973,-4.257999897003174 7.710000038146973,0 C7.710000038146973,4.257999897003174 4.257999897003174,7.710000038146973 0,7.710000038146973 C-4.257999897003174,7.710000038146973 -7.710000038146973,4.257999897003174 -7.710000038146973,0 C-7.710000038146973,-4.257999897003174 -4.257999897003174,-7.710000038146973 0,-7.710000038146973z"></path></g></g></g></svg>