<svg xmlns:xlink="http://www.w3.org/1999/xlink" xmlns="http://www.w3.org/2000/svg" style="width: 24px; height: 24px; fill: var(--color-plus-700);" width="25"  height="24" ><defs><symbol id="free" xmlns="http://www.w3.org/2000/svg" viewBox="0 0 25 24"><path fill-rule="evenodd" d="M21.001 7H24V5h-4l-.117.007a1 1 0 00-.883.995l.018 8 .006.11a1 1 0 001.003.888l3.982-.035-.018-2-2.976.026-.005-1.992 1.973.001V9l-1.977-.001L21.001 7zM24 19v-2H0v2h24zM14 5h4v2h-2.999l.005 1.999L16.983 9v2l-1.973-.001.005 1.992 2.976-.026.018 2-3.982.035a1 1 0 01-1.003-.888l-.006-.11-.018-8a1 1 0 01.883-.995L14 5zM2 7h3V5H1l-.117.007A1 1 0 000 6v9h2v-4.001L3.983 11V9L2 8.999V7zm7-2a3 3 0 011.762 5.428l-.159.107.072.075a4.981 4.981 0 011.32 3.173L12 14v1h-2v-1a3 3 0 00-1.817-2.758L8 11.17V15H6V6a1 1 0 01.883-.993L7 5h2zM8 7h1l.117.007A1 1 0 019 9H8V7z" clip-rule="evenodd"></path></symbol></defs><use xlink:href="#free" fill="#941B80"></use></svg>