<svg xmlns="http://www.w3.org/2000/svg" xmlns:xlink="http://www.w3.org/1999/xlink" viewBox="0 0 1200 580" width="1200" height="580" preserveAspectRatio="xMidYMid meet" style="width: 100%; height: 100%; transform: translate3d(0px, 0px, 0px); content-visibility: visible;"><defs><clipPath id="__lottie_element_1857"><rect width="1200" height="580" x="0" y="0"></rect></clipPath><linearGradient id="__lottie_element_1870" spreadMethod="pad" gradientUnits="userSpaceOnUse" x1="-13" y1="53" x2="-17" y2="-82"><stop offset="0%" stop-color="rgb(65,106,179)"></stop><stop offset="50%" stop-color="rgb(68,123,191)"></stop><stop offset="100%" stop-color="rgb(71,141,203)"></stop></linearGradient><linearGradient id="__lottie_element_1874" spreadMethod="pad" gradientUnits="userSpaceOnUse" x1="-1" y1="-79" x2="1" y2="56"><stop offset="0%" stop-color="rgb(251,172,55)"></stop><stop offset="50%" stop-color="rgb(249,157,62)"></stop><stop offset="100%" stop-color="rgb(247,142,69)"></stop></linearGradient><linearGradient id="__lottie_element_1894" spreadMethod="pad" gradientUnits="userSpaceOnUse" x1="-2" y1="-52" x2="-2" y2="53"><stop offset="0%" stop-color="rgb(71,141,203)"></stop><stop offset="50%" stop-color="rgb(68,123,191)"></stop><stop offset="100%" stop-color="rgb(65,106,179)"></stop></linearGradient><linearGradient id="__lottie_element_1895" spreadMethod="pad" gradientUnits="userSpaceOnUse" x1="0" y1="-53" x2="0" y2="53"><stop offset="0%" stop-color="rgb(71,141,203)"></stop><stop offset="50%" stop-color="rgb(68,123,191)"></stop><stop offset="100%" stop-color="rgb(65,106,179)"></stop></linearGradient><linearGradient id="__lottie_element_1901" spreadMethod="pad" gradientUnits="userSpaceOnUse" x1="-68" y1="0" x2="756" y2="0"><stop offset="0%" stop-color="rgb(255,255,255)"></stop><stop offset="25%" stop-color="rgb(223,234,229)"></stop><stop offset="50%" stop-color="rgb(190,214,204)"></stop><stop offset="75%" stop-color="rgb(223,234,229)"></stop><stop offset="100%" stop-color="rgb(255,255,255)"></stop></linearGradient><linearGradient id="__lottie_element_1901" spreadMethod="pad" gradientUnits="userSpaceOnUse" x1="-68" y1="0" x2="756" y2="0"><stop offset="0%" stop-color="rgb(255,255,255)"></stop><stop offset="25%" stop-color="rgb(223,234,229)"></stop><stop offset="50%" stop-color="rgb(190,214,204)"></stop><stop offset="75%" stop-color="rgb(223,234,229)"></stop><stop offset="100%" stop-color="rgb(255,255,255)"></stop></linearGradient><linearGradient id="__lottie_element_1894" spreadMethod="pad" gradientUnits="userSpaceOnUse" x1="-2" y1="-52" x2="-2" y2="53"><stop offset="0%" stop-color="rgb(71,141,203)"></stop><stop offset="50%" stop-color="rgb(68,123,191)"></stop><stop offset="100%" stop-color="rgb(65,106,179)"></stop></linearGradient><linearGradient id="__lottie_element_1895" spreadMethod="pad" gradientUnits="userSpaceOnUse" x1="0" y1="-53" x2="0" y2="53"><stop offset="0%" stop-color="rgb(71,141,203)"></stop><stop offset="50%" stop-color="rgb(68,123,191)"></stop><stop offset="100%" stop-color="rgb(65,106,179)"></stop></linearGradient><linearGradient id="__lottie_element_1874" spreadMethod="pad" gradientUnits="userSpaceOnUse" x1="-1" y1="-79" x2="1" y2="56"><stop offset="0%" stop-color="rgb(251,172,55)"></stop><stop offset="50%" stop-color="rgb(249,157,62)"></stop><stop offset="100%" stop-color="rgb(247,142,69)"></stop></linearGradient><linearGradient id="__lottie_element_1870" spreadMethod="pad" gradientUnits="userSpaceOnUse" x1="-13" y1="53" x2="-17" y2="-82"><stop offset="0%" stop-color="rgb(65,106,179)"></stop><stop offset="50%" stop-color="rgb(68,123,191)"></stop><stop offset="100%" stop-color="rgb(71,141,203)"></stop></linearGradient></defs><g clip-path="url(#__lottie_element_1857)"><g transform="matrix(1,0,0,1,244.8499755859375,64.84999084472656)" opacity="1" style="display: block;"><path fill="url(&quot;#__lottie_element_1901&quot;)" fill-opacity="1" d=" M534.36,79.82 C534.36,62.52 520.29,48.45 502.99,48.45 C485.69,48.45 471.62,62.52 471.62,79.82 C471.62,79.82 447.9,79.82 447.9,79.82 C440.29,79.82 434.13,85.99 434.13,93.59 C434.13,93.59 434.13,217.55 434.13,217.55 C434.13,225.16 440.3,231.32 447.9,231.32 C447.9,231.32 558.09,231.32 558.09,231.32 C565.7,231.32 571.86,225.15 571.86,217.55 C571.86,217.55 571.86,93.6 571.86,93.6 C571.86,85.99 565.69,79.83 558.09,79.83 C558.09,79.83 534.36,79.83 534.36,79.83 C534.36,79.83 534.36,79.82 534.36,79.82z M502.99,56.1 C516.07,56.1 526.71,66.74 526.71,79.82 C526.71,79.82 479.27,79.82 479.27,79.82 C479.27,66.74 489.91,56.1 502.99,56.1z M112.94,265.07 C112.94,265.07 11.52,265.07 11.52,265.07 C5.3,265.07 0.25,270.12 0.25,276.34 C0.25,276.34 0.25,422.84 0.25,422.84 C0.25,429.06 5.3,434.11 11.52,434.11 C11.52,434.11 112.94,434.11 112.94,434.11 C119.16,434.11 124.21,429.06 124.21,422.84 C124.21,422.84 124.21,276.34 124.21,276.34 C124.21,270.12 119.17,265.07 112.94,265.07z M73.5,428.48 C73.5,428.48 50.96,428.48 50.96,428.48 C47.85,428.48 45.33,425.96 45.33,422.85 C45.33,419.74 47.85,417.22 50.96,417.22 C50.96,417.22 73.5,417.22 73.5,417.22 C76.61,417.22 79.13,419.74 79.13,422.85 C79.13,425.96 76.61,428.48 73.5,428.48z M112.94,411.57 C112.94,411.57 11.52,411.57 11.52,411.57 C11.52,411.57 11.52,276.34 11.52,276.34 C11.52,276.34 112.94,276.34 112.94,276.34 C112.94,276.34 112.94,411.57 112.94,411.57z M551.39,34.68 C551.27,33.87 551.19,33.06 551.19,32.22 C551.19,22.71 558.9,15 568.41,15 C570.78,15 573.04,15.48 575.09,16.35 C580.6,6.73 590.96,0.25 602.84,0.25 C610.58,0.25 617.67,3 623.2,7.57 C626.32,3.15 631.45,0.25 637.27,0.25 C646.78,0.25 654.49,7.96 654.49,17.47 C654.49,18.41 654.39,19.33 654.25,20.24 C655.12,20.04 656.02,19.93 656.95,19.93 C663.74,19.93 669.25,25.44 669.25,32.23 C669.25,33.07 669.16,33.89 669,34.69 C669,34.69 551.39,34.69 551.39,34.69 C551.39,34.69 551.39,34.68 551.39,34.68z M131.1,103.54 C131.1,92.13 121.85,82.88 110.44,82.88 C109.79,82.88 109.16,82.92 108.52,82.98 C109.73,80.93 110.44,78.55 110.44,76 C110.44,68.39 104.27,62.23 96.67,62.23 C89.06,62.23 82.9,68.4 82.9,76 C82.9,76.09 82.91,76.18 82.91,76.28 C81.78,76.12 80.63,76 79.45,76 C68.29,76 58.92,83.6 56.18,93.9 C53.17,91.33 49.28,89.77 45.01,89.77 C36.68,89.77 29.73,95.69 28.14,103.54 C28.14,103.54 131.1,103.54 131.1,103.54z M406.12,44.01 C404.02,44.01 402.12,44.84 400.71,46.17 C398.7,42.53 394.83,40.07 390.38,40.07 C388.98,40.07 387.65,40.32 386.41,40.77 C386.42,40.54 386.45,40.31 386.45,40.07 C386.45,31.38 379.4,24.33 370.71,24.33 C362.02,24.33 354.97,31.38 354.97,40.07 C348.45,40.07 343.16,45.36 343.16,51.88 C343.16,51.88 414,51.88 414,51.88 C413.99,47.53 410.46,44.01 406.12,44.01z M242.44,296.38 C242.44,296.38 191.94,296.38 191.94,296.38 C184.97,296.38 179.31,302.03 179.31,309.01 C179.31,309.01 179.31,441.33 179.31,441.33 C179.31,448.3 184.96,453.96 191.94,453.96 C191.94,453.96 242.44,453.96 242.44,453.96 C249.41,453.96 255.07,448.31 255.07,441.33 C255.07,441.33 255.07,309 255.07,309 C255.06,302.03 249.41,296.38 242.44,296.38z M248.75,441.32 C248.75,444.81 245.92,447.63 242.44,447.63 C242.44,447.63 191.94,447.63 191.94,447.63 C188.45,447.63 185.63,444.8 185.63,441.32 C185.63,441.32 185.63,308.75 185.63,308.75 C185.63,305.26 188.46,302.44 191.94,302.44 C191.94,302.44 204.57,302.44 204.57,302.44 C204.57,305.93 207.4,308.75 210.88,308.75 C210.88,308.75 223.51,308.75 223.51,308.75 C227,308.75 229.82,305.92 229.82,302.44 C229.82,302.44 242.45,302.44 242.45,302.44 C245.94,302.44 248.76,305.27 248.76,308.75 C248.76,308.75 248.76,441.32 248.76,441.32 C248.76,441.32 248.75,441.32 248.75,441.32z"></path><g opacity="1" transform="matrix(1,0,0,1,502.9949951171875,139.88499450683594)"></g><g opacity="1" transform="matrix(1,0,0,1,62.22999954223633,349.5899963378906)"></g><g opacity="1" transform="matrix(1,0,0,1,610.219970703125,17.469999313354492)"></g><g opacity="1" transform="matrix(1,0,0,1,79.62000274658203,82.88500213623047)"></g><g opacity="1" transform="matrix(1,0,0,1,378.5799865722656,38.10499954223633)"></g><g opacity="1" transform="matrix(1,0,0,1,217.19000244140625,375.1700134277344)"></g></g><g transform="matrix(1,0,0,1,854.5499877929688,68.19000244140625)" opacity="1" style="display: block;"><g opacity="1" transform="matrix(1,0,0,1,166.9550018310547,134.2100067138672)"><path fill="#3964A2" fill-opacity="1" d=" M9.755000114440918,52.9900016784668 C9.755000114440918,52.9900016784668 -0.19499999284744263,52.9900016784668 -0.19499999284744263,52.9900016784668 C-5.473999977111816,52.9900016784668 -9.755000114440918,48.709999084472656 -9.755000114440918,43.43000030517578 C-9.755000114440918,43.43000030517578 -9.755000114440918,-43.43000030517578 -9.755000114440918,-43.43000030517578 C-9.755000114440918,-48.709999084472656 -5.473999977111816,-52.9900016784668 -0.19499999284744263,-52.9900016784668 C-0.19499999284744263,-52.9900016784668 9.755000114440918,-52.9900016784668 9.755000114440918,-52.9900016784668 C9.755000114440918,-52.9900016784668 9.755000114440918,52.9900016784668 9.755000114440918,52.9900016784668z"></path></g><g opacity="1" transform="matrix(1,0,0,1,111.55500030517578,66.07499694824219)"><path fill="#6D788E" fill-opacity="1" d=" M104.00599670410156,65.82499694824219 C104.00599670410156,65.82499694824219 89.54499816894531,65.82499694824219 89.54499816894531,65.82499694824219 C89.54499816894531,65.82499694824219 89.54499816894531,14.175000190734863 89.54499816894531,14.175000190734863 C89.54499816894531,-21.96500015258789 60.145999908447266,-51.3650016784668 24.006000518798828,-51.3650016784668 C24.006000518798828,-51.3650016784668 -24.006000518798828,-51.3650016784668 -24.006000518798828,-51.3650016784668 C-60.14500045776367,-51.3650016784668 -89.54499816894531,-21.96500015258789 -89.54499816894531,14.175000190734863 C-89.54499816894531,14.175000190734863 -89.54499816894531,61.21500015258789 -89.54499816894531,61.21500015258789 C-89.54499816894531,61.21500015258789 -104.00599670410156,61.21500015258789 -104.00599670410156,61.21500015258789 C-104.00599670410156,61.21500015258789 -104.00599670410156,14.175000190734863 -104.00599670410156,14.175000190734863 C-104.00599670410156,-29.934999465942383 -68.11499786376953,-65.82499694824219 -24.006000518798828,-65.82499694824219 C-24.006000518798828,-65.82499694824219 24.006000518798828,-65.82499694824219 24.006000518798828,-65.82499694824219 C68.11499786376953,-65.82499694824219 104.00599670410156,-29.934999465942383 104.00599670410156,14.175000190734863 C104.00599670410156,14.175000190734863 104.00599670410156,65.82499694824219 104.00599670410156,65.82499694824219z"></path></g><g opacity="1" transform="matrix(1,0,0,1,118.25499725341797,66.07499694824219)"><path fill="#AFACB0" fill-opacity="1" d=" M103.99500274658203,65.82499694824219 C103.99500274658203,65.82499694824219 89.53399658203125,65.82499694824219 89.53399658203125,65.82499694824219 C89.53399658203125,65.82499694824219 89.53399658203125,14.175000190734863 89.53399658203125,14.175000190734863 C89.53399658203125,-21.96500015258789 60.13600158691406,-51.3650016784668 23.9950008392334,-51.3650016784668 C23.9950008392334,-51.3650016784668 -24.0049991607666,-51.3650016784668 -24.0049991607666,-51.3650016784668 C-60.14500045776367,-51.3650016784668 -89.5459976196289,-21.96500015258789 -89.5459976196289,14.175000190734863 C-89.5459976196289,14.175000190734863 -89.5459976196289,61.21500015258789 -89.5459976196289,61.21500015258789 C-89.5459976196289,61.21500015258789 -104.00499725341797,61.21500015258789 -104.00499725341797,61.21500015258789 C-104.00499725341797,61.21500015258789 -104.00499725341797,14.175000190734863 -104.00499725341797,14.175000190734863 C-104.00499725341797,-29.934999465942383 -68.11399841308594,-65.82499694824219 -24.0049991607666,-65.82499694824219 C-24.0049991607666,-65.82499694824219 24.003999710083008,-65.82499694824219 24.003999710083008,-65.82499694824219 C68.11399841308594,-65.82499694824219 104.00499725341797,-29.934999465942383 104.00499725341797,14.175000190734863 C104.00499725341797,14.175000190734863 104.00499725341797,65.82499694824219 104.00499725341797,65.82499694824219 C104.00499725341797,65.82499694824219 103.99500274658203,65.82499694824219 103.99500274658203,65.82499694824219z"></path></g><g opacity="1" transform="matrix(1,0,0,1,178.07000732421875,134.2100067138672)"><path fill="url(&quot;#__lottie_element_1894&quot;)" fill-opacity="1" d=" M4.260000228881836,52.9900016784668 C4.260000228881836,52.9900016784668 -4.260000228881836,52.9900016784668 -4.260000228881836,52.9900016784668 C-9.539999961853027,52.9900016784668 -13.819999694824219,48.709999084472656 -13.819999694824219,43.43000030517578 C-13.819999694824219,43.43000030517578 -13.819999694824219,-43.43000030517578 -13.819999694824219,-43.43000030517578 C-13.819999694824219,-48.709999084472656 -9.539999961853027,-52.9900016784668 -4.260000228881836,-52.9900016784668 C-4.260000228881836,-52.9900016784668 4.260000228881836,-52.9900016784668 4.260000228881836,-52.9900016784668 C9.539999961853027,-52.9900016784668 13.819999694824219,-48.709999084472656 13.819999694824219,-43.43000030517578 C13.819999694824219,-43.43000030517578 13.819999694824219,43.43000030517578 13.819999694824219,43.43000030517578 C13.819000244140625,48.70000076293945 9.539999961853027,52.9900016784668 4.260000228881836,52.9900016784668z"></path></g><g opacity="1" transform="matrix(1,0,0,1,203.41000366210938,134.1999969482422)"><path fill="#13529A" fill-opacity="1" d=" M11.520999908447266,-19.959999084472656 C11.520999908447266,-19.959999084472656 11.520999908447266,19.969999313354492 11.520999908447266,19.969999313354492 C11.520999908447266,32.220001220703125 1.2000000476837158,42.150001525878906 -11.520999908447266,42.150001525878906 C-11.520999908447266,42.150001525878906 -11.520999908447266,19.969999313354492 -11.520999908447266,19.969999313354492 C-11.520999908447266,19.969999313354492 -11.520999908447266,-19.959999084472656 -11.520999908447266,-19.959999084472656 C-11.520999908447266,-19.959999084472656 -11.520999908447266,-42.13999938964844 -11.520999908447266,-42.13999938964844 C1.2000000476837158,-42.150001525878906 11.520999908447266,-32.220001220703125 11.520999908447266,-19.959999084472656z"></path></g><g opacity="1" transform="matrix(1,0,0,1,10.819999694824219,131.88499450683594)"><path fill="#52607A" fill-opacity="1" d=" M3.25,-13.8149995803833 C-4.380000114440918,-13.8149995803833 -10.569999694824219,-7.625 -10.569999694824219,0.004999999888241291 C-10.569999694824219,7.635000228881836 -4.380000114440918,13.824999809265137 3.25,13.824999809265137 C3.25,13.824999809265137 10.569999694824219,13.824999809265137 10.569999694824219,13.824999809265137 C10.569999694824219,13.824999809265137 10.569999694824219,-13.824999809265137 10.569999694824219,-13.824999809265137 C10.569999694824219,-13.824999809265137 3.25,-13.824999809265137 3.25,-13.824999809265137 C3.25,-13.824999809265137 3.25,-13.8149995803833 3.25,-13.8149995803833z"></path></g><g opacity="1" transform="matrix(1,0,0,1,14.479999542236328,131.88999938964844)"><path fill="#6D788E" fill-opacity="1" d=" M6.909999847412109,-13.819999694824219 C-0.7310000061988831,-13.819999694824219 -6.909999847412109,-7.630000114440918 -6.909999847412109,0 C-6.909999847412109,7.630000114440918 -0.7210000157356262,13.819999694824219 6.909999847412109,13.819999694824219 C6.909999847412109,13.819999694824219 6.909999847412109,-13.819999694824219 6.909999847412109,-13.819999694824219z"></path></g><g opacity="1" transform="matrix(1,0,0,1,221.83999633789062,131.88999938964844)"><path fill="#6D788E" fill-opacity="1" d=" M-6.908999919891357,-13.819999694824219 C0.7310000061988831,-13.819999694824219 6.908999919891357,-7.630000114440918 6.908999919891357,0 C6.908999919891357,7.630000114440918 0.7210000157356262,13.819999694824219 -6.908999919891357,13.819999694824219 C-6.908999919891357,13.819999694824219 -6.908999919891357,-13.819999694824219 -6.908999919891357,-13.819999694824219z"></path></g><g opacity="1" transform="matrix(1,0,0,1,118.16000366210938,13.984999656677246)"><path fill="#135092" fill-opacity="1" d=" M19.0310001373291,13.015000343322754 C19.0310001373291,13.015000343322754 -19.0310001373291,13.015000343322754 -19.0310001373291,13.015000343322754 C-26.490999221801758,13.015000343322754 -32.53099822998047,6.974999904632568 -32.53099822998047,-0.48500001430511475 C-32.53099822998047,-0.48500001430511475 -32.53099822998047,-13.015000343322754 -32.53099822998047,-13.015000343322754 C-32.53099822998047,-13.015000343322754 32.53099822998047,-13.015000343322754 32.53099822998047,-13.015000343322754 C32.53099822998047,-13.015000343322754 32.53099822998047,-0.4950000047683716 32.53099822998047,-0.4950000047683716 C32.53099822998047,6.965000152587891 26.481000900268555,13.015000343322754 19.0310001373291,13.015000343322754z"></path></g><g opacity="1" transform="matrix(1,0,0,1,30.334999084472656,134.3350067138672)"><path fill="#2C3B51" fill-opacity="1" d=" M-16.264999389648438,-20.094999313354492 C-16.264999389648438,-20.094999313354492 -16.264999389648438,19.834999084472656 -16.264999389648438,19.834999084472656 C-16.264999389648438,32.084999084472656 -5.945000171661377,42.01499938964844 6.775000095367432,42.01499938964844 C6.775000095367432,42.01499938964844 16.264999389648438,42.28499984741211 16.264999389648438,42.28499984741211 C16.264999389648438,42.28499984741211 16.264999389648438,-42.28499984741211 16.264999389648438,-42.28499984741211 C16.264999389648438,-42.28499984741211 6.775000095367432,-42.28499984741211 6.775000095367432,-42.28499984741211 C-5.945000171661377,-42.28499984741211 -16.264999389648438,-32.35499954223633 -16.264999389648438,-20.094999313354492z"></path></g><g opacity="1" transform="matrix(1,0,0,1,32.90999984741211,134.1999969482422)"><path fill="#13529A" fill-opacity="1" d=" M-11.520000457763672,-19.959999084472656 C-11.520000457763672,-19.959999084472656 -11.520000457763672,19.969999313354492 -11.520000457763672,19.969999313354492 C-11.520000457763672,32.220001220703125 -1.2009999752044678,42.150001525878906 11.520000457763672,42.150001525878906 C11.520000457763672,42.150001525878906 11.520000457763672,19.969999313354492 11.520000457763672,19.969999313354492 C11.520000457763672,19.969999313354492 11.520000457763672,-19.959999084472656 11.520000457763672,-19.959999084472656 C11.520000457763672,-19.959999084472656 11.520000457763672,-42.13999938964844 11.520000457763672,-42.13999938964844 C-1.2009999752044678,-42.150001525878906 -11.520000457763672,-32.220001220703125 -11.520000457763672,-19.959999084472656z"></path></g><g opacity="1" transform="matrix(1,0,0,1,53.91999816894531,134.2100067138672)"><path fill="#37609C" fill-opacity="1" d=" M4.260000228881836,52.9900016784668 C4.260000228881836,52.9900016784668 -4.261000156402588,52.9900016784668 -4.261000156402588,52.9900016784668 C-9.541000366210938,52.9900016784668 -13.819999694824219,48.709999084472656 -13.819999694824219,43.43000030517578 C-13.819999694824219,43.43000030517578 -13.819999694824219,-43.43000030517578 -13.819999694824219,-43.43000030517578 C-13.819999694824219,-48.709999084472656 -9.541000366210938,-52.9900016784668 -4.261000156402588,-52.9900016784668 C-4.261000156402588,-52.9900016784668 4.260000228881836,-52.9900016784668 4.260000228881836,-52.9900016784668 C9.538999557495117,-52.9900016784668 13.819999694824219,-48.709999084472656 13.819999694824219,-43.43000030517578 C13.819999694824219,-43.43000030517578 13.819999694824219,43.43000030517578 13.819999694824219,43.43000030517578 C13.819999694824219,48.70000076293945 9.538999557495117,52.9900016784668 4.260000228881836,52.9900016784668z"></path></g><g opacity="1" transform="matrix(1,0,0,1,58.2599983215332,134.2100067138672)"><path fill="url(&quot;#__lottie_element_1895&quot;)" fill-opacity="1" d=" M4.260000228881836,52.9900016784668 C4.260000228881836,52.9900016784668 -4.261000156402588,52.9900016784668 -4.261000156402588,52.9900016784668 C-9.541000366210938,52.9900016784668 -13.819999694824219,48.709999084472656 -13.819999694824219,43.43000030517578 C-13.819999694824219,43.43000030517578 -13.819999694824219,-43.43000030517578 -13.819999694824219,-43.43000030517578 C-13.819999694824219,-48.709999084472656 -9.541000366210938,-52.9900016784668 -4.261000156402588,-52.9900016784668 C-4.261000156402588,-52.9900016784668 4.260000228881836,-52.9900016784668 4.260000228881836,-52.9900016784668 C9.538999557495117,-52.9900016784668 13.819999694824219,-48.709999084472656 13.819999694824219,-43.43000030517578 C13.819999694824219,-43.43000030517578 13.819999694824219,43.43000030517578 13.819999694824219,43.43000030517578 C13.819999694824219,48.70000076293945 9.538999557495117,52.9900016784668 4.260000228881836,52.9900016784668z"></path></g></g><g transform="matrix(1,0,0,1,854.5499877929688,68.19000244140625)" opacity="0.9500000000000001" style="display: block;"><g opacity="1" transform="matrix(1,0,0,1,114.9749984741211,235.17999267578125)"><path fill="#2C3B51" fill-opacity="1" d=" M7.335000038146973,13.010000228881836 C7.335000038146973,13.010000228881836 -7.335000038146973,13.010000228881836 -7.335000038146973,13.010000228881836 C-12.305999755859375,13.010000228881836 -16.334999084472656,8.979999542236328 -16.334999084472656,4.010000228881836 C-16.334999084472656,4.010000228881836 -16.334999084472656,-4.011000156402588 -16.334999084472656,-4.011000156402588 C-16.334999084472656,-8.979999542236328 -12.305999755859375,-13.010000228881836 -7.335000038146973,-13.010000228881836 C-7.335000038146973,-13.010000228881836 7.335000038146973,-13.010000228881836 7.335000038146973,-13.010000228881836 C12.305000305175781,-13.010000228881836 16.334999084472656,-8.979999542236328 16.334999084472656,-4.011000156402588 C16.334999084472656,-4.011000156402588 16.334999084472656,4.010000228881836 16.334999084472656,4.010000228881836 C16.334999084472656,8.979999542236328 12.305000305175781,13.010000228881836 7.335000038146973,13.010000228881836z"></path></g><g opacity="1" transform="matrix(1,0,0,1,162.89500427246094,202.2449951171875)"><path fill="#52607A" fill-opacity="1" d=" M32.915000915527344,-32.415000915527344 C32.915000915527344,-32.415000915527344 32.915000915527344,-16.405000686645508 32.915000915527344,-16.405000686645508 C32.915000915527344,7.875 13.225000381469727,27.565000534057617 -11.055999755859375,27.565000534057617 C-11.055999755859375,27.565000534057617 -42.6150016784668,27.565000534057617 -42.6150016784668,27.565000534057617 C-42.6150016784668,27.565000534057617 -42.6150016784668,37.26499938964844 -42.6150016784668,37.26499938964844 C-42.6150016784668,37.26499938964844 -11.055999755859375,37.26499938964844 -11.055999755859375,37.26499938964844 C18.584999084472656,37.26499938964844 42.6150016784668,13.234999656677246 42.6150016784668,-16.405000686645508 C42.6150016784668,-16.405000686645508 42.6150016784668,-32.415000915527344 42.6150016784668,-32.415000915527344 C42.6150016784668,-35.095001220703125 40.444000244140625,-37.26499938964844 37.76499938964844,-37.26499938964844 C35.084999084472656,-37.26499938964844 32.915000915527344,-35.084999084472656 32.915000915527344,-32.415000915527344z"></path></g><g opacity="1" transform="matrix(1,0,0,1,165.78500366210938,202.2449951171875)"><path fill="#AEACB1" fill-opacity="1" d=" M32.915000915527344,-32.415000915527344 C32.915000915527344,-32.415000915527344 32.915000915527344,-16.405000686645508 32.915000915527344,-16.405000686645508 C32.915000915527344,7.875 13.22599983215332,27.565000534057617 -11.055000305175781,27.565000534057617 C-11.055000305175781,27.565000534057617 -42.6150016784668,27.565000534057617 -42.6150016784668,27.565000534057617 C-42.6150016784668,27.565000534057617 -42.6150016784668,37.26499938964844 -42.6150016784668,37.26499938964844 C-42.6150016784668,37.26499938964844 -11.055000305175781,37.26499938964844 -11.055000305175781,37.26499938964844 C18.584999084472656,37.26499938964844 42.6150016784668,13.234999656677246 42.6150016784668,-16.405000686645508 C42.6150016784668,-16.405000686645508 42.6150016784668,-32.415000915527344 42.6150016784668,-32.415000915527344 C42.6150016784668,-35.095001220703125 40.44499969482422,-37.26499938964844 37.76499938964844,-37.26499938964844 C35.095001220703125,-37.26499938964844 32.915000915527344,-35.084999084472656 32.915000915527344,-32.415000915527344z"></path></g><g opacity="1" transform="matrix(1,0,0,1,121.34500122070312,235.17999267578125)"><path fill="#124B87" fill-opacity="1" d=" M7.335999965667725,13.010000228881836 C7.335999965667725,13.010000228881836 -7.335999965667725,13.010000228881836 -7.335999965667725,13.010000228881836 C-12.305999755859375,13.010000228881836 -16.336000442504883,8.979999542236328 -16.336000442504883,4.010000228881836 C-16.336000442504883,4.010000228881836 -16.336000442504883,-4.011000156402588 -16.336000442504883,-4.011000156402588 C-16.336000442504883,-8.979999542236328 -12.305999755859375,-13.010000228881836 -7.335999965667725,-13.010000228881836 C-7.335999965667725,-13.010000228881836 7.335999965667725,-13.010000228881836 7.335999965667725,-13.010000228881836 C12.305999755859375,-13.010000228881836 16.336000442504883,-8.979999542236328 16.336000442504883,-4.011000156402588 C16.336000442504883,-4.011000156402588 16.336000442504883,4.010000228881836 16.336000442504883,4.010000228881836 C16.336000442504883,8.979999542236328 12.305999755859375,13.010000228881836 7.335999965667725,13.010000228881836z"></path></g></g><g transform="matrix(1,0,0,1,124.5,285.3800048828125)" opacity="1" style="display: block;"><g opacity="1" transform="matrix(1,0,0,1,471.86700439453125,132.3000030517578)"><path stroke-linecap="butt" stroke-linejoin="miter" fill-opacity="0" stroke-miterlimit="10" stroke="#941B80" stroke-opacity="1" stroke-width="15px" d=" M434.36700439453125,-68.77999877929688 C434.36700439453125,-68.77999877929688 434.36700439453125,76.50499725341797 434.36700439453125,76.50499725341797 C434.36700439453125,86.61000061035156 426.1759948730469,94.80000305175781 416.0719909667969,94.80000305175781 C416.0719909667969,94.80000305175781 -416.0719909667969,94.80000305175781 -416.0719909667969,94.80000305175781 C-426.1759948730469,94.80000305175781 -434.36700439453125,86.61000061035156 -434.36700439453125,76.50499725341797 C-434.36700439453125,76.50499725341797 -434.36700439453125,-94.80000305175781 -434.36700439453125,-94.80000305175781"></path></g></g><g transform="matrix(1,0,0,1,1010.4630126953125,330.75)" opacity="1" style="display: block;"><g opacity="1" transform="matrix(1,0,0,1,19.770000457763672,19.770000457763672)"><path fill="#941B80" fill-opacity="1" d=" M0.0010000000474974513,-19.520000457763672 C10.781000137329102,-19.520000457763672 19.520000457763672,-10.781000137329102 19.520000457763672,0 C19.520000457763672,10.781000137329102 10.781000137329102,19.520000457763672 0.0010000000474974513,19.520000457763672 C-10.779999732971191,19.520000457763672 -19.520000457763672,10.781000137329102 -19.520000457763672,0 C-19.520000457763672,-10.781000137329102 -10.779999732971191,-19.520000457763672 0.0010000000474974513,-19.520000457763672z"></path></g></g><g transform="matrix(1,0,0,1,308.5350036621094,304.9000244140625)" opacity="1" style="display: block;"><g opacity="1" transform="matrix(1,0,0,1,324.4729919433594,76.24299621582031)"><path stroke-linecap="butt" stroke-linejoin="miter" fill-opacity="0" stroke-miterlimit="10" stroke="#A9C4E2" stroke-opacity="1" stroke-width="15px" d=" M286.9729919433594,-25.253000259399414 C286.9729919433594,-25.253000259399414 286.9729919433594,15.720999717712402 286.9729919433594,15.720999717712402 C286.9729919433594,28.43600082397461 276.6650085449219,38.74300003051758 263.95098876953125,38.74300003051758 C263.95098876953125,38.74300003051758 -263.95098876953125,38.74300003051758 -263.95098876953125,38.74300003051758 C-276.6659851074219,38.74300003051758 -286.9729919433594,28.43600082397461 -286.9729919433594,15.720999717712402 C-286.9729919433594,15.720999717712402 -286.9729919433594,-38.742000579833984 -286.9729919433594,-38.742000579833984"></path></g></g><g transform="matrix(1,0,0,1,544.6099853515625,304.9000244140625)" opacity="1" style="display: block;"><g opacity="1" transform="matrix(1,0,0,1,206.3699951171875,76.24299621582031)"><path stroke-linecap="butt" stroke-linejoin="miter" fill-opacity="0" stroke-miterlimit="10" stroke="#FBBC5E" stroke-opacity="1" stroke-width="15px" d=" M168.8699951171875,-25.253000259399414 C168.8699951171875,-25.253000259399414 168.8699951171875,15.720999717712402 168.8699951171875,15.720999717712402 C168.8699951171875,28.43600082397461 158.56199645996094,38.74300003051758 145.84800720214844,38.74300003051758 C145.84800720214844,38.74300003051758 -145.8470001220703,38.74300003051758 -145.8470001220703,38.74300003051758 C-158.56199645996094,38.74300003051758 -168.8699951171875,28.43600082397461 -168.8699951171875,15.720999717712402 C-168.8699951171875,15.720999717712402 -168.8699951171875,-38.742000579833984 -168.8699951171875,-38.742000579833984"></path></g></g><g transform="matrix(1,0,0,1,899.468994140625,335.28143310546875)" opacity="1" style="display: block;"><g opacity="1" transform="matrix(1,0,0,1,19.770000457763672,19.770000457763672)"><path fill="#F89E3C" fill-opacity="1" d=" M0,-19.520000457763672 C10.781000137329102,-19.520000457763672 19.520999908447266,-10.781000137329102 19.520999908447266,0 C19.520999908447266,10.781000137329102 10.781000137329102,19.520000457763672 0,19.520000457763672 C-10.779999732971191,19.520000457763672 -19.520999908447266,10.781000137329102 -19.520999908447266,0 C-19.520999908447266,-10.781000137329102 -10.779999732971191,-19.520000457763672 0,-19.520000457763672z"></path></g></g><g transform="matrix(1,0,0,1,574.3040161132812,203.36001586914062)" opacity="1" style="display: block;"><g opacity="1" transform="matrix(1,0,0,1,95.67500305175781,82.65499877929688)"><path fill="#F89241" fill-opacity="1" d=" M-95.41500091552734,-60.71500015258789 C-95.41500091552734,-72.69499969482422 -85.70500183105469,-82.40499877929688 -73.7249984741211,-82.40499877929688 C-73.7249984741211,-82.40499877929688 73.73500061035156,-82.40499877929688 73.73500061035156,-82.40499877929688 C85.71499633789062,-82.40499877929688 95.42500305175781,-72.69499969482422 95.42500305175781,-60.71500015258789 C95.42500305175781,-60.71500015258789 95.42500305175781,34.69499969482422 95.42500305175781,34.69499969482422 C95.42500305175781,46.67499923706055 85.71499633789062,56.3849983215332 73.73500061035156,56.3849983215332 C73.73500061035156,56.3849983215332 -56.3849983215332,56.3849983215332 -56.3849983215332,56.3849983215332 C-56.3849983215332,56.3849983215332 -82.40499877929688,82.40499877929688 -82.40499877929688,82.40499877929688 C-82.40499877929688,82.40499877929688 -94.99500274658203,82.40499877929688 -94.99500274658203,82.40499877929688 C-94.99500274658203,82.40499877929688 -95.42500305175781,56.3849983215332 -95.42500305175781,56.3849983215332 C-95.42500305175781,56.3849983215332 -95.42500305175781,-60.71500015258789 -95.42500305175781,-60.71500015258789 C-95.42500305175781,-60.71500015258789 -95.41500091552734,-60.71500015258789 -95.41500091552734,-60.71500015258789z"></path></g><g opacity="1" transform="matrix(1,0,0,1,108.74400329589844,82.78600311279297)"><path fill="url(&quot;#__lottie_element_1874&quot;)" fill-opacity="1" d=" M-95.63500213623047,-60.71500015258789 C-95.63500213623047,-72.69499969482422 -85.92500305175781,-82.40499877929688 -73.94499969482422,-82.40499877929688 C-73.94499969482422,-82.40499877929688 73.94499969482422,-82.40499877929688 73.94499969482422,-82.40499877929688 C85.92500305175781,-82.40499877929688 95.63500213623047,-72.69499969482422 95.63500213623047,-60.71500015258789 C95.63500213623047,-60.71500015258789 95.63500213623047,34.69499969482422 95.63500213623047,34.69499969482422 C95.63500213623047,46.67499923706055 85.92500305175781,56.3849983215332 73.94499969482422,56.3849983215332 C73.94499969482422,56.3849983215332 -69.18499755859375,56.3849983215332 -69.18499755859375,56.3849983215332 C-69.18499755859375,56.3849983215332 -95.20500183105469,82.40499877929688 -95.20500183105469,82.40499877929688 C-95.20500183105469,82.40499877929688 -95.63500213623047,56.3849983215332 -95.63500213623047,56.3849983215332 C-95.63500213623047,56.3849983215332 -95.63500213623047,-60.71500015258789 -95.63500213623047,-60.71500015258789z"></path></g><g opacity="1" transform="matrix(1,0,0,1,102.56700134277344,45.35300064086914)"><path fill="#FFFFFF" fill-opacity="0.7" d=" M64.87000274658203,0 C64.87000274658203,0 64.87000274658203,0 64.87000274658203,0 C64.87000274658203,2.4835500717163086 62.853553771972656,4.5 60.37000274658203,4.5 C60.37000274658203,4.5 -60.37000274658203,4.5 -60.37000274658203,4.5 C-62.853553771972656,4.5 -64.87000274658203,2.4835500717163086 -64.87000274658203,0 C-64.87000274658203,0 -64.87000274658203,0 -64.87000274658203,0 C-64.87000274658203,-2.4835500717163086 -62.853553771972656,-4.5 -60.37000274658203,-4.5 C-60.37000274658203,-4.5 60.37000274658203,-4.5 60.37000274658203,-4.5 C62.853553771972656,-4.5 64.87000274658203,-2.4835500717163086 64.87000274658203,0z"></path></g><g opacity="1" transform="matrix(1,0,0,1,76.24700164794922,71.63300323486328)"><path fill="#FFFFFF" fill-opacity="0.7" d=" M39.1619987487793,0 C39.1619987487793,0 39.1619987487793,0 39.1619987487793,0 C39.1619987487793,2.479686737060547 37.148685455322266,4.493000030517578 34.66899871826172,4.493000030517578 C34.66899871826172,4.493000030517578 -34.66899871826172,4.493000030517578 -34.66899871826172,4.493000030517578 C-37.148685455322266,4.493000030517578 -39.1619987487793,2.479686737060547 -39.1619987487793,0 C-39.1619987487793,0 -39.1619987487793,0 -39.1619987487793,0 C-39.1619987487793,-2.479686737060547 -37.148685455322266,-4.493000030517578 -34.66899871826172,-4.493000030517578 C-34.66899871826172,-4.493000030517578 34.66899871826172,-4.493000030517578 34.66899871826172,-4.493000030517578 C37.148685455322266,-4.493000030517578 39.1619987487793,-2.479686737060547 39.1619987487793,0z"></path></g><g opacity="1" transform="matrix(1,0,0,1,93.75399780273438,98.01399993896484)"><path fill="#FFFFFF" fill-opacity="0.7" d=" M57.057498931884766,0 C57.057498931884766,0 57.057498931884766,0 57.057498931884766,0 C57.057498931884766,2.4835500717163086 55.04104995727539,4.5 52.557498931884766,4.5 C52.557498931884766,4.5 -52.557498931884766,4.5 -52.557498931884766,4.5 C-55.04104995727539,4.5 -57.057498931884766,2.4835500717163086 -57.057498931884766,0 C-57.057498931884766,0 -57.057498931884766,0 -57.057498931884766,0 C-57.057498931884766,-2.4835500717163086 -55.04104995727539,-4.5 -52.557498931884766,-4.5 C-52.557498931884766,-4.5 52.557498931884766,-4.5 52.557498931884766,-4.5 C55.04104995727539,-4.5 57.057498931884766,-2.4835500717163086 57.057498931884766,0z"></path></g></g><g transform="matrix(1,0,0,1,338.42999267578125,177.33999633789062)" opacity="1" style="display: block;"><g opacity="1" transform="matrix(1,0,0,1,95.67500305175781,82.65499877929688)"><path fill="#416AB3" fill-opacity="1" d=" M-95.41500091552734,-60.71500015258789 C-95.41500091552734,-72.69499969482422 -85.70500183105469,-82.40499877929688 -73.7249984741211,-82.40499877929688 C-73.7249984741211,-82.40499877929688 73.73500061035156,-82.40499877929688 73.73500061035156,-82.40499877929688 C85.71499633789062,-82.40499877929688 95.42500305175781,-72.69499969482422 95.42500305175781,-60.71500015258789 C95.42500305175781,-60.71500015258789 95.42500305175781,34.69499969482422 95.42500305175781,34.69499969482422 C95.42500305175781,46.67499923706055 85.71499633789062,56.3849983215332 73.73500061035156,56.3849983215332 C73.73500061035156,56.3849983215332 -56.3849983215332,56.3849983215332 -56.3849983215332,56.3849983215332 C-56.3849983215332,56.3849983215332 -82.40499877929688,82.40499877929688 -82.40499877929688,82.40499877929688 C-82.40499877929688,82.40499877929688 -94.99500274658203,82.40499877929688 -94.99500274658203,82.40499877929688 C-94.99500274658203,82.40499877929688 -95.42500305175781,56.3849983215332 -95.42500305175781,56.3849983215332 C-95.42500305175781,56.3849983215332 -95.42500305175781,-60.71500015258789 -95.42500305175781,-60.71500015258789 C-95.42500305175781,-60.71500015258789 -95.41500091552734,-60.71500015258789 -95.41500091552734,-60.71500015258789z"></path></g><g opacity="1" transform="matrix(1,0,0,1,108.4749984741211,82.65499877929688)"><path fill="url(&quot;#__lottie_element_1870&quot;)" fill-opacity="1" d=" M-95.63500213623047,-60.71500015258789 C-95.63500213623047,-72.69499969482422 -85.92500305175781,-82.40499877929688 -73.94499969482422,-82.40499877929688 C-73.94499969482422,-82.40499877929688 73.94499969482422,-82.40499877929688 73.94499969482422,-82.40499877929688 C85.92500305175781,-82.40499877929688 95.63500213623047,-72.69499969482422 95.63500213623047,-60.71500015258789 C95.63500213623047,-60.71500015258789 95.63500213623047,34.69499969482422 95.63500213623047,34.69499969482422 C95.63500213623047,46.67499923706055 85.92500305175781,56.3849983215332 73.94499969482422,56.3849983215332 C73.94499969482422,56.3849983215332 -69.18499755859375,56.3849983215332 -69.18499755859375,56.3849983215332 C-69.18499755859375,56.3849983215332 -95.20500183105469,82.40499877929688 -95.20500183105469,82.40499877929688 C-95.20500183105469,82.40499877929688 -95.63500213623047,56.3849983215332 -95.63500213623047,56.3849983215332 C-95.63500213623047,56.3849983215332 -95.63500213623047,-60.71500015258789 -95.63500213623047,-60.71500015258789z"></path></g><g opacity="1" transform="matrix(1,0,0,1,71.81999969482422,67.47000122070312)"><path fill="#EEF4F9" fill-opacity="1" d=" M0,-6.510000228881836 C3.5950000286102295,-6.510000228881836 6.510000228881836,-3.5950000286102295 6.510000228881836,0 C6.510000228881836,3.5950000286102295 3.5950000286102295,6.510000228881836 0,6.510000228881836 C-3.5950000286102295,6.510000228881836 -6.510000228881836,3.5950000286102295 -6.510000228881836,0 C-6.510000228881836,-3.5950000286102295 -3.5950000286102295,-6.510000228881836 0,-6.510000228881836z"></path></g><g opacity="1" transform="matrix(1,0,0,1,110.8499984741211,67.47000122070312)"><path fill="#EEF4F9" fill-opacity="1" d=" M0,-6.510000228881836 C3.5959999561309814,-6.510000228881836 6.510000228881836,-3.5950000286102295 6.510000228881836,0 C6.510000228881836,3.5950000286102295 3.5959999561309814,6.510000228881836 0,6.510000228881836 C-3.5950000286102295,6.510000228881836 -6.510000228881836,3.5950000286102295 -6.510000228881836,0 C-6.510000228881836,-3.5950000286102295 -3.5950000286102295,-6.510000228881836 0,-6.510000228881836z"></path></g><g opacity="1" transform="matrix(1,0,0,1,149.88999938964844,67.47000122070312)"><path fill="#EEF4F9" fill-opacity="1" d=" M0,-6.510000228881836 C3.5959999561309814,-6.510000228881836 6.510000228881836,-3.5950000286102295 6.510000228881836,0 C6.510000228881836,3.5950000286102295 3.5959999561309814,6.510000228881836 0,6.510000228881836 C-3.5950000286102295,6.510000228881836 -6.510000228881836,3.5950000286102295 -6.510000228881836,0 C-6.510000228881836,-3.5950000286102295 -3.5950000286102295,-6.510000228881836 0,-6.510000228881836z"></path></g></g><g transform="matrix(1,0,0,1,442.8499755859375,101.43999481201172)" opacity="1" style="display: block;"><g opacity="1" transform="matrix(1,0,0,1,49.375,119.33000183105469)"><path fill="#221F1F" fill-opacity="0.35" d=" M37.755001068115234,43.560001373291016 C41.69499969482422,43.560001373291016 45.564998626708984,43.27000045776367 49.375,42.77000045776367 C49.375,42.77000045776367 49.375,25.15999984741211 49.375,25.15999984741211 C45.595001220703125,25.790000915527344 41.71500015258789,26.139999389648438 37.755001068115234,26.139999389648438 C-0.7450000047683716,26.139999389648438 -31.94499969482422,-5.070000171661377 -31.94499969482422,-43.560001373291016 C-31.94499969482422,-43.560001373291016 -49.375,-43.560001373291016 -49.375,-43.560001373291016 C-49.3650016784668,4.550000190734863 -10.364999771118164,43.560001373291016 37.755001068115234,43.560001373291016z"></path></g><g opacity="1" transform="matrix(1,0,0,1,107.31500244140625,127.88999938964844)"><path fill="#B3B9BC" fill-opacity="1" d=" M-20.184999465942383,-11.470000267028809 C-20.184999465942383,-11.470000267028809 -20.184999465942383,23.3799991607666 -20.184999465942383,23.3799991607666 C-20.184999465942383,23.3799991607666 20.184999465942383,-23.3799991607666 20.184999465942383,-23.3799991607666 C20.184999465942383,-23.3799991607666 8.5649995803833,-23.3799991607666 8.5649995803833,-23.3799991607666 C1.215000033378601,-16.020000457763672 -8.954999923706055,-11.470000267028809 -20.184999465942383,-11.470000267028809z"></path></g><g opacity="1" transform="matrix(1,0,0,1,66.24500274658203,127.88999938964844)"><path fill="#C31E3B" fill-opacity="1" d=" M-7.864999771118164,-23.3799991607666 C-7.864999771118164,-23.3799991607666 -32.505001068115234,1.2599999904632568 -32.505001068115234,1.2599999904632568 C-18.844999313354492,14.920000076293945 0.03500000014901161,23.3799991607666 20.885000228881836,23.3799991607666 C20.885000228881836,23.3799991607666 32.505001068115234,23.3799991607666 32.505001068115234,23.3799991607666 C32.505001068115234,23.3799991607666 -7.864999771118164,-23.3799991607666 -7.864999771118164,-23.3799991607666z"></path></g><g opacity="1" transform="matrix(1,0,0,1,29.045000076293945,102.45500183105469)"><path fill="#6B797E" fill-opacity="1" d=" M17.424999237060547,-26.69499969482422 C17.424999237060547,-26.69499969482422 -17.424999237060547,-26.69499969482422 -17.424999237060547,-26.69499969482422 C-17.424999237060547,-5.84499979019165 -8.975000381469727,13.03499984741211 4.695000171661377,26.69499969482422 C4.695000171661377,26.69499969482422 16.315000534057617,26.69499969482422 16.315000534057617,26.69499969482422 C16.315000534057617,26.69499969482422 17.424999237060547,-26.69499969482422 17.424999237060547,-26.69499969482422z"></path></g><g opacity="1" transform="matrix(1,0,0,1,139.25999450683594,90.13500213623047)"><path fill="#A11A3E" fill-opacity="1" d=" M-11.470000267028809,-14.375 C-11.470000267028809,-3.1449999809265137 -16.020000457763672,7.014999866485596 -23.3799991607666,14.375 C-23.3799991607666,14.375 -11.760000228881836,14.375 -11.760000228881836,14.375 C-11.760000228881836,14.375 23.3799991607666,-14.375 23.3799991607666,-14.375 C23.3799991607666,-14.375 -11.470000267028809,-14.375 -11.470000267028809,-14.375z"></path></g><g opacity="1" transform="matrix(1,0,0,1,107.31500244140625,23.6299991607666)"><path fill="#A11A3E" fill-opacity="1" d=" M8.5649995803833,23.3799991607666 C8.5649995803833,23.3799991607666 20.184999465942383,23.3799991607666 20.184999465942383,23.3799991607666 C20.184999465942383,23.3799991607666 -20.184999465942383,-23.3799991607666 -20.184999465942383,-23.3799991607666 C-20.184999465942383,-23.3799991607666 -20.184999465942383,11.470000267028809 -20.184999465942383,11.470000267028809 C-8.954999923706055,11.470000267028809 1.215000033378601,16.020000457763672 8.5649995803833,23.3799991607666z"></path></g><g opacity="1" transform="matrix(1,0,0,1,139.25999450683594,61.3849983215332)"><path fill="#B3B9BC" fill-opacity="1" d=" M-11.470000267028809,14.375 C-11.470000267028809,14.375 23.3799991607666,14.375 23.3799991607666,14.375 C23.3799991607666,14.375 -11.760000228881836,-14.375 -11.760000228881836,-14.375 C-11.760000228881836,-14.375 -23.3799991607666,-14.375 -23.3799991607666,-14.375 C-16.020000457763672,-7.014999866485596 -11.470000267028809,3.1449999809265137 -11.470000267028809,14.375z"></path></g><g opacity="1" transform="matrix(1,0,0,1,29.045000076293945,49.064998626708984)"><path fill="#C31E3B" fill-opacity="1" d=" M16.315000534057617,-26.69499969482422 C16.315000534057617,-26.69499969482422 4.695000171661377,-26.69499969482422 4.695000171661377,-26.69499969482422 C-8.96500015258789,-13.03499984741211 -17.424999237060547,5.84499979019165 -17.424999237060547,26.69499969482422 C-17.424999237060547,26.69499969482422 17.424999237060547,26.69499969482422 17.424999237060547,26.69499969482422 C17.424999237060547,26.69499969482422 16.315000534057617,-26.69499969482422 16.315000534057617,-26.69499969482422z"></path></g><g opacity="1" transform="matrix(1,0,0,1,66.24500274658203,17.674999237060547)"><path fill="#6B797E" fill-opacity="1" d=" M20.885000228881836,17.424999237060547 C20.885000228881836,17.424999237060547 32.505001068115234,-17.424999237060547 32.505001068115234,-17.424999237060547 C32.505001068115234,-17.424999237060547 20.885000228881836,-17.424999237060547 20.885000228881836,-17.424999237060547 C0.03500000014901161,-17.424999237060547 -18.844999313354492,-8.975000381469727 -32.505001068115234,4.695000171661377 C-32.505001068115234,4.695000171661377 -20.885000228881836,4.695000171661377 -20.885000228881836,4.695000171661377 C-20.885000228881836,4.695000171661377 20.885000228881836,17.424999237060547 20.885000228881836,17.424999237060547z"></path></g><g opacity="1" transform="matrix(1,0,0,1,125.44499969482422,127.88999938964844)"><path fill="#C5D7E1" fill-opacity="1" d=" M-26.69499969482422,-11.470000267028809 C-26.69499969482422,-11.470000267028809 -26.69499969482422,23.3799991607666 -26.69499969482422,23.3799991607666 C-5.84499979019165,23.3799991607666 13.03499984741211,14.930000305175781 26.69499969482422,1.2599999904632568 C26.69499969482422,1.2599999904632568 2.055000066757202,-23.3799991607666 2.055000066757202,-23.3799991607666 C-5.304999828338623,-16.020000457763672 -15.46500015258789,-11.470000267028809 -26.69499969482422,-11.470000267028809z"></path></g><g opacity="1" transform="matrix(1,0,0,1,72.05500030517578,127.88999938964844)"><path fill="#E02C3C" fill-opacity="1" d=" M-2.055000066757202,-23.3799991607666 C-2.055000066757202,-23.3799991607666 -26.69499969482422,1.2599999904632568 -26.69499969482422,1.2599999904632568 C-13.03499984741211,14.920000076293945 5.84499979019165,23.3799991607666 26.69499969482422,23.3799991607666 C26.69499969482422,23.3799991607666 26.69499969482422,-11.470000267028809 26.69499969482422,-11.470000267028809 C15.46500015258789,-11.470000267028809 5.304999828338623,-16.020000457763672 -2.055000066757202,-23.3799991607666z"></path></g><g opacity="1" transform="matrix(1,0,0,1,46.619998931884766,102.45500183105469)"><path fill="#C5D7E1" fill-opacity="1" d=" M11.470000267028809,-26.69499969482422 C11.470000267028809,-26.69499969482422 -23.3799991607666,-26.69499969482422 -23.3799991607666,-26.69499969482422 C-23.3799991607666,-5.84499979019165 -14.930000305175781,13.03499984741211 -1.2599999904632568,26.69499969482422 C-1.2599999904632568,26.69499969482422 23.3799991607666,2.055000066757202 23.3799991607666,2.055000066757202 C16.020000457763672,-5.295000076293945 11.470000267028809,-15.46500015258789 11.470000267028809,-26.69499969482422z"></path></g><g opacity="1" transform="matrix(1,0,0,1,150.88499450683594,102.45999908447266)"><path fill="#E02C3C" fill-opacity="1" d=" M-11.475000381469727,-26.700000762939453 C-11.475000381469727,-15.470000267028809 -16.024999618530273,-5.309999942779541 -23.385000228881836,2.049999952316284 C-23.385000228881836,2.049999952316284 1.2649999856948853,26.700000762939453 1.2649999856948853,26.700000762939453 C14.925000190734863,13.039999961853027 23.385000228881836,-5.840000152587891 23.385000228881836,-26.690000534057617 C23.385000228881836,-26.690000534057617 -11.475000381469727,-26.690000534057617 -11.475000381469727,-26.690000534057617 C-11.475000381469727,-26.690000534057617 -11.475000381469727,-26.700000762939453 -11.475000381469727,-26.700000762939453z"></path></g><g opacity="1" transform="matrix(1,0,0,1,125.45500183105469,23.6299991607666)"><path fill="#E02C3C" fill-opacity="1" d=" M2.0450000762939453,23.3799991607666 C2.0450000762939453,23.3799991607666 26.69499969482422,-1.2599999904632568 26.69499969482422,-1.2599999904632568 C13.03499984741211,-14.920000076293945 -5.84499979019165,-23.3799991607666 -26.69499969482422,-23.3799991607666 C-26.69499969482422,-23.3799991607666 -26.69499969482422,11.470000267028809 -26.69499969482422,11.470000267028809 C-15.475000381469727,11.470000267028809 -5.315000057220459,16.020000457763672 2.0450000762939453,23.3799991607666z"></path></g><g opacity="1" transform="matrix(1,0,0,1,150.8800048828125,49.064998626708984)"><path fill="#C5D7E1" fill-opacity="1" d=" M-11.470000267028809,26.69499969482422 C-11.470000267028809,26.69499969482422 23.3799991607666,26.69499969482422 23.3799991607666,26.69499969482422 C23.3799991607666,5.84499979019165 14.930000305175781,-13.03499984741211 1.2599999904632568,-26.69499969482422 C1.2599999904632568,-26.69499969482422 -23.3799991607666,-2.055000066757202 -23.3799991607666,-2.055000066757202 C-16.020000457763672,5.304999828338623 -11.470000267028809,15.46500015258789 -11.470000267028809,26.69499969482422z"></path></g><g opacity="1" transform="matrix(1,0,0,1,46.619998931884766,49.064998626708984)"><path fill="#E02C3C" fill-opacity="1" d=" M23.3799991607666,-2.055000066757202 C23.3799991607666,-2.055000066757202 -1.2599999904632568,-26.69499969482422 -1.2599999904632568,-26.69499969482422 C-14.920000076293945,-13.03499984741211 -23.3799991607666,5.84499979019165 -23.3799991607666,26.69499969482422 C-23.3799991607666,26.69499969482422 11.470000267028809,26.69499969482422 11.470000267028809,26.69499969482422 C11.470000267028809,15.46500015258789 16.020000457763672,5.304999828338623 23.3799991607666,-2.055000066757202z"></path></g><g opacity="1" transform="matrix(1,0,0,1,72.05500030517578,23.6299991607666)"><path fill="#C5D7E1" fill-opacity="1" d=" M26.69499969482422,11.470000267028809 C26.69499969482422,11.470000267028809 26.69499969482422,-23.3799991607666 26.69499969482422,-23.3799991607666 C5.84499979019165,-23.3799991607666 -13.03499984741211,-14.930000305175781 -26.69499969482422,-1.2599999904632568 C-26.69499969482422,-1.2599999904632568 -2.055000066757202,23.3799991607666 -2.055000066757202,23.3799991607666 C5.304999828338623,16.020000457763672 15.46500015258789,11.470000267028809 26.69499969482422,11.470000267028809z"></path></g></g><g transform="matrix(1,0,0,1,154.1099853515625,205.5299835205078)" opacity="1" style="display: block;"><g opacity="1" transform="matrix(1,0,0,1,104.55999755859375,91.33000183105469)"><path fill="#780765" fill-opacity="1" d=" M-104.30000305175781,-69.38999938964844 C-104.30000305175781,-81.37000274658203 -94.58999633789062,-91.08000183105469 -82.61000061035156,-91.08000183105469 C-82.61000061035156,-91.08000183105469 82.62000274658203,-91.08000183105469 82.62000274658203,-91.08000183105469 C94.5999984741211,-91.08000183105469 104.30999755859375,-81.37000274658203 104.30999755859375,-69.38999938964844 C104.30999755859375,-69.38999938964844 104.30999755859375,43.369998931884766 104.30999755859375,43.369998931884766 C104.30999755859375,55.349998474121094 94.5999984741211,65.05999755859375 82.62000274658203,65.05999755859375 C82.62000274658203,65.05999755859375 -65.2699966430664,65.05999755859375 -65.2699966430664,65.05999755859375 C-65.2699966430664,65.05999755859375 -91.29000091552734,91.08000183105469 -91.29000091552734,91.08000183105469 C-91.29000091552734,91.08000183105469 -103.87999725341797,91.08000183105469 -103.87999725341797,91.08000183105469 C-103.87999725341797,91.08000183105469 -104.30999755859375,65.05999755859375 -104.30999755859375,65.05999755859375 C-104.30999755859375,65.05999755859375 -104.30999755859375,-69.38999938964844 -104.30999755859375,-69.38999938964844 C-104.30999755859375,-69.38999938964844 -104.30000305175781,-69.38999938964844 -104.30000305175781,-69.38999938964844z"></path></g><g opacity="1" transform="matrix(1,0,0,1,117.1449966430664,91.33000183105469)"><path fill="#A52390" fill-opacity="1" d=" M-104.30500030517578,-69.38999938964844 C-104.30500030517578,-81.37000274658203 -94.59500122070312,-91.08000183105469 -82.61499786376953,-91.08000183105469 C-82.61499786376953,-91.08000183105469 82.61499786376953,-91.08000183105469 82.61499786376953,-91.08000183105469 C94.59500122070312,-91.08000183105469 104.30500030517578,-81.37000274658203 104.30500030517578,-69.38999938964844 C104.30500030517578,-69.38999938964844 104.30500030517578,43.369998931884766 104.30500030517578,43.369998931884766 C104.30500030517578,55.349998474121094 94.59500122070312,65.05999755859375 82.61499786376953,65.05999755859375 C82.61499786376953,65.05999755859375 -77.8550033569336,65.05999755859375 -77.8550033569336,65.05999755859375 C-77.8550033569336,65.05999755859375 -103.875,91.08000183105469 -103.875,91.08000183105469 C-103.875,91.08000183105469 -104.30500030517578,65.05999755859375 -104.30500030517578,65.05999755859375 C-104.30500030517578,65.05999755859375 -104.30500030517578,-69.38999938964844 -104.30500030517578,-69.38999938964844z"></path></g><g opacity="1" transform="matrix(1,0,0,1,117.81999969482422,61.58000183105469)"><path fill="#FCE1E2" fill-opacity="1" d=" M32,-11.361000061035156 C30.989999771118164,-27.56100082397461 17.809999465942383,-40.7400016784668 1.6100000143051147,-41.75 C-14.630000114440918,-42.7599983215332 -28.510000228881836,-31.840999603271484 -32.09000015258789,-16.92099952697754 C-33.029998779296875,-13.020999908447266 -29.959999084472656,-9.289999961853027 -25.950000762939453,-9.289999961853027 C-25.950000762939453,-9.289999961853027 -25.489999771118164,-9.289999961853027 -25.489999771118164,-9.289999961853027 C-22.559999465942383,-9.289999961853027 -20.100000381469727,-11.34000015258789 -19.360000610351562,-14.180000305175781 C-17.010000228881836,-23.270000457763672 -8.289999961853027,-29.790000915527344 1.7599999904632568,-28.68000030517578 C10.699999809265137,-27.690000534057617 17.940000534057617,-20.450000762939453 18.93000030517578,-11.510000228881836 C20.229999542236328,0.25999999046325684 11.050000190734863,10.229999542236328 -0.46000000834465027,10.229999542236328 C-0.46000000834465027,10.229999542236328 -0.46000000834465027,10.298999786376953 -0.46000000834465027,10.298999786376953 C-4.110000133514404,10.668999671936035 -6.96999979019165,13.710000038146973 -6.96999979019165,17.459999084472656 C-6.96999979019165,17.459999084472656 -6.96999979019165,36.249000549316406 -6.96999979019165,36.249000549316406 C-6.96999979019165,39.8390007019043 -4.059999942779541,42.7599983215332 -0.46000000834465027,42.7599983215332 C3.140000104904175,42.7599983215332 6.050000190734863,39.8489990234375 6.050000190734863,36.249000549316406 C6.050000190734863,36.249000549316406 6.050000190734863,22.59000015258789 6.050000190734863,22.59000015258789 C21.540000915527344,19.440000534057617 33.029998779296875,5.289000034332275 32,-11.361000061035156z"></path></g><g opacity="1" transform="matrix(1,0,0,1,117.36000061035156,123.86000061035156)"><path fill="#FCE1E2" fill-opacity="1" d=" M0,-6.510000228881836 C3.5950000286102295,-6.510000228881836 6.510000228881836,-3.5959999561309814 6.510000228881836,0 C6.510000228881836,3.5950000286102295 3.5950000286102295,6.510000228881836 0,6.510000228881836 C-3.5959999561309814,6.510000228881836 -6.510000228881836,3.5950000286102295 -6.510000228881836,0 C-6.510000228881836,-3.5959999561309814 -3.5959999561309814,-6.510000228881836 0,-6.510000228881836z"></path></g></g><g transform="matrix(1,0,0,1,600,290)" opacity="1" style="display: block;"></g></g></svg>