<svg xmlns:xlink="http://www.w3.org/1999/xlink" xmlns="http://www.w3.org/2000/svg" style="width: 24px; height: 24px; fill: var(--color-plus-700);" width="24"  height="24" ><defs><symbol id="return" xmlns="http://www.w3.org/2000/svg" viewBox="0 0 24 24"><path fill-rule="evenodd" d="M18 2H6l-.176.005A3 3 0 003 5v11l.005.176A3 3 0 006 19h1.1l.048.212A5.002 5.002 0 0017 18a5 5 0 00-4.601-4.984l1.308-1.309-1.414-1.414-3 3-.083.094a1 1 0 00.083 1.32l3 3 1.414-1.414-1.258-1.26A3 3 0 119 18a1 1 0 00-1-1H6l-.117-.007A1 1 0 015 16V5l.007-.117A1 1 0 016 4h2v5h8V4h2l.117.007A1 1 0 0119 5v11l-.007.117A1 1 0 0118 17v2l.176-.005A3 3 0 0021 16V5l-.005-.176A3 3 0 0018 2zm-8 2h4v3h-4V4z" clip-rule="evenodd"></path></symbol></defs><use xlink:href="#return" fill="#941B80"></use></svg>