<svg xmlns="http://www.w3.org/2000/svg" xmlns:xlink="http://www.w3.org/1999/xlink" viewBox="0 0 1200 580" width="1200" height="580" preserveAspectRatio="xMidYMid meet" style="width: 100%; height: 100%; transform: translate3d(0px, 0px, 0px); content-visibility: visible;"><defs><clipPath id="__lottie_element_1219"><rect width="1200" height="580" x="0" y="0"></rect></clipPath><linearGradient id="__lottie_element_1223" spreadMethod="pad" gradientUnits="userSpaceOnUse" x1="-28" y1="0" x2="28" y2="0"><stop offset="0%" stop-color="rgb(160,42,131)"></stop><stop offset="50%" stop-color="rgb(180,55,154)"></stop><stop offset="100%" stop-color="rgb(200,67,176)"></stop></linearGradient><g id="__lottie_element_1227"><g transform="matrix(17.469999313354492,0,0,1,401,239)" opacity="1" style="display: block;"><rect width="20" height="20" fill="#ffffff"></rect></g></g><mask id="__lottie_element_1227_1" mask-type="alpha"><use xlink:href="#__lottie_element_1227"></use></mask><g id="__lottie_element_1233"><g transform="matrix(6.900000095367432,0,0,1,401.5,224.5)" opacity="1" style="display: block;"><rect width="50" height="50" fill="#ffffff"></rect></g></g><linearGradient id="__lottie_element_1239" spreadMethod="pad" gradientUnits="userSpaceOnUse" x1="0" y1="0" x2="342" y2="0"><stop offset="0%" stop-color="rgb(255,173,52)"></stop><stop offset="50%" stop-color="rgb(255,173,52)"></stop><stop offset="100%" stop-color="rgb(255,173,52)"></stop></linearGradient><mask id="__lottie_element_1233_1" mask-type="alpha"><use xlink:href="#__lottie_element_1233"></use></mask><g id="__lottie_element_1240"><g transform="matrix(7.170000076293945,0,0,1,401.5,275)" opacity="1" style="display: block;"><rect width="50" height="50" fill="#ffffff"></rect></g></g><linearGradient id="__lottie_element_1246" spreadMethod="pad" gradientUnits="userSpaceOnUse" x1="0" y1="0" x2="342" y2="0"><stop offset="0%" stop-color="rgb(255,173,52)"></stop><stop offset="50%" stop-color="rgb(255,173,52)"></stop><stop offset="100%" stop-color="rgb(255,173,52)"></stop></linearGradient><mask id="__lottie_element_1240_1" mask-type="alpha"><use xlink:href="#__lottie_element_1240"></use></mask><g id="__lottie_element_1247"><g transform="matrix(7.190000057220459,0,0,1,401.5,325.5)" opacity="1" style="display: block;"><rect width="50" height="50" fill="#ffffff"></rect></g></g><linearGradient id="__lottie_element_1253" spreadMethod="pad" gradientUnits="userSpaceOnUse" x1="0" y1="0" x2="342" y2="0"><stop offset="0%" stop-color="rgb(255,173,52)"></stop><stop offset="50%" stop-color="rgb(255,173,52)"></stop><stop offset="100%" stop-color="rgb(255,173,52)"></stop></linearGradient><mask id="__lottie_element_1247_1" mask-type="alpha"><use xlink:href="#__lottie_element_1247"></use></mask><g id="__lottie_element_1254"><g transform="matrix(7.239999771118164,0,0,1,401.5,375)" opacity="1" style="display: block;"><rect width="50" height="50" fill="#ffffff"></rect></g></g><linearGradient id="__lottie_element_1260" spreadMethod="pad" gradientUnits="userSpaceOnUse" x1="0" y1="0" x2="342" y2="0"><stop offset="0%" stop-color="rgb(255,173,52)"></stop><stop offset="50%" stop-color="rgb(255,173,52)"></stop><stop offset="100%" stop-color="rgb(255,173,52)"></stop></linearGradient><mask id="__lottie_element_1254_1" mask-type="alpha"><use xlink:href="#__lottie_element_1254"></use></mask><g id="__lottie_element_1261"><g transform="matrix(2.0299999713897705,0,0,1,401.5,424.5)" opacity="1" style="display: block;"><rect width="50" height="50" fill="#ffffff"></rect></g></g><linearGradient id="__lottie_element_1267" spreadMethod="pad" gradientUnits="userSpaceOnUse" x1="0" y1="0" x2="342" y2="0"><stop offset="0%" stop-color="rgb(255,173,52)"></stop><stop offset="50%" stop-color="rgb(255,173,52)"></stop><stop offset="100%" stop-color="rgb(255,173,52)"></stop></linearGradient><mask id="__lottie_element_1261_1" mask-type="alpha"><use xlink:href="#__lottie_element_1261"></use></mask><linearGradient id="__lottie_element_1274" spreadMethod="pad" gradientUnits="userSpaceOnUse" x1="-180" y1="0" x2="177" y2="0"><stop offset="0%" stop-color="rgb(63,165,161)"></stop><stop offset="50%" stop-color="rgb(108,186,172)"></stop><stop offset="100%" stop-color="rgb(152,206,182)"></stop></linearGradient><linearGradient id="__lottie_element_1275" spreadMethod="pad" gradientUnits="userSpaceOnUse" x1="-175" y1="0" x2="179" y2="0"><stop offset="0%" stop-color="rgb(214,236,211)"></stop><stop offset="50%" stop-color="rgb(235,246,233)"></stop><stop offset="100%" stop-color="rgb(255,255,255)"></stop></linearGradient><linearGradient id="__lottie_element_1279" spreadMethod="pad" gradientUnits="userSpaceOnUse" x1="-40" y1="0" x2="40" y2="0"><stop offset="0%" stop-color="rgb(160,42,131)"></stop><stop offset="50%" stop-color="rgb(180,55,154)"></stop><stop offset="100%" stop-color="rgb(200,67,176)"></stop></linearGradient><linearGradient id="__lottie_element_1292" spreadMethod="pad" gradientUnits="userSpaceOnUse" x1="-44" y1="0" x2="921" y2="0"><stop offset="0%" stop-color="rgb(255,255,255)"></stop><stop offset="24%" stop-color="rgb(205,230,227)"></stop><stop offset="49%" stop-color="rgb(155,205,199)"></stop><stop offset="74%" stop-color="rgb(205,230,227)"></stop><stop offset="100%" stop-color="rgb(255,255,255)"></stop></linearGradient><linearGradient id="__lottie_element_1296" spreadMethod="pad" gradientUnits="userSpaceOnUse" x1="0" y1="0" x2="1100" y2="0"><stop offset="0%" stop-color="rgb(255,255,255)"></stop><stop offset="25%" stop-color="rgb(148,148,148)"></stop><stop offset="50%" stop-color="rgb(41,41,41)"></stop><stop offset="75%" stop-color="rgb(148,148,148)"></stop><stop offset="100%" stop-color="rgb(255,255,255)"></stop></linearGradient><linearGradient id="__lottie_element_1296" spreadMethod="pad" gradientUnits="userSpaceOnUse" x1="0" y1="0" x2="1100" y2="0"><stop offset="0%" stop-color="rgb(255,255,255)"></stop><stop offset="25%" stop-color="rgb(148,148,148)"></stop><stop offset="50%" stop-color="rgb(41,41,41)"></stop><stop offset="75%" stop-color="rgb(148,148,148)"></stop><stop offset="100%" stop-color="rgb(255,255,255)"></stop></linearGradient><linearGradient id="__lottie_element_1292" spreadMethod="pad" gradientUnits="userSpaceOnUse" x1="-44" y1="0" x2="921" y2="0"><stop offset="0%" stop-color="rgb(255,255,255)"></stop><stop offset="24%" stop-color="rgb(205,230,227)"></stop><stop offset="49%" stop-color="rgb(155,205,199)"></stop><stop offset="74%" stop-color="rgb(205,230,227)"></stop><stop offset="100%" stop-color="rgb(255,255,255)"></stop></linearGradient><linearGradient id="__lottie_element_1279" spreadMethod="pad" gradientUnits="userSpaceOnUse" x1="-40" y1="0" x2="40" y2="0"><stop offset="0%" stop-color="rgb(160,42,131)"></stop><stop offset="50%" stop-color="rgb(180,55,154)"></stop><stop offset="100%" stop-color="rgb(200,67,176)"></stop></linearGradient><linearGradient id="__lottie_element_1274" spreadMethod="pad" gradientUnits="userSpaceOnUse" x1="-180" y1="0" x2="177" y2="0"><stop offset="0%" stop-color="rgb(63,165,161)"></stop><stop offset="50%" stop-color="rgb(108,186,172)"></stop><stop offset="100%" stop-color="rgb(152,206,182)"></stop></linearGradient><linearGradient id="__lottie_element_1275" spreadMethod="pad" gradientUnits="userSpaceOnUse" x1="-175" y1="0" x2="179" y2="0"><stop offset="0%" stop-color="rgb(214,236,211)"></stop><stop offset="50%" stop-color="rgb(235,246,233)"></stop><stop offset="100%" stop-color="rgb(255,255,255)"></stop></linearGradient><linearGradient id="__lottie_element_1267" spreadMethod="pad" gradientUnits="userSpaceOnUse" x1="0" y1="0" x2="342" y2="0"><stop offset="0%" stop-color="rgb(255,173,52)"></stop><stop offset="50%" stop-color="rgb(255,173,52)"></stop><stop offset="100%" stop-color="rgb(255,173,52)"></stop></linearGradient><linearGradient id="__lottie_element_1260" spreadMethod="pad" gradientUnits="userSpaceOnUse" x1="0" y1="0" x2="342" y2="0"><stop offset="0%" stop-color="rgb(255,173,52)"></stop><stop offset="50%" stop-color="rgb(255,173,52)"></stop><stop offset="100%" stop-color="rgb(255,173,52)"></stop></linearGradient><linearGradient id="__lottie_element_1253" spreadMethod="pad" gradientUnits="userSpaceOnUse" x1="0" y1="0" x2="342" y2="0"><stop offset="0%" stop-color="rgb(255,173,52)"></stop><stop offset="50%" stop-color="rgb(255,173,52)"></stop><stop offset="100%" stop-color="rgb(255,173,52)"></stop></linearGradient><linearGradient id="__lottie_element_1246" spreadMethod="pad" gradientUnits="userSpaceOnUse" x1="0" y1="0" x2="342" y2="0"><stop offset="0%" stop-color="rgb(255,173,52)"></stop><stop offset="50%" stop-color="rgb(255,173,52)"></stop><stop offset="100%" stop-color="rgb(255,173,52)"></stop></linearGradient><linearGradient id="__lottie_element_1239" spreadMethod="pad" gradientUnits="userSpaceOnUse" x1="0" y1="0" x2="342" y2="0"><stop offset="0%" stop-color="rgb(255,173,52)"></stop><stop offset="50%" stop-color="rgb(255,173,52)"></stop><stop offset="100%" stop-color="rgb(255,173,52)"></stop></linearGradient><linearGradient id="__lottie_element_1223" spreadMethod="pad" gradientUnits="userSpaceOnUse" x1="-28" y1="0" x2="28" y2="0"><stop offset="0%" stop-color="rgb(160,42,131)"></stop><stop offset="50%" stop-color="rgb(180,55,154)"></stop><stop offset="100%" stop-color="rgb(200,67,176)"></stop></linearGradient><g id="__lottie_element_1227"><g transform="matrix(17.469999313354492,0,0,1,401,239)" opacity="1" style="display: block;"><rect width="20" height="20" fill="#ffffff"></rect></g></g><g id="__lottie_element_1233"><g transform="matrix(6.900000095367432,0,0,1,401.5,224.5)" opacity="1" style="display: block;"><rect width="50" height="50" fill="#ffffff"></rect></g></g><g id="__lottie_element_1240"><g transform="matrix(7.170000076293945,0,0,1,401.5,275)" opacity="1" style="display: block;"><rect width="50" height="50" fill="#ffffff"></rect></g></g><g id="__lottie_element_1247"><g transform="matrix(7.190000057220459,0,0,1,401.5,325.5)" opacity="1" style="display: block;"><rect width="50" height="50" fill="#ffffff"></rect></g></g><g id="__lottie_element_1254"><g transform="matrix(7.239999771118164,0,0,1,401.5,375)" opacity="1" style="display: block;"><rect width="50" height="50" fill="#ffffff"></rect></g></g><g id="__lottie_element_1261"><g transform="matrix(2.0299999713897705,0,0,1,401.5,424.5)" opacity="1" style="display: block;"><rect width="50" height="50" fill="#ffffff"></rect></g></g></defs><g clip-path="url(#__lottie_element_1219)"><g transform="matrix(1,0,0,1,20.697998046875,474.781005859375)" opacity="1" style="display: block;"><path fill="url(&quot;#__lottie_element_1296&quot;)" fill-opacity="1" d=" M1151.8470458984375,10.263999938964844 C1151.8470458984375,10.263999938964844 5.256999969482422,10.263999938964844 5.256999969482422,10.263999938964844 C2.492000102996826,10.263999938964844 0.25,8.02299976348877 0.25,5.256999969482422 C0.25,2.493000030517578 2.492000102996826,0.25 5.256999969482422,0.25 C5.256999969482422,0.25 1151.8470458984375,0.25 1151.8470458984375,0.25 C1154.613037109375,0.25 1156.85400390625,2.493000030517578 1156.85400390625,5.256999969482422 C1156.85400390625,8.02299976348877 1154.613037109375,10.263999938964844 1151.8470458984375,10.263999938964844z"></path></g><g transform="matrix(1,0,0,1,190.93402099609375,98.70399475097656)" opacity="1" style="display: block;"><path fill="url(&quot;#__lottie_element_1292&quot;)" fill-opacity="1" d=" M550.37,375.77 C550.37,375.77 591.07,375.77 591.07,375.77 C591.07,375.77 591.07,210.54 591.07,210.54 C591.07,210.54 550.37,210.54 550.37,210.54 C550.37,210.54 550.37,375.77 550.37,375.77z M89.1,302.54 C89.1,302.54 87.4,302.54 87.4,302.54 C87.4,302.54 95.16,275.96 95.16,275.96 C95.16,275.96 89.75,274.38 89.75,274.38 C89.75,274.38 81.53,302.54 81.53,302.54 C81.53,302.54 78.48,302.54 78.48,302.54 C78.48,302.54 78.48,274.38 78.48,274.38 C78.48,274.38 72.85,274.38 72.85,274.38 C72.85,274.38 72.85,302.54 72.85,302.54 C72.85,302.54 63.85,302.54 63.85,302.54 C63.85,302.54 55.61,280.01 55.61,280.01 C55.61,280.01 50.32,281.95 50.32,281.95 C50.32,281.95 57.85,302.54 57.85,302.54 C57.85,302.54 56.6,302.54 56.6,302.54 C53.13,302.54 50.32,305.36 50.32,308.82 C50.32,308.82 50.32,375.77 50.32,375.77 C50.32,375.77 95.38,375.77 95.38,375.77 C95.38,375.77 95.38,308.82 95.38,308.82 C95.38,305.36 92.57,302.54 89.1,302.54z M228.38,0.25 C228.38,0.25 155.95,0.25 155.95,0.25 C153.66,0.25 151.81,2.1 151.81,4.39 C151.81,4.39 151.81,76.82 151.81,76.82 C151.81,79.11 153.66,80.96 155.95,80.96 C155.95,80.96 228.38,80.96 228.38,80.96 C230.67,80.96 232.52,79.11 232.52,76.82 C232.52,76.82 232.52,4.39 232.52,4.39 C232.52,2.1 230.67,0.25 228.38,0.25z M220.1,68.54 C220.1,68.54 164.23,68.54 164.23,68.54 C164.23,68.54 164.23,12.67 164.23,12.67 C164.23,12.67 220.1,12.67 220.1,12.67 C220.1,12.67 220.1,68.54 220.1,68.54z M228.38,95.38 C228.38,95.38 155.95,95.38 155.95,95.38 C153.66,95.38 151.81,97.24 151.81,99.52 C151.81,99.52 151.81,196.39 151.81,196.39 C151.81,198.68 153.66,200.53 155.95,200.53 C155.95,200.53 228.38,200.53 228.38,200.53 C230.67,200.53 232.52,198.68 232.52,196.39 C232.52,196.39 232.52,99.52 232.52,99.52 C232.52,97.24 230.67,95.38 228.38,95.38z M220.1,188.11 C220.1,188.11 164.23,188.11 164.23,188.11 C164.23,188.11 164.23,107.8 164.23,107.8 C164.23,107.8 220.1,107.8 220.1,107.8 C220.1,107.8 220.1,188.11 220.1,188.11z M133.7,17.88 C133.7,17.88 24.42,17.88 24.42,17.88 C22.13,17.88 20.28,19.73 20.28,22.01 C20.28,22.01 20.28,168.75 20.28,168.75 C20.28,171.04 22.13,172.89 24.42,172.89 C24.42,172.89 133.7,172.89 133.7,172.89 C135.99,172.89 137.84,171.04 137.84,168.75 C137.84,168.75 137.84,22.01 137.84,22.01 C137.84,19.73 135.99,17.88 133.7,17.88z M125.42,160.47 C125.42,160.47 32.69,160.47 32.69,160.47 C32.69,160.47 32.69,30.29 32.69,30.29 C32.69,30.29 125.42,30.29 125.42,30.29 C125.42,30.29 125.42,160.47 125.42,160.47z M664.44,75.35 C664.44,75.35 530.12,75.35 530.12,75.35 C527.83,75.35 525.98,77.21 525.98,79.49 C525.98,79.49 525.98,161.34 525.98,161.34 C525.98,163.63 527.83,165.48 530.12,165.48 C530.12,165.48 664.44,165.48 664.44,165.48 C666.72,165.48 668.58,163.63 668.58,161.34 C668.58,161.34 668.58,79.49 668.58,79.49 C668.58,77.21 666.72,75.35 664.44,75.35z M656.16,153.06 C656.16,153.06 538.4,153.06 538.4,153.06 C538.4,153.06 538.4,87.77 538.4,87.77 C538.4,87.77 656.16,87.77 656.16,87.77 C656.16,87.77 656.16,153.06 656.16,153.06z M809.12,323.95 C809.12,323.95 809.12,312.43 809.12,312.43 C809.12,312.43 789.08,312.43 789.08,312.43 C789.08,312.43 793.1,289.69 793.1,289.69 C793.1,289.69 774.94,289.69 774.94,289.69 C792.07,254.26 787.47,203.62 787.47,203.62 C775.11,215.98 767.06,230.18 761.82,243.45 C760.41,200.45 746.96,168.17 746.96,168.17 C739.67,184.58 736.32,204.93 735.01,224.25 C723.26,185.19 701.39,168.17 701.39,168.17 C699.11,193.25 702.99,220.37 707.94,242.62 C702.17,235.86 695.03,229.38 686.2,223.87 C686.2,223.87 686.2,265.3 702.45,289.69 C702.45,289.69 686.77,289.69 686.77,289.69 C686.77,289.69 701.96,375.77 701.96,375.77 C701.96,375.77 774.57,375.77 774.57,375.77 C774.57,375.77 777.91,375.77 777.91,375.77 C777.91,375.77 797.6,375.77 797.6,375.77 C803.97,375.77 809.12,370.62 809.12,364.26 C809.12,364.26 809.12,358.5 809.12,358.5 C818.66,358.5 826.4,350.76 826.4,341.22 C826.4,331.68 818.66,323.95 809.12,323.95z M809.12,352.74 C809.12,352.74 809.12,352.74 809.12,352.74 C809.12,352.74 809.12,329.71 809.12,329.71 C815.48,329.71 820.64,334.86 820.64,341.22 C820.64,347.58 815.48,352.74 809.12,352.74z M30.29,255.61 C30.29,255.61 30.29,250.6 30.29,250.6 C30.29,250.6 25.28,250.6 25.28,250.6 C25.28,250.6 25.28,240.58 25.28,240.58 C25.28,240.58 15.27,240.58 15.27,240.58 C15.27,240.58 15.27,250.6 15.27,250.6 C15.27,250.6 10.26,250.6 10.26,250.6 C10.26,250.6 10.26,255.61 10.26,255.61 C4.73,255.61 0.25,260.09 0.25,265.62 C0.25,265.62 0.25,375.77 0.25,375.77 C0.25,375.77 40.31,375.77 40.31,375.77 C40.31,375.77 40.31,265.62 40.31,265.62 C40.31,260.09 35.82,255.61 30.29,255.61z"></path><g opacity="1" transform="matrix(1,0,0,1,570.718994140625,293.156005859375)"></g><g opacity="1" transform="matrix(1,0,0,1,72.85099792480469,325.07598876953125)"></g><g opacity="1" transform="matrix(1,0,0,1,192.16600036621094,40.60599899291992)"></g><g opacity="1" transform="matrix(1,0,0,1,192.16600036621094,147.9550018310547)"></g><g opacity="1" transform="matrix(1,0,0,1,79.05999755859375,95.38200378417969)"></g><g opacity="1" transform="matrix(1,0,0,1,597.2780151367188,120.41699981689453)"></g><g opacity="1" transform="matrix(1,0,0,1,756.2990112304688,271.97100830078125)"></g><g opacity="1" transform="matrix(1,0,0,1,20.277999877929688,308.177001953125)"></g></g><g transform="matrix(1,0,0,1,818.781982421875,364.572998046875)" opacity="1" style="display: block;"><g opacity="1" transform="matrix(1,0,0,1,33.073001861572266,55.32600021362305)"><path fill="#B69C85" fill-opacity="1" d=" M27.822999954223633,55.07600021362305 C27.822999954223633,55.07600021362305 -27.822999954223633,55.07600021362305 -27.822999954223633,55.07600021362305 C-30.584999084472656,55.07600021362305 -32.823001861572266,52.8380012512207 -32.823001861572266,50.07600021362305 C-32.823001861572266,50.07600021362305 -32.823001861572266,-50.07600021362305 -32.823001861572266,-50.07600021362305 C-32.823001861572266,-52.8380012512207 -30.584999084472656,-55.07600021362305 -27.822999954223633,-55.07600021362305 C-27.822999954223633,-55.07600021362305 27.822999954223633,-55.07600021362305 27.822999954223633,-55.07600021362305 C30.584999084472656,-55.07600021362305 32.823001861572266,-52.8380012512207 32.823001861572266,-50.07600021362305 C32.823001861572266,-50.07600021362305 32.823001861572266,50.07600021362305 32.823001861572266,50.07600021362305 C32.823001861572266,52.8380012512207 30.584999084472656,55.07600021362305 27.822999954223633,55.07600021362305z"></path></g><g opacity="1" transform="matrix(1,0,0,1,63.1150016784668,55.32600021362305)"><path fill="#CDAF97" fill-opacity="1" d=" M27.822999954223633,55.07600021362305 C27.822999954223633,55.07600021362305 -27.822999954223633,55.07600021362305 -27.822999954223633,55.07600021362305 C-30.584999084472656,55.07600021362305 -32.823001861572266,52.8380012512207 -32.823001861572266,50.07600021362305 C-32.823001861572266,50.07600021362305 -32.823001861572266,-50.07600021362305 -32.823001861572266,-50.07600021362305 C-32.823001861572266,-52.8380012512207 -30.584999084472656,-55.07600021362305 -27.822999954223633,-55.07600021362305 C-27.822999954223633,-55.07600021362305 27.822999954223633,-55.07600021362305 27.822999954223633,-55.07600021362305 C30.584999084472656,-55.07600021362305 32.823001861572266,-52.8380012512207 32.823001861572266,-50.07600021362305 C32.823001861572266,-50.07600021362305 32.823001861572266,50.07600021362305 32.823001861572266,50.07600021362305 C32.823001861572266,52.8380012512207 30.584999084472656,55.07600021362305 27.822999954223633,55.07600021362305z"></path></g><g opacity="1" transform="matrix(1,0,0,1,17.77400016784668,15.270999908447266)"><path fill="#394A6D" fill-opacity="1" d=" M2.503000020980835,15.020999908447266 C2.503000020980835,15.020999908447266 -7.511000156402588,15.020999908447266 -7.511000156402588,15.020999908447266 C-7.511000156402588,15.020999908447266 -7.511000156402588,-10.013999938964844 -7.511000156402588,-10.013999938964844 C-7.511000156402588,-12.779999732971191 -5.26800012588501,-15.020999908447266 -2.503999948501587,-15.020999908447266 C-2.503999948501587,-15.020999908447266 7.511000156402588,-15.020999908447266 7.511000156402588,-15.020999908447266 C4.744999885559082,-15.020999908447266 2.503000020980835,-12.779999732971191 2.503000020980835,-10.013999938964844 C2.503000020980835,-10.013999938964844 2.503000020980835,15.020999908447266 2.503000020980835,15.020999908447266z"></path></g><g opacity="1" transform="matrix(1,0,0,1,48.09400177001953,13.045999526977539)"><path fill="#FFFFFF" fill-opacity="0.3" d=" M5.007999897003174,2.7809998989105225 C5.007999897003174,2.7809998989105225 -5.006999969482422,2.7809998989105225 -5.006999969482422,2.7809998989105225 C-6.543000221252441,2.7809998989105225 -7.788000106811523,1.5369999408721924 -7.788000106811523,0.0010000000474974513 C-7.788000106811523,-1.5360000133514404 -6.543000221252441,-2.7809998989105225 -5.006999969482422,-2.7809998989105225 C-5.006999969482422,-2.7809998989105225 5.007999897003174,-2.7809998989105225 5.007999897003174,-2.7809998989105225 C6.544000148773193,-2.7809998989105225 7.788000106811523,-1.5360000133514404 7.788000106811523,0.0010000000474974513 C7.788000106811523,1.5369999408721924 6.544000148773193,2.7809998989105225 5.007999897003174,2.7809998989105225z"></path></g></g><g transform="matrix(1,0,0,1,733.6629638671875,384.1000061035156)" opacity="1" style="display: block;"><g opacity="1" transform="matrix(1,0,0,1,50.31999969482422,45.590999603271484)"><path fill="#AE947B" fill-opacity="1" d=" M45.06999969482422,45.340999603271484 C45.06999969482422,45.340999603271484 -45.06999969482422,45.340999603271484 -45.06999969482422,45.340999603271484 C-47.83100128173828,45.340999603271484 -50.06999969482422,43.10300064086914 -50.06999969482422,40.340999603271484 C-50.06999969482422,40.340999603271484 -50.06999969482422,-40.340999603271484 -50.06999969482422,-40.340999603271484 C-50.06999969482422,-43.10100173950195 -47.83100128173828,-45.340999603271484 -45.06999969482422,-45.340999603271484 C-45.06999969482422,-45.340999603271484 45.06999969482422,-45.340999603271484 45.06999969482422,-45.340999603271484 C47.832000732421875,-45.340999603271484 50.06999969482422,-43.10100173950195 50.06999969482422,-40.340999603271484 C50.06999969482422,-40.340999603271484 50.06999969482422,40.340999603271484 50.06999969482422,40.340999603271484 C50.06999969482422,43.10300064086914 47.832000732421875,45.340999603271484 45.06999969482422,45.340999603271484z"></path></g><g opacity="1" transform="matrix(1,0,0,1,80.36100006103516,45.590999603271484)"><path fill="#D2BBA9" fill-opacity="1" d=" M45.06999969482422,45.340999603271484 C45.06999969482422,45.340999603271484 -45.06999969482422,45.340999603271484 -45.06999969482422,45.340999603271484 C-47.83100128173828,45.340999603271484 -50.06999969482422,43.10300064086914 -50.06999969482422,40.340999603271484 C-50.06999969482422,40.340999603271484 -50.06999969482422,-40.340999603271484 -50.06999969482422,-40.340999603271484 C-50.06999969482422,-43.10100173950195 -47.83100128173828,-45.340999603271484 -45.06999969482422,-45.340999603271484 C-45.06999969482422,-45.340999603271484 45.06999969482422,-45.340999603271484 45.06999969482422,-45.340999603271484 C47.832000732421875,-45.340999603271484 50.06999969482422,-43.10100173950195 50.06999969482422,-40.340999603271484 C50.06999969482422,-40.340999603271484 50.06999969482422,40.340999603271484 50.06999969482422,40.340999603271484 C50.06999969482422,43.10300064086914 47.832000732421875,45.340999603271484 45.06999969482422,45.340999603271484z"></path></g><g opacity="1" transform="matrix(1,0,0,1,17.774999618530273,12.767999649047852)"><path fill="#394A6D" fill-opacity="1" d=" M2.503999948501587,12.517999649047852 C2.503999948501587,12.517999649047852 -7.511000156402588,12.517999649047852 -7.511000156402588,12.517999649047852 C-7.511000156402588,12.517999649047852 -7.511000156402588,-7.511000156402588 -7.511000156402588,-7.511000156402588 C-7.511000156402588,-10.276000022888184 -5.26800012588501,-12.517999649047852 -2.503999948501587,-12.517999649047852 C-2.503999948501587,-12.517999649047852 7.511000156402588,-12.517999649047852 7.511000156402588,-12.517999649047852 C4.744999885559082,-12.517999649047852 2.503999948501587,-10.276000022888184 2.503999948501587,-7.511000156402588 C2.503999948501587,-7.511000156402588 2.503999948501587,12.517999649047852 2.503999948501587,12.517999649047852z"></path></g><g opacity="1" transform="matrix(1,0,0,1,48.095001220703125,13.04699993133545)"><path fill="#FFFFFF" fill-opacity="0.3" d=" M5.289000034332275,2.7809998989105225 C5.289000034332275,2.7809998989105225 -5.289000034332275,2.7809998989105225 -5.289000034332275,2.7809998989105225 C-6.670000076293945,2.7809998989105225 -7.789000034332275,1.6619999408721924 -7.789000034332275,0.2809999883174896 C-7.789000034332275,0.2809999883174896 -7.789000034332275,-0.28200000524520874 -7.789000034332275,-0.28200000524520874 C-7.789000034332275,-1.6619999408721924 -6.670000076293945,-2.7809998989105225 -5.289000034332275,-2.7809998989105225 C-5.289000034332275,-2.7809998989105225 5.289000034332275,-2.7809998989105225 5.289000034332275,-2.7809998989105225 C6.670000076293945,-2.7809998989105225 7.789000034332275,-1.6619999408721924 7.789000034332275,-0.28200000524520874 C7.789000034332275,-0.28200000524520874 7.789000034332275,0.2809999883174896 7.789000034332275,0.2809999883174896 C7.789000034332275,1.6619999408721924 6.670000076293945,2.7809998989105225 5.289000034332275,2.7809998989105225z"></path></g></g><g transform="matrix(1,0,0,1,803.2040405273438,409.5790100097656)" opacity="1" style="display: block;"><g opacity="1" transform="matrix(1,0,0,1,23.336999893188477,35.57600021362305)"><path fill="#221F1F" fill-opacity="0.15" d=" M18.08799934387207,30.31999969482422 C18.08799934387207,30.31999969482422 -18.08799934387207,30.31999969482422 -18.08799934387207,30.31999969482422 C-20.850000381469727,30.31999969482422 -23.08799934387207,28.082000732421875 -23.08799934387207,25.31999969482422 C-23.08799934387207,25.31999969482422 -23.08799934387207,-25.31999969482422 -23.08799934387207,-25.31999969482422 C-23.08799934387207,-28.079999923706055 -20.850000381469727,-30.31999969482422 -18.08799934387207,-30.31999969482422 C-18.08799934387207,-30.31999969482422 18.08799934387207,-30.31999969482422 18.08799934387207,-30.31999969482422 C20.850000381469727,-30.31999969482422 23.08799934387207,-28.079999923706055 23.08799934387207,-25.31999969482422 C23.08799934387207,-25.31999969482422 23.08799934387207,25.31999969482422 23.08799934387207,25.31999969482422 C23.08799934387207,28.082000732421875 20.850000381469727,30.31999969482422 18.08799934387207,30.31999969482422z"></path></g><g opacity="1" transform="matrix(1,0,0,1,27.788000106811523,33.073001861572266)"><path fill="#B89D84" fill-opacity="1" d=" M18.08799934387207,32.823001861572266 C18.08799934387207,32.823001861572266 -18.08799934387207,32.823001861572266 -18.08799934387207,32.823001861572266 C-20.849000930786133,32.823001861572266 -23.08799934387207,30.584999084472656 -23.08799934387207,27.822999954223633 C-23.08799934387207,27.822999954223633 -23.08799934387207,-27.822999954223633 -23.08799934387207,-27.822999954223633 C-23.08799934387207,-30.583999633789062 -20.849000930786133,-32.823001861572266 -18.08799934387207,-32.823001861572266 C-18.08799934387207,-32.823001861572266 18.08799934387207,-32.823001861572266 18.08799934387207,-32.823001861572266 C20.850000381469727,-32.823001861572266 23.08799934387207,-30.583999633789062 23.08799934387207,-27.822999954223633 C23.08799934387207,-27.822999954223633 23.08799934387207,27.822999954223633 23.08799934387207,27.822999954223633 C23.08799934387207,30.584999084472656 20.850000381469727,32.823001861572266 18.08799934387207,32.823001861572266z"></path></g><g opacity="1" transform="matrix(1,0,0,1,50.597999572753906,33.073001861572266)"><path fill="#DAC4B5" fill-opacity="1" d=" M25.320999145507812,32.823001861572266 C25.320999145507812,32.823001861572266 -25.320999145507812,32.823001861572266 -25.320999145507812,32.823001861572266 C-28.08099937438965,32.823001861572266 -30.320999145507812,30.584999084472656 -30.320999145507812,27.822999954223633 C-30.320999145507812,27.822999954223633 -30.320999145507812,-27.822999954223633 -30.320999145507812,-27.822999954223633 C-30.320999145507812,-30.583999633789062 -28.08099937438965,-32.823001861572266 -25.320999145507812,-32.823001861572266 C-25.320999145507812,-32.823001861572266 25.320999145507812,-32.823001861572266 25.320999145507812,-32.823001861572266 C28.082000732421875,-32.823001861572266 30.320999145507812,-30.583999633789062 30.320999145507812,-27.822999954223633 C30.320999145507812,-27.822999954223633 30.320999145507812,27.822999954223633 30.320999145507812,27.822999954223633 C30.320999145507812,30.584999084472656 28.082000732421875,32.823001861572266 25.320999145507812,32.823001861572266z"></path></g><g opacity="1" transform="matrix(1,0,0,1,15.270999908447266,8.038999557495117)"><path fill="#394A6D" fill-opacity="1" d=" M0,7.788000106811523 C0,7.788000106811523 -5.006999969482422,7.788000106811523 -5.006999969482422,7.788000106811523 C-5.006999969482422,7.788000106811523 -5.006999969482422,-2.7820000648498535 -5.006999969482422,-2.7820000648498535 C-5.006999969482422,-5.546999931335449 -2.765000104904175,-7.788000106811523 0,-7.788000106811523 C0,-7.788000106811523 5.006999969482422,-7.788000106811523 5.006999969482422,-7.788000106811523 C2.242000102996826,-7.788000106811523 0,-5.546999931335449 0,-2.7820000648498535 C0,-2.7820000648498535 0,7.788000106811523 0,7.788000106811523z"></path></g><g opacity="1" transform="matrix(1,0,0,1,38.08100128173828,13.045999526977539)"><path fill="#FFFFFF" fill-opacity="0.3" d=" M5.289000034332275,2.7809998989105225 C5.289000034332275,2.7809998989105225 -5.289000034332275,2.7809998989105225 -5.289000034332275,2.7809998989105225 C-6.670000076293945,2.7809998989105225 -7.789000034332275,1.6619999408721924 -7.789000034332275,0.2809999883174896 C-7.789000034332275,0.2809999883174896 -7.789000034332275,-0.2809999883174896 -7.789000034332275,-0.2809999883174896 C-7.789000034332275,-1.6610000133514404 -6.670000076293945,-2.7809998989105225 -5.289000034332275,-2.7809998989105225 C-5.289000034332275,-2.7809998989105225 5.289000034332275,-2.7809998989105225 5.289000034332275,-2.7809998989105225 C6.670000076293945,-2.7809998989105225 7.789000034332275,-1.6610000133514404 7.789000034332275,-0.2809999883174896 C7.789000034332275,-0.2809999883174896 7.789000034332275,0.2809999883174896 7.789000034332275,0.2809999883174896 C7.789000034332275,1.6619999408721924 6.670000076293945,2.7809998989105225 5.289000034332275,2.7809998989105225z"></path></g></g><g transform="matrix(1,0,0,1,282.052001953125,359.0660095214844)" opacity="1" style="display: block;"><g opacity="1" transform="matrix(1,0,0,1,40.30500030517578,58.108001708984375)"><path fill="#761077" fill-opacity="1" d=" M35.055999755859375,57.858001708984375 C35.055999755859375,57.858001708984375 -35.055999755859375,57.858001708984375 -35.055999755859375,57.858001708984375 C-37.81800079345703,57.858001708984375 -40.055999755859375,55.619998931884766 -40.055999755859375,52.858001708984375 C-40.055999755859375,52.858001708984375 -40.055999755859375,-52.858001708984375 -40.055999755859375,-52.858001708984375 C-40.055999755859375,-55.619998931884766 -37.81800079345703,-57.858001708984375 -35.055999755859375,-57.858001708984375 C-35.055999755859375,-57.858001708984375 35.055999755859375,-57.858001708984375 35.055999755859375,-57.858001708984375 C37.81800079345703,-57.858001708984375 40.055999755859375,-55.619998931884766 40.055999755859375,-52.858001708984375 C40.055999755859375,-52.858001708984375 40.055999755859375,52.858001708984375 40.055999755859375,52.858001708984375 C40.055999755859375,55.619998931884766 37.81800079345703,57.858001708984375 35.055999755859375,57.858001708984375z"></path></g><g opacity="1" transform="matrix(1,0,0,1,70.34700012207031,58.108001708984375)"><path fill="url(&quot;#__lottie_element_1279&quot;)" fill-opacity="1" d=" M35.055999755859375,57.858001708984375 C35.055999755859375,57.858001708984375 -35.055999755859375,57.858001708984375 -35.055999755859375,57.858001708984375 C-37.81800079345703,57.858001708984375 -40.055999755859375,55.619998931884766 -40.055999755859375,52.858001708984375 C-40.055999755859375,52.858001708984375 -40.055999755859375,-52.858001708984375 -40.055999755859375,-52.858001708984375 C-40.055999755859375,-55.619998931884766 -37.81800079345703,-57.858001708984375 -35.055999755859375,-57.858001708984375 C-35.055999755859375,-57.858001708984375 35.055999755859375,-57.858001708984375 35.055999755859375,-57.858001708984375 C37.81800079345703,-57.858001708984375 40.055999755859375,-55.619998931884766 40.055999755859375,-52.858001708984375 C40.055999755859375,-52.858001708984375 40.055999755859375,52.858001708984375 40.055999755859375,52.858001708984375 C40.055999755859375,55.619998931884766 37.81800079345703,57.858001708984375 35.055999755859375,57.858001708984375z"></path></g><g opacity="1" transform="matrix(1,0,0,1,17.77400016784668,15.270999908447266)"><path fill="#24011E" fill-opacity="1" d=" M2.503999948501587,15.020999908447266 C2.503999948501587,15.020999908447266 -7.510000228881836,15.020999908447266 -7.510000228881836,15.020999908447266 C-7.510000228881836,15.020999908447266 -7.510000228881836,-10.013999938964844 -7.510000228881836,-10.013999938964844 C-7.510000228881836,-12.779999732971191 -5.269000053405762,-15.020999908447266 -2.503999948501587,-15.020999908447266 C-2.503999948501587,-15.020999908447266 7.510000228881836,-15.020999908447266 7.510000228881836,-15.020999908447266 C4.744999885559082,-15.020999908447266 2.503999948501587,-12.779999732971191 2.503999948501587,-10.013999938964844 C2.503999948501587,-10.013999938964844 2.503999948501587,15.020999908447266 2.503999948501587,15.020999908447266z"></path></g><g opacity="1" transform="matrix(1,0,0,1,48.09400177001953,13.045999526977539)"><path fill="#E598D7" fill-opacity="1" d=" M5.289000034332275,2.7809998989105225 C5.289000034332275,2.7809998989105225 -5.289000034332275,2.7809998989105225 -5.289000034332275,2.7809998989105225 C-6.670000076293945,2.7809998989105225 -7.789000034332275,1.6619999408721924 -7.789000034332275,0.2809999883174896 C-7.789000034332275,0.2809999883174896 -7.789000034332275,-0.2809999883174896 -7.789000034332275,-0.2809999883174896 C-7.789000034332275,-1.6619999408721924 -6.670000076293945,-2.7809998989105225 -5.289000034332275,-2.7809998989105225 C-5.289000034332275,-2.7809998989105225 5.289000034332275,-2.7809998989105225 5.289000034332275,-2.7809998989105225 C6.670000076293945,-2.7809998989105225 7.789000034332275,-1.6619999408721924 7.789000034332275,-0.2809999883174896 C7.789000034332275,-0.2809999883174896 7.789000034332275,0.2809999883174896 7.789000034332275,0.2809999883174896 C7.789000034332275,1.6619999408721924 6.670000076293945,2.7809998989105225 5.289000034332275,2.7809998989105225z"></path></g></g><g transform="matrix(1,0,0,1,381.1969909667969,114.28201293945312)" opacity="1" style="display: block;"><g opacity="1" transform="matrix(1,0,0,1,175.4929962158203,70.50800323486328)"><path fill="#4F928D" fill-opacity="1" d=" M-166.2429962158203,-39.89500045776367 C-171.21400451660156,-39.89500045776367 -175.2429962158203,-35.86600112915039 -175.2429962158203,-30.895000457763672 C-175.2429962158203,-30.895000457763672 -175.2429962158203,39.89500045776367 -175.2429962158203,39.89500045776367 C-175.2429962158203,39.89500045776367 175.2429962158203,39.89500045776367 175.2429962158203,39.89500045776367 C175.2429962158203,39.89500045776367 175.2429962158203,-30.895000457763672 175.2429962158203,-30.895000457763672 C175.2429962158203,-35.86600112915039 171.21400451660156,-39.89500045776367 166.2429962158203,-39.89500045776367 C166.2429962158203,-39.89500045776367 -166.2429962158203,-39.89500045776367 -166.2429962158203,-39.89500045776367z"></path></g><g opacity="1" transform="matrix(1,0,0,1,190.51400756835938,70.50800323486328)"><path fill="url(&quot;#__lottie_element_1274&quot;)" fill-opacity="1" d=" M175.2429962158203,39.89500045776367 C175.2429962158203,39.89500045776367 -175.2429962158203,39.89500045776367 -175.2429962158203,39.89500045776367 C-175.2429962158203,39.89500045776367 -175.2429962158203,-30.895000457763672 -175.2429962158203,-30.895000457763672 C-175.2429962158203,-35.86600112915039 -171.21400451660156,-39.89500045776367 -166.2429962158203,-39.89500045776367 C-166.2429962158203,-39.89500045776367 166.2429962158203,-39.89500045776367 166.2429962158203,-39.89500045776367 C171.21400451660156,-39.89500045776367 175.2429962158203,-35.86600112915039 175.2429962158203,-30.895000457763672 C175.2429962158203,-30.895000457763672 175.2429962158203,39.89500045776367 175.2429962158203,39.89500045776367z"></path></g><g opacity="1" transform="matrix(1,0,0,1,175.4929962158203,235.41600036621094)"><path fill="#97C6C3" fill-opacity="1" d=" M166.2429962158203,125.01300048828125 C166.2429962158203,125.01300048828125 -166.2429962158203,125.01300048828125 -166.2429962158203,125.01300048828125 C-171.21299743652344,125.01300048828125 -175.2429962158203,120.98400115966797 -175.2429962158203,116.01300048828125 C-175.2429962158203,116.01300048828125 -175.2429962158203,-125.01300048828125 -175.2429962158203,-125.01300048828125 C-175.2429962158203,-125.01300048828125 175.2429962158203,-125.01300048828125 175.2429962158203,-125.01300048828125 C175.2429962158203,-125.01300048828125 175.2429962158203,116.01300048828125 175.2429962158203,116.01300048828125 C175.2429962158203,120.98400115966797 171.21400451660156,125.01300048828125 166.2429962158203,125.01300048828125z"></path></g><g opacity="1" transform="matrix(1,0,0,1,190.51400756835938,235.73699951171875)"><path fill="url(&quot;#__lottie_element_1275&quot;)" fill-opacity="1" d=" M166.2429962158203,125.01300048828125 C166.2429962158203,125.01300048828125 -166.2429962158203,125.01300048828125 -166.2429962158203,125.01300048828125 C-171.21400451660156,125.01300048828125 -175.2429962158203,120.98400115966797 -175.2429962158203,116.01300048828125 C-175.2429962158203,116.01300048828125 -175.2429962158203,-125.01300048828125 -175.2429962158203,-125.01300048828125 C-175.2429962158203,-125.01300048828125 175.2429962158203,-125.01300048828125 175.2429962158203,-125.01300048828125 C175.2429962158203,-125.01300048828125 175.2429962158203,116.01300048828125 175.2429962158203,116.01300048828125 C175.2429962158203,120.98400115966797 171.21400451660156,125.01300048828125 166.2429962158203,125.01300048828125z"></path></g><g opacity="1" transform="matrix(1,0,0,1,65.33999633789062,70.34700012207031)"><path fill="#2E6865" fill-opacity="1" d=" M0.5070000290870667,20.027999877929688 C0.5070000290870667,20.027999877929688 -0.5070000290870667,20.027999877929688 -0.5070000290870667,20.027999877929688 C-2.992000102996826,20.027999877929688 -5.006999969482422,18.01300048828125 -5.006999969482422,15.527999877929688 C-5.006999969482422,15.527999877929688 -5.006999969482422,-15.527999877929688 -5.006999969482422,-15.527999877929688 C-5.006999969482422,-18.01300048828125 -2.992000102996826,-20.027999877929688 -0.5070000290870667,-20.027999877929688 C-0.5070000290870667,-20.027999877929688 0.5070000290870667,-20.027999877929688 0.5070000290870667,-20.027999877929688 C2.992000102996826,-20.027999877929688 5.006999969482422,-18.01300048828125 5.006999969482422,-15.527999877929688 C5.006999969482422,-15.527999877929688 5.006999969482422,15.527999877929688 5.006999969482422,15.527999877929688 C5.006999969482422,18.01300048828125 2.992000102996826,20.027999877929688 0.5070000290870667,20.027999877929688z"></path></g><g opacity="1" transform="matrix(1,0,0,1,225.56300354003906,70.34700012207031)"><path fill="#2E6865" fill-opacity="1" d=" M0.5070000290870667,20.027999877929688 C0.5070000290870667,20.027999877929688 -0.5070000290870667,20.027999877929688 -0.5070000290870667,20.027999877929688 C-2.992000102996826,20.027999877929688 -5.006999969482422,18.01300048828125 -5.006999969482422,15.527999877929688 C-5.006999969482422,15.527999877929688 -5.006999969482422,-15.527999877929688 -5.006999969482422,-15.527999877929688 C-5.006999969482422,-18.01300048828125 -2.992000102996826,-20.027999877929688 -0.5070000290870667,-20.027999877929688 C-0.5070000290870667,-20.027999877929688 0.5070000290870667,-20.027999877929688 0.5070000290870667,-20.027999877929688 C2.992000102996826,-20.027999877929688 5.006999969482422,-18.01300048828125 5.006999969482422,-15.527999877929688 C5.006999969482422,-15.527999877929688 5.006999969482422,15.527999877929688 5.006999969482422,15.527999877929688 C5.006999969482422,18.01300048828125 2.992000102996826,20.027999877929688 0.5070000290870667,20.027999877929688z"></path></g><g opacity="1" transform="matrix(1,0,0,1,145.45199584960938,70.34700012207031)"><path fill="#2E6865" fill-opacity="1" d=" M0.5070000290870667,20.027999877929688 C0.5070000290870667,20.027999877929688 -0.5070000290870667,20.027999877929688 -0.5070000290870667,20.027999877929688 C-2.992000102996826,20.027999877929688 -5.006999969482422,18.01300048828125 -5.006999969482422,15.527999877929688 C-5.006999969482422,15.527999877929688 -5.006999969482422,-15.527999877929688 -5.006999969482422,-15.527999877929688 C-5.006999969482422,-18.01300048828125 -2.992000102996826,-20.027999877929688 -0.5070000290870667,-20.027999877929688 C-0.5070000290870667,-20.027999877929688 0.5070000290870667,-20.027999877929688 0.5070000290870667,-20.027999877929688 C2.992000102996826,-20.027999877929688 5.006999969482422,-18.01300048828125 5.006999969482422,-15.527999877929688 C5.006999969482422,-15.527999877929688 5.006999969482422,15.527999877929688 5.006999969482422,15.527999877929688 C5.006999969482422,18.01300048828125 2.992000102996826,20.027999877929688 0.5070000290870667,20.027999877929688z"></path></g><g opacity="1" transform="matrix(1,0,0,1,310.6809997558594,70.34700012207031)"><path fill="#2E6764" fill-opacity="1" d=" M0.5080000162124634,20.027999877929688 C0.5080000162124634,20.027999877929688 -0.5080000162124634,20.027999877929688 -0.5080000162124634,20.027999877929688 C-2.992000102996826,20.027999877929688 -5.007999897003174,18.01300048828125 -5.007999897003174,15.527999877929688 C-5.007999897003174,15.527999877929688 -5.007999897003174,-15.527999877929688 -5.007999897003174,-15.527999877929688 C-5.007999897003174,-18.01300048828125 -2.992000102996826,-20.027999877929688 -0.5080000162124634,-20.027999877929688 C-0.5080000162124634,-20.027999877929688 0.5080000162124634,-20.027999877929688 0.5080000162124634,-20.027999877929688 C2.993000030517578,-20.027999877929688 5.007999897003174,-18.01300048828125 5.007999897003174,-15.527999877929688 C5.007999897003174,-15.527999877929688 5.007999897003174,15.527999877929688 5.007999897003174,15.527999877929688 C5.007999897003174,18.01300048828125 2.993000030517578,20.027999877929688 0.5080000162124634,20.027999877929688z"></path></g><g opacity="1" transform="matrix(1,0,0,1,72.85099792480469,45.10100173950195)"><path fill="rgb(0,0,0)" fill-opacity="0.3" d=" M2.503999948501587,-14.8100004196167 C2.503999948501587,-5.480999946594238 -3.884999990463257,2.3350000381469727 -12.517999649047852,4.561999797821045 C-12.517999649047852,4.561999797821045 -12.517999649047852,14.8100004196167 -12.517999649047852,14.8100004196167 C1.6890000104904175,12.425000190734863 12.517999649047852,0.07500000298023224 12.517999649047852,-14.8100004196167 C12.517999649047852,-14.8100004196167 2.503999948501587,-14.8100004196167 2.503999948501587,-14.8100004196167z"></path></g><g opacity="1" transform="matrix(1,0,0,1,60.33399963378906,30.291000366210938)"><path fill="#DAC4B5" fill-opacity="1" d=" M0,-30.04199981689453 C-16.590999603271484,-30.04199981689453 -30.04199981689453,-16.590999603271484 -30.04199981689453,0.0010000000474974513 C-30.04199981689453,0.0010000000474974513 -20.027999877929688,0.0010000000474974513 -20.027999877929688,0.0010000000474974513 C-20.027999877929688,-11.060999870300293 -11.060999870300293,-20.027000427246094 0,-20.027000427246094 C11.060999870300293,-20.027000427246094 20.027999877929688,-11.060999870300293 20.027999877929688,0.0010000000474974513 C20.027999877929688,11.062000274658203 11.060999870300293,20.027000427246094 0,20.027000427246094 C0,20.027000427246094 0,30.04199981689453 0,30.04199981689453 C16.590999603271484,30.04199981689453 30.04199981689453,16.591999053955078 30.04199981689453,0.0010000000474974513 C30.04199981689453,-16.590999603271484 16.590999603271484,-30.04199981689453 0,-30.04199981689453z"></path></g><g opacity="1" transform="matrix(1,0,0,1,152.96200561523438,45.10100173950195)"><path fill="rgb(0,0,0)" fill-opacity="0.3" d=" M2.503999948501587,-14.8100004196167 C2.503999948501587,-5.480999946594238 -3.884000062942505,2.3350000381469727 -12.517999649047852,4.561999797821045 C-12.517999649047852,4.561999797821045 -12.517999649047852,14.8100004196167 -12.517999649047852,14.8100004196167 C1.6890000104904175,12.425000190734863 12.517999649047852,0.07500000298023224 12.517999649047852,-14.8100004196167 C12.517999649047852,-14.8100004196167 2.503999948501587,-14.8100004196167 2.503999948501587,-14.8100004196167z"></path></g><g opacity="1" transform="matrix(1,0,0,1,140.44500732421875,30.291000366210938)"><path fill="#DAC4B5" fill-opacity="1" d=" M0,-30.04199981689453 C-16.591999053955078,-30.04199981689453 -30.04199981689453,-16.590999603271484 -30.04199981689453,0.0010000000474974513 C-30.04199981689453,0.0010000000474974513 -20.027999877929688,0.0010000000474974513 -20.027999877929688,0.0010000000474974513 C-20.027999877929688,-11.060999870300293 -11.062000274658203,-20.027000427246094 0,-20.027000427246094 C11.060999870300293,-20.027000427246094 20.027000427246094,-11.060999870300293 20.027000427246094,0.0010000000474974513 C20.027000427246094,11.062000274658203 11.060999870300293,20.027000427246094 0,20.027000427246094 C0,20.027000427246094 0,30.04199981689453 0,30.04199981689453 C16.590999603271484,30.04199981689453 30.04199981689453,16.591999053955078 30.04199981689453,0.0010000000474974513 C30.04199981689453,-16.590999603271484 16.590999603271484,-30.04199981689453 0,-30.04199981689453z"></path></g><g opacity="1" transform="matrix(1,0,0,1,318.1910095214844,45.10100173950195)"><path fill="rgb(0,0,0)" fill-opacity="0.3" d=" M2.503999948501587,-14.8100004196167 C2.503999948501587,-5.480999946594238 -3.884999990463257,2.3350000381469727 -12.517999649047852,4.561999797821045 C-12.517999649047852,4.561999797821045 -12.517999649047852,14.8100004196167 -12.517999649047852,14.8100004196167 C1.6890000104904175,12.425000190734863 12.517999649047852,0.07500000298023224 12.517999649047852,-14.8100004196167 C12.517999649047852,-14.8100004196167 2.503999948501587,-14.8100004196167 2.503999948501587,-14.8100004196167z"></path></g><g opacity="1" transform="matrix(1,0,0,1,305.67401123046875,30.291000366210938)"><path fill="#DAC4B5" fill-opacity="1" d=" M0,-30.04199981689453 C-16.590999603271484,-30.04199981689453 -30.04199981689453,-16.590999603271484 -30.04199981689453,0.0010000000474974513 C-30.04199981689453,0.0010000000474974513 -20.027999877929688,0.0010000000474974513 -20.027999877929688,0.0010000000474974513 C-20.027999877929688,-11.060999870300293 -11.060999870300293,-20.027000427246094 0,-20.027000427246094 C11.062000274658203,-20.027000427246094 20.027000427246094,-11.060999870300293 20.027000427246094,0.0010000000474974513 C20.027000427246094,11.062000274658203 11.062000274658203,20.027000427246094 0,20.027000427246094 C0,20.027000427246094 0,30.04199981689453 0,30.04199981689453 C16.591999053955078,30.04199981689453 30.04199981689453,16.591999053955078 30.04199981689453,0.0010000000474974513 C30.04199981689453,-16.590999603271484 16.591999053955078,-30.04199981689453 0,-30.04199981689453z"></path></g><g opacity="1" transform="matrix(1,0,0,1,233.072998046875,45.10100173950195)"><path fill="rgb(0,0,0)" fill-opacity="0.3" d=" M2.503999948501587,-14.8100004196167 C2.503999948501587,-5.480999946594238 -3.884999990463257,2.3350000381469727 -12.517999649047852,4.561999797821045 C-12.517999649047852,4.561999797821045 -12.517999649047852,14.8100004196167 -12.517999649047852,14.8100004196167 C1.690000057220459,12.425000190734863 12.517999649047852,0.07500000298023224 12.517999649047852,-14.8100004196167 C12.517999649047852,-14.8100004196167 2.503999948501587,-14.8100004196167 2.503999948501587,-14.8100004196167z"></path></g><g opacity="1" transform="matrix(1,0,0,1,220.55599975585938,30.291000366210938)"><path fill="#DAC4B5" fill-opacity="1" d=" M0.0010000000474974513,-30.04199981689453 C-16.590999603271484,-30.04199981689453 -30.04199981689453,-16.590999603271484 -30.04199981689453,0.0010000000474974513 C-30.04199981689453,0.0010000000474974513 -20.027000427246094,0.0010000000474974513 -20.027000427246094,0.0010000000474974513 C-20.027000427246094,-11.060999870300293 -11.060999870300293,-20.027000427246094 0.0010000000474974513,-20.027000427246094 C11.062000274658203,-20.027000427246094 20.027999877929688,-11.060999870300293 20.027999877929688,0.0010000000474974513 C20.027999877929688,11.062000274658203 11.062000274658203,20.027000427246094 0.0010000000474974513,20.027000427246094 C0.0010000000474974513,20.027000427246094 0.0010000000474974513,30.04199981689453 0.0010000000474974513,30.04199981689453 C16.591999053955078,30.04199981689453 30.04199981689453,16.591999053955078 30.04199981689453,0.0010000000474974513 C30.04199981689453,-16.590999603271484 16.591999053955078,-30.04199981689453 0.0010000000474974513,-30.04199981689453z"></path></g></g><g transform="matrix(1,0,0,1,395.968994140625,224.18399047851562)" opacity="1" style="display: block;"><path stroke-linecap="butt" stroke-linejoin="miter" fill-opacity="0" stroke-miterlimit="4" stroke="#A1D5B2" stroke-opacity="1" stroke-width="1" d=" M51.94,0.5 C51.94,0.5 51.94,250.85 51.94,250.85 M101.45,0.5 C101.45,0.5 101.45,250.85 101.45,250.85 M151.77,0.5 C151.77,0.5 151.77,250.85 151.77,250.85 M202.29,0.5 C202.29,0.5 202.29,250.85 202.29,250.85 M252.29,0.5 C252.29,0.5 252.29,250.85 252.29,250.85 M302.29,0.5 C302.29,0.5 302.29,250.85 302.29,250.85 M350.9859924316406,200.3350067138672 C350.9859924316406,200.3350067138672 0.5,200.3350067138672 0.5,200.3350067138672 M0.5,151.26499938964844 C0.5,151.26499938964844 350.9859924316406,151.26499938964844 350.9859924316406,151.26499938964844 M0.5,101.19499969482422 C0.5,101.19499969482422 350.9859924316406,101.19499969482422 350.9859924316406,101.19499969482422 M0.5,51.125999450683594 C0.5,51.125999450683594 350.9859924316406,51.125999450683594 350.9859924316406,51.125999450683594"></path><g opacity="1" transform="matrix(1,0,0,1,0.8159999847412109,0)"></g><g opacity="1" transform="matrix(1,0,0,1,0.8159999847412109,0)"></g><g opacity="1" transform="matrix(1,0,0,1,1.621000051498413,0)"></g><g opacity="1" transform="matrix(1,0,0,1,1.621000051498413,0)"></g><g opacity="1" transform="matrix(1,0,0,1,1.621000051498413,0)"></g><g opacity="1" transform="matrix(1,0,0,1,1.621000051498413,0)"></g><g opacity="1" transform="matrix(1,0,0,1,0,0)"></g><g opacity="1" transform="matrix(1,0,0,1,0,0)"></g><g opacity="1" transform="matrix(1,0,0,1,0,0)"></g><g opacity="1" transform="matrix(1,0,0,1,0,0)"></g></g><g mask="url(#__lottie_element_1261_1)" style="display: block;"><g transform="matrix(1,0,0,1,406.2330017089844,234.447998046875)" opacity="1"><path fill="url(&quot;#__lottie_element_1267&quot;)" fill-opacity="0.5" d=" M65.34,230.57 C65.34,230.57 15.27,230.57 15.27,230.57 C6.97,230.57 0.25,223.84 0.25,215.55 C0.25,207.25 6.97,200.53 15.27,200.53 C15.27,200.53 65.34,200.53 65.34,200.53 C73.64,200.53 80.36,207.25 80.36,215.55 C80.36,223.84 73.64,230.57 65.34,230.57z"></path><g opacity="1" transform="matrix(1,0,0,1,40.305999755859375,215.5489959716797)"></g></g></g><g mask="url(#__lottie_element_1254_1)" style="display: block;"><g transform="matrix(1,0,0,1,406.2330017089844,234.447998046875)" opacity="1"><path fill="url(&quot;#__lottie_element_1260&quot;)" fill-opacity="0.5" d=" M340.72,180.5 C340.72,180.5 15.27,180.5 15.27,180.5 C6.97,180.5 0.25,173.77 0.25,165.48 C0.25,157.18 6.97,150.46 15.27,150.46 C15.27,150.46 340.72,150.46 340.72,150.46 C340.72,150.46 340.72,180.5 340.72,180.5z"></path><g opacity="1" transform="matrix(1,0,0,1,170.48599243164062,165.47900390625)"></g></g></g><g mask="url(#__lottie_element_1247_1)" style="display: block;"><g transform="matrix(1,0,0,1,406.2330017089844,234.447998046875)" opacity="1"><path fill="url(&quot;#__lottie_element_1253&quot;)" fill-opacity="0.5" d=" M340.72,130.43 C340.72,130.43 15.27,130.43 15.27,130.43 C6.97,130.43 0.25,123.71 0.25,115.41 C0.25,107.11 6.97,100.39 15.27,100.39 C15.27,100.39 340.72,100.39 340.72,100.39 C340.72,100.39 340.72,130.43 340.72,130.43z"></path><g opacity="1" transform="matrix(1,0,0,1,170.48599243164062,115.41000366210938)"></g></g></g><g mask="url(#__lottie_element_1240_1)" style="display: block;"><g transform="matrix(1,0,0,1,406.2330017089844,234.447998046875)" opacity="1"><path fill="url(&quot;#__lottie_element_1246&quot;)" fill-opacity="0.5" d=" M340.72,80.36 C340.72,80.36 15.27,80.36 15.27,80.36 C6.97,80.36 0.25,73.63 0.25,65.34 C0.25,57.04 6.97,50.32 15.27,50.32 C15.27,50.32 340.72,50.32 340.72,50.32 C340.72,50.32 340.72,80.36 340.72,80.36z"></path><g opacity="1" transform="matrix(1,0,0,1,170.48599243164062,65.33999633789062)"></g></g></g><g mask="url(#__lottie_element_1233_1)" style="display: block;"><g transform="matrix(1,0,0,1,406.2330017089844,234.447998046875)" opacity="1"><path fill="url(&quot;#__lottie_element_1239&quot;)" fill-opacity="0.5" d=" M340.72,30.29 C340.72,30.29 15.27,30.29 15.27,30.29 C6.97,30.29 0.25,23.57 0.25,15.27 C0.25,6.98 6.97,0.25 15.27,0.25 C15.27,0.25 340.72,0.25 340.72,0.25 C340.72,0.25 340.72,30.29 340.72,30.29z"></path><g opacity="1" transform="matrix(1,0,0,1,170.48599243164062,15.270999908447266)"></g></g></g><g mask="url(#__lottie_element_1227_1)" style="display: block;"><g transform="matrix(1,0,0,1,421.25299072265625,244.4619903564453)" opacity="1"><g opacity="1" transform="matrix(1,0,0,1,157.968994140625,5.256999969482422)"><path fill="#B89D84" fill-opacity="1" d=" M157.718994140625,5.006999969482422 C157.718994140625,5.006999969482422 -153.218994140625,5.006999969482422 -153.218994140625,5.006999969482422 C-155.70399475097656,5.006999969482422 -157.718994140625,2.992000102996826 -157.718994140625,0.5070000290870667 C-157.718994140625,0.5070000290870667 -157.718994140625,-0.5070000290870667 -157.718994140625,-0.5070000290870667 C-157.718994140625,-2.992000102996826 -155.70399475097656,-5.006999969482422 -153.218994140625,-5.006999969482422 C-153.218994140625,-5.006999969482422 157.718994140625,-5.006999969482422 157.718994140625,-5.006999969482422 C157.718994140625,-5.006999969482422 157.718994140625,5.006999969482422 157.718994140625,5.006999969482422z"></path></g></g></g><g transform="matrix(1,0,0,1,696.6420288085938,215.42001342773438)" opacity="1" style="display: block;"><g opacity="1" transform="matrix(1,0,0,1,23.336999893188477,32.79600143432617)"><path fill="#221F1F" fill-opacity="0.15" d=" M18.08799934387207,27.538000106811523 C18.08799934387207,27.538000106811523 -18.08799934387207,27.538000106811523 -18.08799934387207,27.538000106811523 C-20.850000381469727,27.538000106811523 -23.08799934387207,25.299999237060547 -23.08799934387207,22.538000106811523 C-23.08799934387207,22.538000106811523 -23.08799934387207,-22.538000106811523 -23.08799934387207,-22.538000106811523 C-23.08799934387207,-25.299999237060547 -20.850000381469727,-27.538000106811523 -18.08799934387207,-27.538000106811523 C-18.08799934387207,-27.538000106811523 18.08799934387207,-27.538000106811523 18.08799934387207,-27.538000106811523 C20.850000381469727,-27.538000106811523 23.08799934387207,-25.299999237060547 23.08799934387207,-22.538000106811523 C23.08799934387207,-22.538000106811523 23.08799934387207,22.538000106811523 23.08799934387207,22.538000106811523 C23.08799934387207,25.299999237060547 20.850000381469727,27.538000106811523 18.08799934387207,27.538000106811523z"></path></g><g opacity="1" transform="matrix(1,0,0,1,33.90800094604492,30.29199981689453)"><path fill="#B89D84" fill-opacity="1" d=" M24.200000762939453,30.041000366210938 C24.200000762939453,30.041000366210938 -23.086999893188477,30.041000366210938 -23.086999893188477,30.041000366210938 C-26.15999984741211,30.041000366210938 -28.650999069213867,27.551000595092773 -28.650999069213867,24.479000091552734 C-28.650999069213867,24.479000091552734 -28.650999069213867,-24.479000091552734 -28.650999069213867,-24.479000091552734 C-28.650999069213867,-27.551000595092773 -26.15999984741211,-30.041000366210938 -23.086999893188477,-30.041000366210938 C-23.086999893188477,-30.041000366210938 24.200000762939453,-30.041000366210938 24.200000762939453,-30.041000366210938 C27.273000717163086,-30.041000366210938 28.650999069213867,-27.551000595092773 28.650999069213867,-24.479000091552734 C28.650999069213867,-24.479000091552734 28.650999069213867,24.479000091552734 28.650999069213867,24.479000091552734 C28.650999069213867,27.551000595092773 27.273000717163086,30.041000366210938 24.200000762939453,30.041000366210938z"></path></g><g opacity="1" transform="matrix(1,0,0,1,47.816001892089844,30.29199981689453)"><path fill="#DAC4B5" fill-opacity="1" d=" M22.538000106811523,30.041000366210938 C22.538000106811523,30.041000366210938 -22.538000106811523,30.041000366210938 -22.538000106811523,30.041000366210938 C-25.298999786376953,30.041000366210938 -27.538000106811523,27.80299949645996 -27.538000106811523,25.041000366210938 C-27.538000106811523,25.041000366210938 -27.538000106811523,-25.041000366210938 -27.538000106811523,-25.041000366210938 C-27.538000106811523,-27.80299949645996 -25.298999786376953,-30.041000366210938 -22.538000106811523,-30.041000366210938 C-22.538000106811523,-30.041000366210938 22.538000106811523,-30.041000366210938 22.538000106811523,-30.041000366210938 C25.299999237060547,-30.041000366210938 27.538000106811523,-27.80299949645996 27.538000106811523,-25.041000366210938 C27.538000106811523,-25.041000366210938 27.538000106811523,25.041000366210938 27.538000106811523,25.041000366210938 C27.538000106811523,27.80299949645996 25.299999237060547,30.041000366210938 22.538000106811523,30.041000366210938z"></path></g><g opacity="1" transform="matrix(1,0,0,1,15.270999908447266,7.761000156402588)"><path fill="#394A6D" fill-opacity="1" d=" M0,7.510000228881836 C0,7.510000228881836 -5.006999969482422,7.510000228881836 -5.006999969482422,7.510000228881836 C-5.006999969482422,7.510000228881836 -5.006999969482422,-2.503000020980835 -5.006999969482422,-2.503000020980835 C-5.006999969482422,-5.26800012588501 -2.765000104904175,-7.510000228881836 0,-7.510000228881836 C0,-7.510000228881836 5.006999969482422,-7.510000228881836 5.006999969482422,-7.510000228881836 C2.242000102996826,-7.510000228881836 0,-5.26800012588501 0,-2.503000020980835 C0,-2.503000020980835 0,7.510000228881836 0,7.510000228881836z"></path></g><g opacity="1" transform="matrix(1,0,0,1,32.79499816894531,8.038999557495117)"><path fill="#E4D5CA" fill-opacity="1" d=" M5.011000156402588,2.7809998989105225 C5.011000156402588,2.7809998989105225 -5.011000156402588,2.7809998989105225 -5.011000156402588,2.7809998989105225 C-6.390999794006348,2.7809998989105225 -7.511000156402588,1.6619999408721924 -7.511000156402588,0.2809999883174896 C-7.511000156402588,0.2809999883174896 -7.511000156402588,-0.2809999883174896 -7.511000156402588,-0.2809999883174896 C-7.511000156402588,-1.6619999408721924 -6.390999794006348,-2.7809998989105225 -5.011000156402588,-2.7809998989105225 C-5.011000156402588,-2.7809998989105225 5.011000156402588,-2.7809998989105225 5.011000156402588,-2.7809998989105225 C6.392000198364258,-2.7809998989105225 7.511000156402588,-1.6619999408721924 7.511000156402588,-0.2809999883174896 C7.511000156402588,-0.2809999883174896 7.511000156402588,0.2809999883174896 7.511000156402588,0.2809999883174896 C7.511000156402588,1.6619999408721924 6.392000198364258,2.7809998989105225 5.011000156402588,2.7809998989105225z"></path></g><g opacity="1" transform="matrix(1,0,0,1,70.1449966430664,31.732999801635742)"><path fill="#53607C" fill-opacity="1" d=" M13.027000427246094,-6.086999893188477 C13.027000427246094,-6.086999893188477 -10.116000175476074,-6.086999893188477 -10.116000175476074,-6.086999893188477 C-10.116000175476074,-6.086999893188477 -6.176000118255615,-10.027000427246094 -6.176000118255615,-10.027000427246094 C-6.176000118255615,-10.027000427246094 -11.145000457763672,-14.996000289916992 -11.145000457763672,-14.996000289916992 C-11.145000457763672,-14.996000289916992 -23.569000244140625,-2.572999954223633 -23.569000244140625,-2.572999954223633 C-23.569000244140625,-2.572999954223633 -11.145000457763672,9.850000381469727 -11.145000457763672,9.850000381469727 C-11.145000457763672,9.850000381469727 -6.176000118255615,4.88100004196167 -6.176000118255615,4.88100004196167 C-6.176000118255615,4.88100004196167 -10.116000175476074,0.9409999847412109 -10.116000175476074,0.9409999847412109 C-10.116000175476074,0.9409999847412109 13.027000427246094,0.9409999847412109 13.027000427246094,0.9409999847412109 C14.96399974822998,0.9409999847412109 16.540000915527344,2.5169999599456787 16.540000915527344,4.454999923706055 C16.540000915527344,6.392000198364258 14.96399974822998,7.968999862670898 13.027000427246094,7.968999862670898 C13.027000427246094,7.968999862670898 4.980999946594238,7.968999862670898 4.980999946594238,7.968999862670898 C4.980999946594238,7.968999862670898 4.980999946594238,14.996000289916992 4.980999946594238,14.996000289916992 C4.980999946594238,14.996000289916992 13.027000427246094,14.996000289916992 13.027000427246094,14.996000289916992 C18.84000015258789,14.996000289916992 23.569000244140625,10.267999649047852 23.569000244140625,4.454999923706055 C23.569000244140625,-1.3580000400543213 18.84000015258789,-6.086999893188477 13.027000427246094,-6.086999893188477z"></path></g></g><g style="display: block;" transform="matrix(1,0,0,1,456.302001953125,414.697998046875)" opacity="1"><g opacity="1" transform="matrix(1,0,0,1,23.33799934387207,32.79499816894531)"><path fill="#221F1F" fill-opacity="0.15" d=" M18.08799934387207,27.538000106811523 C18.08799934387207,27.538000106811523 -18.08799934387207,27.538000106811523 -18.08799934387207,27.538000106811523 C-20.850000381469727,27.538000106811523 -23.08799934387207,25.299999237060547 -23.08799934387207,22.538000106811523 C-23.08799934387207,22.538000106811523 -23.08799934387207,-22.538000106811523 -23.08799934387207,-22.538000106811523 C-23.08799934387207,-25.299999237060547 -20.850000381469727,-27.538000106811523 -18.08799934387207,-27.538000106811523 C-18.08799934387207,-27.538000106811523 18.08799934387207,-27.538000106811523 18.08799934387207,-27.538000106811523 C20.850000381469727,-27.538000106811523 23.08799934387207,-25.299999237060547 23.08799934387207,-22.538000106811523 C23.08799934387207,-22.538000106811523 23.08799934387207,22.538000106811523 23.08799934387207,22.538000106811523 C23.08799934387207,25.299999237060547 20.850000381469727,27.538000106811523 18.08799934387207,27.538000106811523z"></path></g><g opacity="1" transform="matrix(1,0,0,1,33.90800094604492,30.29199981689453)"><path fill="#761077" fill-opacity="1" d=" M24.200000762939453,30.04199981689453 C24.200000762939453,30.04199981689453 -23.08799934387207,30.04199981689453 -23.08799934387207,30.04199981689453 C-26.15999984741211,30.04199981689453 -28.650999069213867,27.552000045776367 -28.650999069213867,24.479000091552734 C-28.650999069213867,24.479000091552734 -28.650999069213867,-24.479000091552734 -28.650999069213867,-24.479000091552734 C-28.650999069213867,-27.552000045776367 -26.15999984741211,-30.04199981689453 -23.08799934387207,-30.04199981689453 C-23.08799934387207,-30.04199981689453 24.200000762939453,-30.04199981689453 24.200000762939453,-30.04199981689453 C27.27199935913086,-30.04199981689453 28.650999069213867,-27.552000045776367 28.650999069213867,-24.479000091552734 C28.650999069213867,-24.479000091552734 28.650999069213867,24.479000091552734 28.650999069213867,24.479000091552734 C28.650999069213867,27.552000045776367 27.27199935913086,30.04199981689453 24.200000762939453,30.04199981689453z"></path></g><g opacity="1" transform="matrix(1,0,0,1,47.816001892089844,30.29199981689453)"><path fill="url(&quot;#__lottie_element_1223&quot;)" fill-opacity="1" d=" M22.538999557495117,30.04199981689453 C22.538999557495117,30.04199981689453 -22.538999557495117,30.04199981689453 -22.538999557495117,30.04199981689453 C-25.299999237060547,30.04199981689453 -27.538999557495117,27.804000854492188 -27.538999557495117,25.04199981689453 C-27.538999557495117,25.04199981689453 -27.538999557495117,-25.04199981689453 -27.538999557495117,-25.04199981689453 C-27.538999557495117,-27.804000854492188 -25.299999237060547,-30.04199981689453 -22.538999557495117,-30.04199981689453 C-22.538999557495117,-30.04199981689453 22.538999557495117,-30.04199981689453 22.538999557495117,-30.04199981689453 C25.299999237060547,-30.04199981689453 27.538999557495117,-27.804000854492188 27.538999557495117,-25.04199981689453 C27.538999557495117,-25.04199981689453 27.538999557495117,25.04199981689453 27.538999557495117,25.04199981689453 C27.538999557495117,27.804000854492188 25.299999237060547,30.04199981689453 22.538999557495117,30.04199981689453z"></path></g><g opacity="1" transform="matrix(1,0,0,1,15.270999908447266,7.760000228881836)"><path fill="#25021F" fill-opacity="1" d=" M0,7.510000228881836 C0,7.510000228881836 -5.006999969482422,7.510000228881836 -5.006999969482422,7.510000228881836 C-5.006999969482422,7.510000228881836 -5.006999969482422,-2.503999948501587 -5.006999969482422,-2.503999948501587 C-5.006999969482422,-5.269000053405762 -2.765000104904175,-7.510000228881836 0,-7.510000228881836 C0,-7.510000228881836 5.006999969482422,-7.510000228881836 5.006999969482422,-7.510000228881836 C2.242000102996826,-7.510000228881836 0,-5.269000053405762 0,-2.503999948501587 C0,-2.503999948501587 0,7.510000228881836 0,7.510000228881836z"></path></g><g opacity="1" transform="matrix(1,0,0,1,32.79499816894531,8.038999557495117)"><path fill="#E7ACDD" fill-opacity="1" d=" M5.011000156402588,2.7809998989105225 C5.011000156402588,2.7809998989105225 -5.011000156402588,2.7809998989105225 -5.011000156402588,2.7809998989105225 C-6.390999794006348,2.7809998989105225 -7.511000156402588,1.6610000133514404 -7.511000156402588,0.2809999883174896 C-7.511000156402588,0.2809999883174896 -7.511000156402588,-0.2809999883174896 -7.511000156402588,-0.2809999883174896 C-7.511000156402588,-1.6619999408721924 -6.390999794006348,-2.7809998989105225 -5.011000156402588,-2.7809998989105225 C-5.011000156402588,-2.7809998989105225 5.011000156402588,-2.7809998989105225 5.011000156402588,-2.7809998989105225 C6.392000198364258,-2.7809998989105225 7.511000156402588,-1.6619999408721924 7.511000156402588,-0.2809999883174896 C7.511000156402588,-0.2809999883174896 7.511000156402588,0.2809999883174896 7.511000156402588,0.2809999883174896 C7.511000156402588,1.6610000133514404 6.392000198364258,2.7809998989105225 5.011000156402588,2.7809998989105225z"></path></g><g opacity="1" transform="matrix(1,0,0,1,70.33699798583984,31.339000701904297)"><path fill="#4E0441" fill-opacity="1" d=" M13.027000427246094,-6.0879998207092285 C13.027000427246094,-6.0879998207092285 -10.116000175476074,-6.0879998207092285 -10.116000175476074,-6.0879998207092285 C-10.116000175476074,-6.0879998207092285 -6.176000118255615,-10.027000427246094 -6.176000118255615,-10.027000427246094 C-6.176000118255615,-10.027000427246094 -11.145000457763672,-14.996999740600586 -11.145000457763672,-14.996999740600586 C-11.145000457763672,-14.996999740600586 -23.56800079345703,-2.572000026702881 -23.56800079345703,-2.572000026702881 C-23.56800079345703,-2.572000026702881 -11.145000457763672,9.85099983215332 -11.145000457763672,9.85099983215332 C-11.145000457763672,9.85099983215332 -6.176000118255615,4.881999969482422 -6.176000118255615,4.881999969482422 C-6.176000118255615,4.881999969482422 -10.116000175476074,0.9409999847412109 -10.116000175476074,0.9409999847412109 C-10.116000175476074,0.9409999847412109 13.027000427246094,0.9409999847412109 13.027000427246094,0.9409999847412109 C14.96399974822998,0.9409999847412109 16.540000915527344,2.5160000324249268 16.540000915527344,4.453999996185303 C16.540000915527344,6.390999794006348 14.96399974822998,7.968999862670898 13.027000427246094,7.968999862670898 C13.027000427246094,7.968999862670898 4.980000019073486,7.968999862670898 4.980000019073486,7.968999862670898 C4.980000019073486,7.968999862670898 4.980000019073486,14.996999740600586 4.980000019073486,14.996999740600586 C4.980000019073486,14.996999740600586 13.027000427246094,14.996999740600586 13.027000427246094,14.996999740600586 C18.84000015258789,14.996999740600586 23.56800079345703,10.267000198364258 23.56800079345703,4.453999996185303 C23.56800079345703,-1.3589999675750732 18.84000015258789,-6.0879998207092285 13.027000427246094,-6.0879998207092285z"></path></g></g></g></svg>