<svg xmlns:xlink="http://www.w3.org/1999/xlink" xmlns="http://www.w3.org/2000/svg" width="33" height="32" viewBox="0 0 33 32" fill="none">
<path fill-rule="evenodd" clip-rule="evenodd" d="M11.6715 16.6667C11.5242 16.6667 11.4048 16.7861 11.4048 16.9333V17.7333L11.4102 17.7871C11.4351 17.9086 11.5426 18 11.6715 18H12.0715L12.189 18.0034C13.2 18.062 14.0095 18.8715 14.0681 19.8825L14.0715 20V20.4L14.0769 20.4537C14.1017 20.5753 14.2093 20.6667 14.3381 20.6667H15.1381C15.2854 20.6667 15.4048 20.5473 15.4048 20.4V20L15.4082 19.8825C15.469 18.8326 16.3397 18 17.4048 18H17.8048C17.9521 18 18.0715 17.8806 18.0715 17.7333V16.9333L18.066 16.8796C18.0412 16.7581 17.9337 16.6667 17.8048 16.6667H17.4048L17.2873 16.6633C16.2763 16.6047 15.4668 15.7952 15.4082 14.7842L15.4048 14.6667V14.2667L15.3994 14.2129C15.3745 14.0914 15.267 14 15.1381 14H14.3381C14.1908 14 14.0715 14.1194 14.0715 14.2667V14.6667L14.0681 14.7842C14.0072 15.8341 13.1366 16.6667 12.0715 16.6667H11.6715ZM14.7099 15.9903L14.7375 15.9381L14.8229 16.0862C15.1511 16.6204 15.6399 17.0562 16.1695 17.3327C15.5917 17.6356 15.0626 18.1268 14.7388 18.7286C14.4137 18.1268 13.8845 17.6356 13.3068 17.334C13.8677 17.0399 14.3829 16.5683 14.7099 15.9903Z" fill="#A63489"/>
<rect x="22.0715" y="24.6666" width="3.33333" height="3.33333" rx="1" fill="#9DC797"/>
<rect x="4.07153" y="6.66663" width="2.66667" height="2.66667" rx="1" fill="#9DC797"/>
<path fill-rule="evenodd" clip-rule="evenodd" d="M22.9335 3.52864C23.1939 3.26829 23.616 3.26829 23.8764 3.52864C24.1167 3.76896 24.1352 4.14711 23.9318 4.40864L23.8764 4.47145L19.8764 8.47145C19.616 8.7318 19.1939 8.7318 18.9335 8.47145C18.6932 8.23112 18.6747 7.85297 18.8781 7.59144L18.9335 7.52864L22.9335 3.52864ZM27.8764 4.1953C27.616 3.93495 27.1939 3.93495 26.9335 4.1953L22.2669 8.86197L22.2114 8.92477C22.0081 9.1863 22.0266 9.56446 22.2669 9.80478C22.5272 10.0651 22.9493 10.0651 23.2097 9.80478L27.8764 5.13811L27.9318 5.07531C28.1352 4.81378 28.1167 4.43563 27.8764 4.1953ZM28.543 8.1953C28.2827 7.93495 27.8606 7.93495 27.6002 8.1953L23.6002 12.1953L23.5448 12.2581C23.3414 12.5196 23.3599 12.8978 23.6002 13.1381C23.8606 13.3985 24.2827 13.3985 24.543 13.1381L28.543 9.13811L28.5985 9.07531C28.8018 8.81378 28.7833 8.43563 28.543 8.1953ZM27.2097 14.1953C26.9493 13.935 26.5272 13.935 26.2669 14.1953L23.6002 16.862L23.5448 16.9248C23.3414 17.1863 23.3599 17.5645 23.6002 17.8048C23.8606 18.0651 24.2827 18.0651 24.543 17.8048L27.2097 15.1381L27.2651 15.0753C27.4685 14.8138 27.45 14.4356 27.2097 14.1953ZM16.9335 4.86197C17.1939 4.60162 17.616 4.60162 17.8764 4.86197C18.1167 5.10229 18.1352 5.48045 17.9318 5.74197L17.8764 5.80478L15.2097 8.47145C14.9493 8.73179 14.5272 8.73179 14.2669 8.47145C14.0266 8.23112 14.0081 7.85297 14.2114 7.59144L14.2669 7.52864L16.9335 4.86197ZM16.7383 9.33337H12.7383C9.42457 9.33337 6.73828 12.0197 6.73828 15.3334V19.3334C6.73828 22.6471 9.42457 25.3334 12.7383 25.3334H16.7383C20.052 25.3334 22.7383 22.6471 22.7383 19.3334V15.3334C22.7383 12.0197 20.052 9.33337 16.7383 9.33337ZM12.7383 10.6667H16.7383C19.3156 10.6667 21.4049 12.756 21.4049 15.3334V19.3334C21.4049 21.9107 19.3156 24 16.7383 24H12.7383C10.161 24 8.07161 21.9107 8.07161 19.3334V15.3334C8.07161 12.756 10.161 10.6667 12.7383 10.6667Z" fill="#424750"/>
<path d="M5.40487 18V19.3333C5.40487 23.3191 8.58471 26.5622 12.5459 26.6642L12.7382 26.6667H14.7382V28H12.7382C8.02011 28 4.18258 24.2299 4.0739 19.5379L4.07153 19.3333V18H5.40487Z" fill="#9DC797"/>
</svg>