<svg xmlns:xlink="http://www.w3.org/1999/xlink" xmlns="http://www.w3.org/2000/svg" width="33" height="32" viewBox="0 0 33 32" fill="none">
<path fill-rule="evenodd" clip-rule="evenodd" d="M13.0179 14.0001H15.0179V12.6667H12.3512L12.2735 12.6712C11.9419 12.7097 11.6846 12.9915 11.6846 13.3334V19.3334H13.0179V16.6661L14.3401 16.6667V15.3334L13.0179 15.3327V14.0001ZM23.6846 12.6667V14.0001H21.6852L21.6886 15.3327L23.0068 15.3334V16.6667L21.6912 16.6661L21.6946 17.9941L23.6786 17.9765L23.6905 19.3098L21.0357 19.3334C20.6904 19.3365 20.4045 19.0766 20.3672 18.7412L20.3631 18.6682L20.3512 13.3349C20.3505 12.9925 20.608 12.7099 20.94 12.6712L21.0179 12.6667H23.6846ZM27.6846 12.6667V14.0001H25.6852L25.6886 15.3327L27.0068 15.3334V16.6667L25.6912 16.6661L25.6946 17.9941L27.6786 17.9765L27.6905 19.3098L25.0357 19.3334C24.6904 19.3365 24.4045 19.0766 24.3672 18.7412L24.3631 18.6682L24.3512 13.3349C24.3505 12.9925 24.608 12.7099 24.94 12.6712L25.0179 12.6667H27.6846ZM17.6846 12.6667C18.7891 12.6667 19.6846 13.5622 19.6846 14.6667C19.6846 15.3324 19.3593 15.9222 18.8591 16.2857L18.7532 16.3567L18.8016 16.4069C19.3193 16.9679 19.6467 17.7071 19.6815 18.5222L19.6846 18.6667V19.3334H18.3512V18.6667C18.3512 17.8423 17.8523 17.1343 17.14 16.8283L17.0179 16.7801V19.3334H15.6846V13.3334C15.6846 12.9915 15.9419 12.7097 16.2735 12.6712L16.3512 12.6667H17.6846ZM17.0179 14.0001H17.6846L17.7623 14.0046C18.0939 14.0431 18.3512 14.3249 18.3512 14.6667C18.3512 15.0349 18.0528 15.3334 17.6846 15.3334H17.0179V14.0001Z" fill="#9DC797"/>
<path fill-rule="evenodd" clip-rule="evenodd" d="M30.0905 7.99992C30.2378 7.99992 30.3572 8.11931 30.3572 8.26659V9.06659L30.3518 9.12033C30.3269 9.24184 30.2194 9.33325 30.0905 9.33325H29.6905L29.573 9.33665C28.562 9.39522 27.7525 10.2047 27.6939 11.2157L27.6905 11.3333V11.7333L27.6851 11.787C27.6602 11.9085 27.5527 11.9999 27.4238 11.9999H26.6238C26.4766 11.9999 26.3572 11.8805 26.3572 11.7333V11.3333L26.3538 11.2157C26.293 10.1659 25.4223 9.33325 24.3572 9.33325H23.9572C23.8099 9.33325 23.6905 9.21386 23.6905 9.06659V8.26659L23.6959 8.21284C23.7208 8.09133 23.8283 7.99992 23.9572 7.99992H24.3572L24.4747 7.99652C25.4857 7.93795 26.2952 7.12842 26.3538 6.11743L26.3572 5.99992V5.59992L26.3626 5.54618C26.3875 5.42466 26.495 5.33325 26.6238 5.33325H27.4238C27.5711 5.33325 27.6905 5.45264 27.6905 5.59992V5.99992L27.6939 6.11743C27.7547 7.16731 28.6254 7.99992 29.6905 7.99992H30.0905ZM27.052 7.32353L27.0245 7.27137L26.9391 7.41946C26.6109 7.95368 26.1221 8.38948 25.5925 8.6659C26.1702 8.96882 26.6994 9.46005 27.0232 10.0618C27.3483 9.46005 27.8775 8.96882 28.4552 8.66727C27.8943 8.37315 27.3791 7.90151 27.052 7.32353Z" fill="#A63489"/>
<path fill-rule="evenodd" clip-rule="evenodd" d="M9.09867 10.6274C9.42253 9.12549 10.7584 8 12.3571 8H23.0238V9.33333H12.3571L12.2396 9.33673C11.1897 9.39756 10.3571 10.2682 10.3571 11.3333L10.3526 11.4111C10.3141 11.7426 10.0323 12 9.69043 12H7.45127L7.36383 12.0057C7.16248 12.0324 6.98227 12.1499 6.87732 12.3275L5.88899 14H8.3571L8.43484 14.0045C8.7664 14.043 9.02376 14.3248 9.02376 14.6667V18.6667L9.01928 18.7444C8.98077 19.076 8.69899 19.3333 8.3571 19.3333H3.02376V20H4.3571C4.72528 20 5.02376 20.2985 5.02376 20.6667C5.02376 21.0349 4.72528 21.3333 4.3571 21.3333H3.02376V22.6667H5.77444C6.07047 21.5165 7.11453 20.6667 8.3571 20.6667C9.59966 20.6667 10.6437 21.5165 10.9398 22.6667H20.4411C20.7371 21.5165 21.7812 20.6667 23.0238 20.6667C24.2663 20.6667 25.3104 21.5165 25.6064 22.6667H26.3571V20.6667H27.6904V23.3333L27.6859 23.4111C27.6474 23.7426 27.3657 24 27.0238 24H25.6064C25.3104 25.1502 24.2663 26 23.0238 26C21.7812 26 20.7371 25.1502 20.4411 24H10.9398C10.6437 25.1502 9.59966 26 8.3571 26C7.11453 26 6.07047 25.1502 5.77444 24H2.3571L2.27935 23.9955C1.94779 23.957 1.69043 23.6752 1.69043 23.3333V18.6667L1.69638 18.5778C1.70823 18.4897 1.73762 18.4046 1.78315 18.3275L5.72942 11.6492L5.80028 11.5378C6.17129 10.995 6.78816 10.6667 7.45127 10.6667H9.09176L9.09867 10.6274ZM3.52527 18L5.10108 15.3333H7.69043V18H3.52527ZM21.6904 23.3333C21.6904 22.597 22.2874 22 23.0238 22C23.7601 22 24.3571 22.597 24.3571 23.3333C24.3571 24.0697 23.7601 24.6667 23.0238 24.6667C22.2874 24.6667 21.6904 24.0697 21.6904 23.3333ZM7.02376 23.3333C7.02376 22.597 7.62072 22 8.3571 22C9.09348 22 9.69043 22.597 9.69043 23.3333C9.69043 24.0697 9.09348 24.6667 8.3571 24.6667C7.62072 24.6667 7.02376 24.0697 7.02376 23.3333Z" fill="#424750"/>
</svg>