<svg xmlns:xlink="http://www.w3.org/1999/xlink" xmlns="http://www.w3.org/2000/svg" width="33" height="32" viewBox="0 0 33 32" fill="none">
<path fill-rule="evenodd" clip-rule="evenodd" d="M9.05231 10C8.90504 10 8.78564 10.1194 8.78564 10.2667V11.0667L8.79106 11.1204C8.81593 11.242 8.92344 11.3334 9.05231 11.3334H9.45231L9.56983 11.3368C10.5808 11.3953 11.3903 12.2049 11.4489 13.2159L11.4523 13.3334V13.7334L11.4577 13.7871C11.4826 13.9086 11.5901 14 11.719 14H12.519C12.6663 14 12.7856 13.8807 12.7856 13.7334V13.3334L12.789 13.2159C12.8499 12.166 13.7205 11.3334 14.7856 11.3334H15.1856C15.3329 11.3334 15.4523 11.214 15.4523 11.0667V10.2667L15.4469 10.213C15.422 10.0914 15.3145 10 15.1856 10H14.7856L14.6681 9.99665C13.6571 9.93807 12.8476 9.12854 12.789 8.11756L12.7856 8.00004V7.60004L12.7802 7.5463C12.7554 7.42478 12.6478 7.33337 12.519 7.33337H11.719C11.5717 7.33337 11.4523 7.45276 11.4523 7.60004V8.00004L11.4489 8.11756C11.3881 9.16743 10.5174 10 9.45231 10H9.05231ZM12.0908 9.32366L12.1183 9.27149L12.2037 9.41958C12.532 9.9538 13.0207 10.3896 13.5503 10.666C12.9726 10.9689 12.4434 11.4602 12.1196 12.0619C11.7945 11.4602 11.2654 10.9689 10.6876 10.6674C11.2486 10.3733 11.7637 9.90163 12.0908 9.32366Z" fill="#A63489"/>
<path fill-rule="evenodd" clip-rule="evenodd" d="M20.7823 17.2159C20.7215 16.166 19.8508 15.3334 18.7857 15.3334H5.45239L5.33488 15.3368C4.28501 15.3976 3.45239 16.2683 3.45239 17.3334V24L3.45579 24.1176C3.51662 25.1674 4.38727 26 5.45239 26H18.7857L18.9032 25.9966C19.9531 25.9358 20.7857 25.0652 20.7857 24V17.3334L20.7823 17.2159ZM5.45239 16.6667H18.7857C19.1539 16.6667 19.4524 16.9652 19.4524 17.3334V20H15.4524V21.3334H19.4524V24L19.4479 24.0778C19.4094 24.4093 19.1276 24.6667 18.7857 24.6667H5.45239L5.37464 24.6622C5.04309 24.6237 4.78573 24.3419 4.78573 24V21.3334H8.78573V20H4.78573V17.3334L4.79021 17.2556C4.82872 16.9241 5.1105 16.6667 5.45239 16.6667Z" fill="#424750"/>
<path fill-rule="evenodd" clip-rule="evenodd" d="M21.2808 8.47137L20.338 7.52856L17.2 10.6666L20.338 13.8047L21.2808 12.8619L19.7522 11.3333H26.7857L26.9033 11.3367C27.9531 11.3975 28.7857 12.2682 28.7857 13.3333V18L28.7823 18.1175C28.7215 19.1674 27.8509 20 26.7857 20H20.1191V21.3333H26.7857L26.9303 21.3302C28.7042 21.2545 30.1191 19.7925 30.1191 18V13.3333L30.116 13.1887C30.0403 11.4148 28.5782 9.99997 26.7857 9.99997H19.7516L21.2808 8.47137Z" fill="#424750"/>
<rect x="6.78564" y="5.33337" width="2.66667" height="2.66667" rx="1" fill="#9DC797"/>
<path d="M12.1189 18.6666C13.2235 18.6666 14.1189 19.5621 14.1189 20.6666C14.1189 21.7712 13.2235 22.6666 12.1189 22.6666C11.0143 22.6666 10.1189 21.7712 10.1189 20.6666C10.1189 19.5621 11.0143 18.6666 12.1189 18.6666Z" fill="#9DC797"/>
</svg>