<svg xmlns:xlink="http://www.w3.org/1999/xlink" xmlns="http://www.w3.org/2000/svg" width="33" height="32" viewBox="0 0 33 32" fill="none">
<path fill-rule="evenodd" clip-rule="evenodd" d="M23.1953 6.00001C23.048 6.00001 22.9286 6.1194 22.9286 6.26668V7.06668L22.934 7.12042C22.9589 7.24194 23.0664 7.33334 23.1953 7.33334H23.5953L23.7128 7.33674C24.7238 7.39532 25.5333 8.20484 25.5919 9.21583L25.5953 9.33334V9.73334L25.6007 9.78709C25.6255 9.9086 25.7331 10 25.8619 10H26.6619C26.8092 10 26.9286 9.88062 26.9286 9.73334V9.33334L26.932 9.21583C26.9928 8.16596 27.8635 7.33334 28.9286 7.33334H29.3286C29.4759 7.33334 29.5953 7.21395 29.5953 7.06668V6.26668L29.5898 6.21293C29.565 6.09142 29.4575 6.00001 29.3286 6.00001H28.9286L28.8111 5.99662C27.8001 5.93804 26.9906 5.12851 26.932 4.11753L26.9286 4.00001V3.60001L26.9232 3.54627C26.8983 3.42475 26.7908 3.33334 26.6619 3.33334H25.8619C25.7146 3.33334 25.5953 3.45273 25.5953 3.60001V4.00001L25.5919 4.11753C25.531 5.1674 24.6604 6.00001 23.5953 6.00001H23.1953ZM26.2337 5.32363L26.2613 5.27146L26.3467 5.41955C26.6749 5.95377 27.1637 6.38957 27.6933 6.666C27.1155 6.96892 26.5864 7.46014 26.2626 8.0619C25.9375 7.46014 25.4083 6.96892 24.8306 6.66736C25.3915 6.37324 25.9067 5.9016 26.2337 5.32363Z" fill="#A63489"/>
<path fill-rule="evenodd" clip-rule="evenodd" d="M6.07808 4.53485L4.85493 4.67076C4.54503 4.70519 4.3004 4.94983 4.26596 5.25973L4.14125 6.3822C3.77663 9.66373 4.95222 12.9291 7.32484 15.2252L8.43166 16.2963C7.69804 17.1943 7.48147 18.4159 7.87135 19.5167L7.92855 19.6667L9.87752 24.4308C10.1563 25.1124 10.9349 25.4389 11.6164 25.16C11.7475 25.1064 11.869 25.0323 11.9765 24.9407L12.0544 24.8688L14.5644 22.3588L16.6737 26.3137L16.7173 26.3849C16.9536 26.7213 17.4475 26.7683 17.7421 26.4624L26.4088 17.4624L26.4634 17.3983C26.7121 17.0664 26.599 16.5772 26.2105 16.3959L22.073 14.4651L24.0531 12.485L24.1338 12.3967C24.2104 12.3049 24.2744 12.2031 24.3241 12.0939C24.6288 11.4235 24.3324 10.6331 23.662 10.3284L18.8868 8.15781L18.7399 8.09521C17.7053 7.68319 16.5429 7.81897 15.6375 8.43277L14.7985 7.59381C12.5072 5.30253 9.29862 4.17702 6.07808 4.53485ZM21.0814 15.4737L18.774 17.9026L21.504 20.6327L24.8006 17.2093L21.0814 15.4737ZM15.5236 21.3241L17.8553 18.8696L20.579 21.5933L17.4179 24.876L15.5236 21.3241ZM9.16262 19.1618C8.89766 18.5142 8.99271 17.7833 9.39551 17.2291L13.6709 21.3666L11.1116 23.926L9.16262 19.1618ZM16.6097 9.40504L20.9286 13.7239L23.1102 11.5422L18.335 9.37164C17.7744 9.11679 17.1404 9.13861 16.6097 9.40504ZM19.9972 14.6787L14.5752 20.386L8.25207 14.2671L8.07162 14.0876C6.11668 12.0899 5.15677 9.31633 5.46642 6.52944L5.53189 5.93668L6.22532 5.86003C9.0433 5.54692 11.8508 6.53175 13.8557 8.53662L19.9972 14.6787ZM29.4 28.1953L24.0666 22.8619L23.1238 23.8048L28.4572 29.1381L29.4 28.1953ZM26.0666 20.8619L29.4 24.1953L28.4572 25.1381L25.1238 21.8048L26.0666 20.8619ZM25.4 28.1953L22.0666 24.8619L21.1238 25.8048L24.4572 29.1381L25.4 28.1953Z" fill="#424750"/>
<circle cx="10.9286" cy="11.3333" r="2" fill="#9DC797"/>
<rect x="4.26196" y="22.6667" width="2.66667" height="2.66667" rx="1" fill="#9DC797"/>
<rect x="19.5952" y="3.33334" width="2" height="2" rx="1" fill="#9DC797"/>
<rect x="12.9286" y="26.6667" width="2" height="2" rx="1" fill="#9DC797"/>
</svg>