<svg width="88" height="22" viewBox="0 0 88 22" fill="none" xmlns="http://www.w3.org/2000/svg">
<path fill-rule="evenodd" clip-rule="evenodd" d="M13.2874 0.464844C17.5856 0.464844 21.0704 3.94857 21.0704 8.24671V13.7544C21.0704 18.0515 17.5856 21.5353 13.2874 21.5353H1.09475C0.494544 21.5353 0.00716359 21.0506 0.00537269 20.45L0 1.55472C0 0.953129 0.48738 0.464844 1.08938 0.464844H13.2874ZM14.6116 8.19085C13.6034 9.34467 12.1207 10.0726 10.4675 10.0726C8.82728 10.0726 7.35465 9.35516 6.34715 8.21693C6.19159 8.04096 5.92014 8.0338 5.75487 8.19903L4.75555 9.19811C4.60256 9.35132 4.59411 9.59943 4.73994 9.75929C5.48163 10.567 6.39243 11.2157 7.41478 11.6544V15.7939C7.41478 16.3781 7.8886 16.8516 8.47294 16.8516H12.5068C13.0912 16.8516 13.5647 16.3781 13.5647 15.7939V11.6503C14.5873 11.2103 15.4981 10.5596 16.2388 9.75034C16.3856 9.59048 16.3775 9.34314 16.2242 9.18992L15.2054 8.17141C15.0384 8.00438 14.7664 8.01333 14.6116 8.19085ZM10.6543 11.4896L11.0715 12.3347C11.0981 12.389 11.1498 12.4263 11.2097 12.435L12.1425 12.5706C12.2929 12.5923 12.353 12.7772 12.2443 12.8834L11.5691 13.5413C11.5259 13.5835 11.5062 13.6441 11.5164 13.7034L11.6758 14.6324C11.7014 14.7823 11.5443 14.8966 11.4095 14.8258L10.5752 14.3874C10.5217 14.3592 10.458 14.3592 10.4046 14.3874L9.56999 14.8258C9.43542 14.8966 9.27808 14.7823 9.30392 14.6324L9.46331 13.7034C9.47354 13.6441 9.45358 13.5835 9.4106 13.5413L8.73544 12.8834C8.62645 12.7772 8.68657 12.5923 8.837 12.5706L9.77006 12.435C9.82967 12.4263 9.88135 12.389 9.90822 12.3347L10.3255 11.4896C10.3928 11.3533 10.587 11.3533 10.6543 11.4896ZM10.4899 5.17218C9.6525 5.17218 8.9735 5.85102 8.9735 6.68819C8.9735 7.52561 9.6525 8.2042 10.4899 8.2042C11.3272 8.2042 12.0063 7.52561 12.0063 6.68819C12.0063 5.85102 11.3272 5.17218 10.4899 5.17218Z" fill="white"/>
<path fill-rule="evenodd" clip-rule="evenodd" d="M45.2382 6.17244C45.3403 6.17244 45.4829 6.23147 45.5548 6.30294L46.6206 7.36735L46.6278 7.37635V6.6198C46.6278 6.37282 46.8288 6.17244 47.0761 6.17244H48.5699C48.7924 6.17244 48.9787 6.31459 49.0469 6.51153C49.0522 6.53562 49.054 6.56077 49.054 6.58671V15.8535C49.054 17.4217 48.085 18.7574 46.6996 19.2585C46.3213 19.3956 45.9117 19.4697 45.4829 19.4697H43.4451C43.2542 19.4697 43.0739 19.3946 42.9384 19.2585C42.6786 18.9935 42.3262 18.6348 41.98 18.2828C41.5372 17.8362 41.8572 17.0781 42.4866 17.0781H45.4747C45.9159 17.0781 46.2998 16.8335 46.4971 16.4729C46.5894 16.3046 46.6278 16.1129 46.6278 15.9215V15.8633H42.6927C42.4668 15.8633 42.2462 15.8411 42.033 15.7987C40.4926 15.4273 39.3485 14.0415 39.3485 12.3908V9.67776C39.3485 7.74139 40.9202 6.17244 42.8594 6.17244H45.2382ZM65.7199 2.54553C65.9665 2.54553 66.1682 2.74698 66.1682 2.99316V15.3716C66.1682 15.6461 65.9434 15.8706 65.6685 15.8706H64.2373C63.9602 15.8706 63.7378 15.6461 63.7378 15.3716V3.04452C63.7378 2.77027 63.9602 2.54553 64.2373 2.54553H65.7199ZM80.2724 2.54516C80.52 2.54516 80.7207 2.74555 80.7207 2.99279V6.1794H84.6558C84.8817 6.1794 85.1023 6.2019 85.3158 6.24399C86.8559 6.61538 88 8.00115 88 9.65189V12.3641C88 14.3005 86.4275 15.8705 84.488 15.8705H82.131C82.0352 15.8705 81.9427 15.8401 81.8666 15.7837C81.8478 15.771 81.8298 15.7559 81.8136 15.7397L81.8128 15.739L80.7197 14.643V15.4229C80.7197 15.6691 80.5181 15.8705 80.2716 15.8705H78.7778C78.5554 15.8705 78.369 15.7281 78.3008 15.5312C78.2953 15.5071 78.2937 15.4819 78.2937 15.456V2.99279C78.2937 2.74555 78.4944 2.54516 78.742 2.54516H80.2724ZM69.3565 6.18262C69.6052 6.18157 69.8072 6.38222 69.8072 6.63026V12.4097C69.8072 12.9828 70.2725 13.4474 70.8463 13.4474H74.6595L74.6571 6.63449C74.6571 6.38725 74.8578 6.1866 75.1054 6.1866H76.6371C76.8847 6.1866 77.0854 6.38698 77.0854 6.63423L77.0865 15.456C77.0865 15.482 76.8248 15.8706 76.6026 15.8706H75.1089C74.8623 15.8706 74.6605 15.6691 74.6605 15.4229V14.6431L73.5676 15.739C73.5504 15.7559 73.5326 15.771 73.5135 15.7837C73.4375 15.8399 73.3452 15.8706 73.2492 15.8706H70.8922C68.9524 15.8706 67.3802 14.3006 67.3802 12.3642V6.6382C67.3802 6.39175 67.5796 6.19189 67.8261 6.19057L69.3565 6.18262ZM60.5609 6.15089C60.7051 6.14665 60.8459 6.20198 60.9472 6.3031L62.3702 7.72381C62.6894 8.04252 62.4786 8.60186 62.0295 8.60186L61.4469 8.60193C61.4232 8.60194 61.3991 8.60194 61.3745 8.60195L60.2462 8.60218C60.2143 8.60219 60.1822 8.6022 60.1499 8.60221L59.0785 8.60246C59.0468 8.60247 59.0151 8.60248 58.9837 8.60248L58.0396 8.60272C58.0148 8.60272 57.9904 8.60273 57.9664 8.60274L57.2518 8.60292C56.6777 8.60292 56.2124 9.06722 56.2124 9.64033V12.4108C56.2124 12.9836 56.6769 13.4474 57.2507 13.4482L62.0754 13.4474C62.3227 13.4474 62.5234 13.6478 62.5234 13.895V15.423C62.5234 15.6699 62.3227 15.8706 62.0754 15.8706H57.1298C56.9036 15.8706 56.683 15.8481 56.4696 15.806C54.9294 15.4346 53.7854 14.0488 53.7854 12.3981V9.68586C53.7854 8.08091 54.8666 6.72664 56.3408 6.31024C56.5659 6.24751 56.7997 6.20648 57.041 6.18874C57.1253 6.18239 57.2112 6.17948 57.2974 6.17948L57.3384 6.17935C57.3451 6.17933 57.3526 6.1793 57.3608 6.17928L57.4189 6.17908C57.9515 6.17725 60.075 6.16891 60.5609 6.15089ZM34.0469 2.53076C34.2942 2.53076 34.4952 2.73141 34.4952 2.97839V15.4416C34.4952 15.4675 34.4934 15.4927 34.4881 15.5168C34.4199 15.7137 34.2333 15.8561 34.0111 15.8561H32.5173C32.2707 15.8561 32.069 15.6547 32.069 15.4085V14.6289L30.9761 15.7246C30.9591 15.7415 30.9411 15.7566 30.9223 15.7693C30.8462 15.8257 30.7536 15.8561 30.6579 15.8561H28.3006C26.3614 15.8561 24.7887 14.2858 24.7887 12.3497V9.63749C24.7887 7.98675 25.9327 6.60098 27.4731 6.22959C27.6865 6.1875 27.9069 6.165 28.133 6.165H32.0682V2.97839C32.0682 2.73141 32.2689 2.53076 32.5162 2.53076H34.0469ZM37.6869 6.16531C37.9345 6.16531 38.1353 6.3657 38.1353 6.61294V15.4085C38.1353 15.6558 37.9345 15.8562 37.6869 15.8562H36.1566C35.9089 15.8562 35.7082 15.6558 35.7082 15.4085V6.61294C35.7082 6.3657 35.9089 6.16531 36.1566 6.16531H37.6869ZM52.246 6.16531C52.4936 6.16531 52.6943 6.3657 52.6943 6.61294V15.4085C52.6943 15.6558 52.4936 15.8562 52.246 15.8562H50.7156C50.468 15.8562 50.2673 15.6558 50.2673 15.4085V6.61294C50.2673 6.3657 50.468 6.16531 50.7156 6.16531H52.246ZM84.5347 8.60178H80.7207V13.4473H84.5339C85.1076 13.4473 85.5729 12.9828 85.5729 12.4097V9.63919C85.5729 9.06635 85.1087 8.60258 84.5347 8.60178ZM46.6278 8.5882H42.8138C42.2401 8.5882 41.7748 9.05304 41.7748 9.62587V12.3964C41.7748 12.9692 42.239 13.433 42.813 13.4338H46.6278V8.5882ZM32.0682 8.58738H28.2542C27.6802 8.58844 27.2157 9.05195 27.2157 9.62479V12.3955C27.2157 12.9684 27.681 13.4329 28.255 13.4329H32.0682V8.58738ZM52.246 2.54548C52.4936 2.54548 52.6943 2.74587 52.6943 2.99311V4.52076C52.6943 4.768 52.4936 4.96839 52.246 4.96839H50.7156C50.468 4.96839 50.2673 4.768 50.2673 4.52076V2.99311C50.2673 2.74587 50.468 2.54548 50.7156 2.54548H52.246ZM37.6869 2.53113C37.9345 2.53113 38.1353 2.73152 38.1353 2.97876V4.50642C38.1353 4.75366 37.9345 4.95404 37.6869 4.95404H36.1566C35.9089 4.95404 35.7082 4.75366 35.7082 4.50642V2.97876C35.7082 2.73152 35.9089 2.53113 36.1566 2.53113H37.6869Z" fill="white"/>
</svg>
