<svg width="94" height="24" viewBox="0 0 94 24" fill="none" xmlns="http://www.w3.org/2000/svg">
<path fill-rule="evenodd" clip-rule="evenodd" d="M13.1708 0C13.5595 0 14.0488 0.490521 14.0488 0.878049V17.8537C14.0488 18.2411 13.5595 18.7317 13.1708 18.7317H11.4147C11.0261 18.7317 10.5366 18.2413 10.5366 17.8537V17.2683L9.61593 18.2535C9.36649 18.5306 8.88546 18.7317 8.48787 18.7317H5.26835C2.44341 18.7317 6.10352e-05 16.2818 6.10352e-05 13.4634V9.97802C6.10352e-05 7.15967 2.44341 4.68293 5.26835 4.68293H10.5366V0.878049C10.5366 0.490521 11.0261 0 11.4147 0H13.1708ZM3.51226 13.4634C3.51226 14.3703 4.35931 15.2195 5.26835 15.2195H10.5366V8.19512H5.26835C4.35931 8.19512 3.51226 9.0443 3.51226 9.95122V13.4634ZM35.122 5.56098V18.7317V19.0244C35.122 21.8427 32.6787 24 29.8537 24H27.1391C26.7351 24 26.3545 23.8111 26.1108 23.4895L24.5656 21.4492C24.3089 21.1106 24.4525 20.4878 24.8781 20.4878H29.8537C30.7628 20.4878 31.6098 19.9313 31.6098 19.0244V18.7317H26.3415C23.5167 18.7317 21.0732 16.2818 21.0732 13.4634V9.95122C21.0732 7.133 23.5167 4.68293 26.3415 4.68293H29.561C29.9639 4.68293 30.403 5.00703 30.6875 5.26829L31.6098 6.14634V5.56098C31.6098 5.17411 32.1002 4.68293 32.4879 4.68293H34.244C34.6324 4.68293 35.122 5.17332 35.122 5.56098ZM31.6098 8.19512H26.3415C25.4323 8.19512 24.5854 9.04429 24.5854 9.95122V13.4634C24.5854 14.3706 25.4323 15.2195 26.3415 15.2195H31.6098V8.19512ZM42.1464 18.7317V5.56098C42.1464 5.17332 42.636 4.68293 43.0245 4.68293H44.7806C45.1682 4.68293 45.6586 5.17411 45.6586 5.56098V6.14634L46.5809 5.26829C46.8654 5.00703 47.3045 4.68293 47.7074 4.68293H50.9269C53.7517 4.68293 56.1952 7.133 56.1952 9.95122V13.4634C56.1952 16.2818 53.7517 18.7317 50.9269 18.7317H45.6586V22.5C45.6586 23.3284 44.987 24 44.1586 24H43.6464C42.818 24 42.1464 23.3284 42.1464 22.5V18.7317ZM50.9269 8.19512H45.6586V15.2195H50.9269C51.8361 15.2195 52.683 14.3706 52.683 13.4634V9.95122C52.683 9.04429 51.8361 8.19512 50.9269 8.19512ZM77.2684 6.18268C77.2684 5.35435 76.5969 4.68281 75.7686 4.68268L75.2564 4.68259C74.4279 4.68245 73.7562 5.35407 73.7562 6.18259V12.878L73.753 12.9752C73.6954 13.8466 72.8746 14.6341 72.0001 14.6341H68.4879L68.3909 14.6309C67.5211 14.5736 66.7318 13.7548 66.7318 12.878V6.18259C66.7318 5.35407 66.0601 4.68245 65.2315 4.68259L64.7193 4.68268C63.891 4.68281 63.2196 5.35435 63.2196 6.18268V12.878L63.2219 13.029C63.3072 15.7894 65.7198 18.1463 68.4879 18.1463H72.0001L72.1507 18.144C74.905 18.059 77.2684 15.6524 77.2684 12.878V6.18268ZM37.7562 0C37.3679 0 36.8781 0.490521 36.8781 0.878049V2.63415C36.8781 3.02167 37.3679 3.5122 37.7562 3.5122H39.5123C39.9007 3.5122 40.3903 3.02167 40.3903 2.63415V0.878049C40.3903 0.490521 39.9007 0 39.5123 0H37.7562ZM36.8781 5.56098C36.8781 5.17358 37.3679 4.68293 37.7562 4.68293H39.5123C39.9007 4.68293 40.3903 5.17358 40.3903 5.56098V17.8537C40.3903 18.2411 39.9007 18.7317 39.5123 18.7317L37.8938 18.75C37.5055 18.75 36.8781 18.2411 36.8781 17.8537V5.56098ZM16.683 0C16.2946 0 15.8049 0.490521 15.8049 0.878049V2.63415C15.8049 3.02167 16.2946 3.5122 16.683 3.5122H18.4391C18.8275 3.5122 19.3171 3.02167 19.3171 2.63415V0.878049C19.3171 0.490521 18.8275 0 18.4391 0H16.683ZM15.8049 5.56098C15.8049 5.17358 16.2946 4.68293 16.683 4.68293H18.4391C18.8275 4.68293 19.3171 5.17358 19.3171 5.56098V17.8537C19.3171 18.2411 18.8275 18.7317 18.4391 18.7317H16.683C16.2946 18.7317 15.8049 18.2411 15.8049 17.8537V5.56098ZM61.4635 0.878049V17.8537C61.4635 18.2411 60.974 18.7317 60.5854 18.7317H58.8293C58.4408 18.7317 57.9513 18.2411 57.9513 17.8537V0.878049C57.9513 0.490521 58.4408 0 58.8293 0H60.5854C60.974 0 61.4635 0.490521 61.4635 0.878049ZM79.6098 17.2317C79.6098 18.0601 80.2814 18.7317 81.1098 18.7317H89.0516C91.2103 18.7317 93.0275 17.0206 93.0724 14.8509C93.1105 12.9996 91.8768 11.3774 90.0986 10.9243L82.859 9.07965C82.637 9.02307 82.4905 8.80444 82.5312 8.56842C82.5687 8.35189 82.7686 8.20135 82.9872 8.20135L90.9879 8.20143C91.8163 8.20144 92.4879 7.52986 92.4879 6.70143V6.18293C92.4879 5.3545 91.8163 4.68293 90.9879 4.68293H83.046C80.8873 4.68293 79.0701 6.39397 79.0253 8.56366C78.9871 10.415 80.2209 12.0371 81.999 12.4902L89.2387 14.335C89.4606 14.3916 89.6073 14.6102 89.5664 14.8462C89.529 15.0627 89.3291 15.2132 89.1105 15.2132H81.1098C80.2814 15.2132 79.6098 15.8848 79.6098 16.7132V17.2317Z" fill="#A63489"/>
<mask id="mask0" mask-type="alpha" maskUnits="userSpaceOnUse" x="0" y="0" width="94" height="24">
<path fill-rule="evenodd" clip-rule="evenodd" d="M13.1708 0C13.5595 0 14.0488 0.490521 14.0488 0.878049V17.8537C14.0488 18.2411 13.5595 18.7317 13.1708 18.7317H11.4147C11.0261 18.7317 10.5366 18.2413 10.5366 17.8537V17.2683L9.61593 18.2535C9.36649 18.5306 8.88546 18.7317 8.48787 18.7317H5.26835C2.44341 18.7317 6.10352e-05 16.2818 6.10352e-05 13.4634V9.97802C6.10352e-05 7.15967 2.44341 4.68293 5.26835 4.68293H10.5366V0.878049C10.5366 0.490521 11.0261 0 11.4147 0H13.1708ZM3.51226 13.4634C3.51226 14.3703 4.35931 15.2195 5.26835 15.2195H10.5366V8.19512H5.26835C4.35931 8.19512 3.51226 9.0443 3.51226 9.95122V13.4634ZM35.122 5.56098V18.7317V19.0244C35.122 21.8427 32.6787 24 29.8537 24H27.1391C26.7351 24 26.3545 23.8111 26.1108 23.4895L24.5656 21.4492C24.3089 21.1106 24.4525 20.4878 24.8781 20.4878H29.8537C30.7628 20.4878 31.6098 19.9313 31.6098 19.0244V18.7317H26.3415C23.5167 18.7317 21.0732 16.2818 21.0732 13.4634V9.95122C21.0732 7.133 23.5167 4.68293 26.3415 4.68293H29.561C29.9639 4.68293 30.403 5.00703 30.6875 5.26829L31.6098 6.14634V5.56098C31.6098 5.17411 32.1002 4.68293 32.4879 4.68293H34.244C34.6324 4.68293 35.122 5.17332 35.122 5.56098ZM31.6098 8.19512H26.3415C25.4323 8.19512 24.5854 9.04429 24.5854 9.95122V13.4634C24.5854 14.3706 25.4323 15.2195 26.3415 15.2195H31.6098V8.19512ZM42.1464 18.7317V5.56098C42.1464 5.17332 42.636 4.68293 43.0245 4.68293H44.7806C45.1682 4.68293 45.6586 5.17411 45.6586 5.56098V6.14634L46.5809 5.26829C46.8654 5.00703 47.3045 4.68293 47.7074 4.68293H50.9269C53.7517 4.68293 56.1952 7.133 56.1952 9.95122V13.4634C56.1952 16.2818 53.7517 18.7317 50.9269 18.7317H45.6586V22.5C45.6586 23.3284 44.987 24 44.1586 24H43.6464C42.818 24 42.1464 23.3284 42.1464 22.5V18.7317ZM50.9269 8.19512H45.6586V15.2195H50.9269C51.8361 15.2195 52.683 14.3706 52.683 13.4634V9.95122C52.683 9.04429 51.8361 8.19512 50.9269 8.19512ZM77.2684 6.18268C77.2684 5.35435 76.5969 4.68281 75.7686 4.68268L75.2564 4.68259C74.4279 4.68245 73.7562 5.35407 73.7562 6.18259V12.878L73.753 12.9752C73.6954 13.8466 72.8746 14.6341 72.0001 14.6341H68.4879L68.3909 14.6309C67.5211 14.5736 66.7318 13.7548 66.7318 12.878V6.18259C66.7318 5.35407 66.0601 4.68245 65.2315 4.68259L64.7193 4.68268C63.891 4.68281 63.2196 5.35435 63.2196 6.18268V12.878L63.2219 13.029C63.3072 15.7894 65.7198 18.1463 68.4879 18.1463H72.0001L72.1507 18.144C74.905 18.059 77.2684 15.6524 77.2684 12.878V6.18268ZM37.7562 0C37.3679 0 36.8781 0.490521 36.8781 0.878049V2.63415C36.8781 3.02167 37.3679 3.5122 37.7562 3.5122H39.5123C39.9007 3.5122 40.3903 3.02167 40.3903 2.63415V0.878049C40.3903 0.490521 39.9007 0 39.5123 0H37.7562ZM36.8781 5.56098C36.8781 5.17358 37.3679 4.68293 37.7562 4.68293H39.5123C39.9007 4.68293 40.3903 5.17358 40.3903 5.56098V17.8537C40.3903 18.2411 39.9007 18.7317 39.5123 18.7317L37.8938 18.75C37.5055 18.75 36.8781 18.2411 36.8781 17.8537V5.56098ZM16.683 0C16.2946 0 15.8049 0.490521 15.8049 0.878049V2.63415C15.8049 3.02167 16.2946 3.5122 16.683 3.5122H18.4391C18.8275 3.5122 19.3171 3.02167 19.3171 2.63415V0.878049C19.3171 0.490521 18.8275 0 18.4391 0H16.683ZM15.8049 5.56098C15.8049 5.17358 16.2946 4.68293 16.683 4.68293H18.4391C18.8275 4.68293 19.3171 5.17358 19.3171 5.56098V17.8537C19.3171 18.2411 18.8275 18.7317 18.4391 18.7317H16.683C16.2946 18.7317 15.8049 18.2411 15.8049 17.8537V5.56098ZM61.4635 0.878049V17.8537C61.4635 18.2411 60.974 18.7317 60.5854 18.7317H58.8293C58.4408 18.7317 57.9513 18.2411 57.9513 17.8537V0.878049C57.9513 0.490521 58.4408 0 58.8293 0H60.5854C60.974 0 61.4635 0.490521 61.4635 0.878049ZM79.6098 17.2317C79.6098 18.0601 80.2814 18.7317 81.1098 18.7317H89.0516C91.2103 18.7317 93.0275 17.0206 93.0724 14.8509C93.1105 12.9996 91.8768 11.3774 90.0986 10.9243L82.859 9.07965C82.637 9.02307 82.4905 8.80444 82.5312 8.56842C82.5687 8.35189 82.7686 8.20135 82.9872 8.20135L90.9879 8.20143C91.8163 8.20144 92.4879 7.52986 92.4879 6.70143V6.18293C92.4879 5.3545 91.8163 4.68293 90.9879 4.68293H83.046C80.8873 4.68293 79.0701 6.39397 79.0253 8.56366C78.9871 10.415 80.2209 12.0371 81.999 12.4902L89.2387 14.335C89.4606 14.3916 89.6073 14.6102 89.5664 14.8462C89.529 15.0627 89.3291 15.2132 89.1105 15.2132H81.1098C80.2814 15.2132 79.6098 15.8848 79.6098 16.7132V17.2317Z" fill="white"/>
</mask>
<g mask="url(#mask0)">
<rect x="6.10352e-05" width="93" height="24" fill="#A63489"/>
</g>
</svg>
