<svg xmlns:xlink="http://www.w3.org/1999/xlink" xmlns="http://www.w3.org/2000/svg" width="104" height="65" viewBox="0 0 104 65" fill="none">
<path fill-rule="evenodd" clip-rule="evenodd" d="M17.1936 39.2047L23.9333 47.9006C24.3306 48.413 25.074 48.5109 25.5937 48.1193C25.6772 48.0564 25.7518 47.9828 25.8155 47.9006L32.5562 39.2047H43.8264C47.0973 39.2047 49.7489 36.5903 49.7489 33.3652V8.83947C49.7489 5.61442 47.0973 3 43.8264 3H5.92247C2.65157 3 -1.90735e-05 5.61442 -1.90735e-05 8.83947V30.4255C-1.90735e-05 35.2741 3.93057 39.2047 8.7792 39.2047H17.1936Z" fill="url(#paint0_linear_2672_6799)"/>
<path fill-rule="evenodd" clip-rule="evenodd" d="M32.4682 19.4398H32.624C33.0241 19.4398 33.3488 19.7644 33.3488 20.1651V22.4146C33.3488 22.8147 33.0241 23.1396 32.624 23.1396H32.5225C32.482 23.1443 32.441 23.1458 32.3994 23.1425C30.7697 23.0206 29.1539 23.6114 27.9875 24.7778C26.821 25.9445 26.2306 27.5607 26.3525 29.1904C26.3535 29.204 26.3529 29.2171 26.3523 29.2301C26.352 29.2366 26.3517 29.243 26.3516 29.2495H26.3522V29.4054C26.3522 29.8055 26.0277 30.1303 25.6274 30.1303H23.3784C22.978 30.1303 22.6533 29.8055 22.6533 29.4054V29.2495L22.663 29.2477C22.6629 29.241 22.6626 29.2343 22.6622 29.2277C22.6615 29.2155 22.6609 29.2033 22.6618 29.1904C22.7841 27.5607 22.1933 25.9445 21.0269 24.7778C19.8607 23.6114 18.2446 23.0206 16.615 23.1425C16.5733 23.1458 16.5323 23.1443 16.4921 23.1396H16.3932C15.9929 23.1396 15.6685 22.8147 15.6685 22.4146V20.1651C15.6685 19.7644 15.9929 19.4398 16.3932 19.4398H16.5488L16.5497 19.444C16.5556 19.4438 16.5614 19.4436 16.5672 19.4433C16.583 19.4427 16.5988 19.442 16.615 19.4431C18.2446 19.5653 19.8607 18.9745 21.0269 17.8075C22.1933 16.6413 22.7841 15.0249 22.6618 13.3949C22.6608 13.38 22.6615 13.3653 22.6623 13.3508C22.6626 13.3448 22.6628 13.3388 22.663 13.3329L22.6533 13.3308V13.1749C22.6533 12.7745 22.978 12.45 23.3784 12.45H25.6274C26.0277 12.45 26.3522 12.7745 26.3522 13.1749V13.3308H26.3513C26.3515 13.3372 26.3518 13.3435 26.3521 13.3499C26.3528 13.3648 26.3535 13.3797 26.3525 13.3949C26.2306 15.0249 26.821 16.6413 27.9875 17.8075C29.1539 18.9745 30.7697 19.5653 32.3994 19.4431C32.416 19.4418 32.4324 19.4425 32.4487 19.4433C32.4549 19.4435 32.4611 19.4438 32.4673 19.444L32.4682 19.4398ZM24.5088 25.7102C24.9241 24.739 25.5223 23.8424 26.2881 23.0757C27.056 22.3066 27.9553 21.7062 28.9287 21.2901C27.9553 20.8741 27.056 20.2734 26.2881 19.5046C25.5223 18.7382 24.9241 17.8406 24.5088 16.87C24.0932 17.8406 23.495 18.7382 22.7292 19.5046C21.9613 20.2734 21.062 20.8741 20.0886 21.2901C21.062 21.7062 21.9613 22.3066 22.7292 23.0757C23.495 23.8424 24.0932 24.739 24.5088 25.7102Z" fill="white"/>
<g clip-path="url(#clip0_2672_6799)">
<path fill-rule="evenodd" clip-rule="evenodd" d="M58.7533 55.7557L65.3219 19.3811L169.225 27.1331V64.0088L58.7533 55.7557Z" fill="url(#paint1_linear_2672_6799)"/>
<path fill-rule="evenodd" clip-rule="evenodd" d="M40.4632 33.7231C40.4632 41.8219 46.7917 48.4289 54.7299 48.7819L59.2469 54.8415C59.5668 55.2708 60.1709 55.357 60.5961 55.0341C60.6684 54.9793 60.7326 54.9144 60.787 54.8415L65.2939 48.7945C73.4227 48.6547 79.9697 41.9606 79.9697 33.7231C79.9697 25.3981 73.2829 18.6494 65.0343 18.6494L55.5369 18.6494C47.2119 18.6494 40.4632 25.3981 40.4632 33.7231Z" fill="url(#paint2_linear_2672_6799)"/>
<path fill-rule="evenodd" clip-rule="evenodd" d="M39 33.7231C39 41.8219 45.3284 48.4289 53.2667 48.7819L57.7836 54.8415C58.1035 55.2708 58.7076 55.357 59.1329 55.0341C59.2051 54.9793 59.2694 54.9145 59.3237 54.8415L63.8306 48.7945C71.9595 48.6547 78.5065 41.9606 78.5065 33.7231C78.5065 25.3981 71.8197 18.6494 63.5711 18.6494L54.0736 18.6494C45.7487 18.6494 39 25.3981 39 33.7231Z" fill="url(#paint3_linear_2672_6799)"/>
<ellipse rx="3.37534" ry="3.29221" transform="matrix(-1 0 0 1 58.3875 33.6472)" fill="white"/>
<ellipse rx="2.16986" ry="2.11642" transform="matrix(-1 0 0 1 66.8259 33.6472)" fill="white"/>
<ellipse rx="2.16986" ry="2.11642" transform="matrix(-1 0 0 1 49.9492 33.6472)" fill="white"/>
</g>
<defs>
<linearGradient id="paint0_linear_2672_6799" x1="33.8355" y1="57.8707" x2="-13.1449" y2="24.9064" gradientUnits="userSpaceOnUse">
<stop stop-color="#941B80"/>
<stop offset="0.495575" stop-color="#BB1196"/>
<stop offset="1" stop-color="#E206AC"/>
</linearGradient>
<linearGradient id="paint1_linear_2672_6799" x1="58.7533" y1="31.233" x2="117.43" y2="31.233" gradientUnits="userSpaceOnUse">
<stop stop-color="#F4CE44" stop-opacity="0.12"/>
<stop offset="1" stop-color="#F4CE44" stop-opacity="0"/>
</linearGradient>
<linearGradient id="paint2_linear_2672_6799" x1="50.6063" y1="15.4963" x2="88.7871" y2="36.6701" gradientUnits="userSpaceOnUse">
<stop stop-color="#F3CB41"/>
<stop offset="1" stop-color="#DB9402"/>
</linearGradient>
<linearGradient id="paint3_linear_2672_6799" x1="50.8673" y1="7.59785" x2="84.1801" y2="21.0465" gradientUnits="userSpaceOnUse">
<stop stop-color="#FFF7C7"/>
<stop offset="0.35719" stop-color="#FFE868"/>
<stop offset="1" stop-color="#F3CB41"/>
</linearGradient>
<clipPath id="clip0_2672_6799">
<rect width="130.225" height="45.3593" fill="white" transform="translate(39 18.6494)"/>
</clipPath>
</defs>
</svg>