<svg width="80" height="24" viewBox="0 0 80 24" fill="none" xmlns="http://www.w3.org/2000/svg">
    <path d="M79.2739 0.100635C78.911 0.0503129 78.548 0 78.1851 0C77.4074 0 76.8371 0.15096 76.4742 0.402571C76.1112 0.704504 75.9038 1.1574 75.9038 1.81158V11.876C75.9038 13.1341 75.5409 14.0399 74.8151 14.6437C74.0892 15.2476 73.1041 15.5495 71.8598 15.5495C70.9265 15.5495 70.097 15.4489 69.3711 15.1973C68.6453 14.9457 68.0231 14.6941 67.5046 14.4424V12.4799C67.5046 12.3289 67.5046 12.2283 67.5046 12.0773V0.352246C67.3491 0.301924 67.0899 0.201282 66.7788 0.15096H66.7269C66.4159 0.100638 66.0529 0.0503099 65.6381 0.0503099C64.8604 0.0503099 64.2901 0.201286 63.9272 0.452896C63.5643 0.754829 63.3569 1.20772 63.3569 1.86191V11.9263C63.3569 13.1844 62.9939 14.0902 62.2681 14.6941C61.5422 15.2979 60.5571 15.5999 59.3128 15.5999C58.3796 15.5999 57.55 15.4992 56.8242 15.2476C56.0983 14.996 55.4761 14.7444 54.9577 14.4928V5.28383C54.9577 5.28383 54.9577 5.28383 54.9058 5.28383V5.2335C54.6984 5.13286 54.4392 5.08254 54.1281 5.03221C53.7652 4.98189 53.4022 4.93156 53.0393 4.93156C52.2616 4.93156 51.6913 5.08252 51.3284 5.33414C50.9654 5.63607 50.758 6.08898 50.758 6.74316V11.876C50.758 13.1341 50.3951 14.0399 49.6693 14.6437C48.9434 15.2476 46.714 15.1973 46.714 15.1973L35.3077 15.147C34.5299 15.147 33.9596 14.996 33.5967 14.6437C33.2338 14.2915 32.9227 13.7883 32.6635 13.0334L27.738 0.100635C27.5306 0.100635 27.2714 0.100638 26.9084 0.15096C26.5455 0.201282 26.1826 0.30193 25.8196 0.452896C25.0938 0.704507 24.6272 1.05676 24.3679 1.40901C24.1087 1.81159 24.1087 2.31481 24.3679 2.91868L27.8417 11.876C27.8417 11.876 27.8417 11.876 27.8417 11.9263C28.3602 13.285 27.2714 14.6941 25.7678 14.6941H18.0944C17.9907 14.8953 17.9389 15.147 17.8871 15.4489C17.8352 15.7508 17.7834 16.1031 17.7834 16.5057C17.7834 17.2605 17.9389 17.814 18.1981 18.1663C18.5092 18.5185 18.9758 18.7198 19.6499 18.7198H27.3751C29.6045 18.7198 30.8488 17.4114 31.3154 16.6566C31.8857 17.5121 32.4561 18.0656 33.0782 18.4179C33.6485 18.7198 34.5299 18.8205 35.2558 18.8205C35.2558 18.8205 47.2325 18.7702 47.4398 18.7702C49.5656 18.6695 51.2247 18.1663 52.5208 17.2102C53.2467 17.6127 54.1281 17.965 55.2169 18.2669C56.4094 18.6192 57.7574 18.8205 59.261 18.8205C61.7496 18.8205 63.7198 18.2669 65.1715 17.2605C65.8455 17.6127 66.7269 17.965 67.7639 18.3173C68.9564 18.6695 70.3044 18.8708 71.8079 18.8708C74.3484 18.8708 76.3705 18.3173 77.8222 17.2102C79.2739 16.1031 79.9998 14.3921 79.9998 12.1276V0.402571C79.8961 0.251605 79.6368 0.150957 79.2739 0.100635Z" fill="#FBB600"/>
    <path d="M18.0427 9.25922C18.0427 7.8502 17.8354 6.59215 17.3687 5.48506C16.954 4.37797 16.3318 3.42185 15.5541 2.61669C14.7764 1.81154 13.7913 1.20768 12.7025 0.754783C11.5619 0.301884 10.3694 0.100586 9.02137 0.100586C7.67335 0.100586 6.42902 0.301884 5.34023 0.754783C4.1996 1.20768 3.26635 1.81154 2.48865 2.56637C1.71094 3.37152 1.08878 4.32765 0.674005 5.43474C0.259229 6.59214 0 7.8502 0 9.25922C0 10.6682 0.207382 11.9263 0.674005 13.0837C1.08878 14.2411 1.71094 15.1972 2.48865 15.9521C3.26635 16.7572 4.1996 17.3611 5.34023 17.7637C6.42902 18.1662 7.62151 18.3675 8.91769 18.4178L7.10304 20.4811C6.74012 20.9843 6.58457 21.4372 6.68826 21.8398C6.79195 22.2423 7.15488 22.6449 7.67335 23.0978C7.98443 23.2991 8.24367 23.5004 8.55475 23.6514C8.86584 23.8023 9.07322 23.903 9.28061 23.9533L16.3837 15.1469C16.7984 14.543 17.2132 13.8888 17.4724 13.134C17.8354 11.9263 18.0427 10.6179 18.0427 9.25922ZM12.6507 13.6876C11.7693 14.7443 10.5768 15.2476 8.96952 15.2476C7.41411 15.2476 6.1698 14.7443 5.2884 13.6876C4.407 12.6308 3.99222 11.1715 3.99222 9.2089C3.99222 7.29666 4.45884 5.78699 5.34023 4.73023C6.22163 3.67346 7.41411 3.11991 8.96952 3.11991C10.5249 3.11991 11.7174 3.67346 12.5988 4.73023C13.4802 5.78699 13.895 7.29666 13.895 9.2089C13.9468 11.1715 13.5321 12.6308 12.6507 13.6876Z" fill="#FBB600"/>
    <path d="M51.7435 3.17027L52.3657 3.77414C52.5213 3.92511 52.7286 3.97543 52.936 3.97543C53.1434 3.97543 53.3508 3.92511 53.5064 3.77414L54.1285 3.17027L54.7507 2.5664C54.9062 2.41543 54.9581 2.21416 54.9581 2.01287C54.9581 1.81158 54.9062 1.61029 54.7507 1.45932L54.1285 0.85545L53.5064 0.251594C53.3508 0.100627 53.1434 0.050293 52.936 0.050293C52.7286 0.050293 52.5213 0.100627 52.3657 0.251594L51.7435 0.85545L51.1214 1.45932C50.9658 1.61029 50.914 1.81158 50.914 2.01287C50.914 2.21416 50.9658 2.41543 51.1214 2.5664L51.7435 3.17027Z" fill="#FBB600"/>
    <path d="M66.0014 20.5315L65.3792 19.9276C65.2237 19.7766 65.0163 19.7263 64.8089 19.7263C64.6015 19.7263 64.3942 19.7766 64.2386 19.9276L63.6165 20.5315L62.9943 21.1353C62.9424 21.1857 62.9424 21.236 62.8906 21.2863C62.8387 21.236 62.8387 21.1857 62.7869 21.1353L62.1647 20.5315L61.5426 19.9276C61.387 19.7766 61.1796 19.7263 60.9723 19.7263C60.7649 19.7263 60.5575 19.7766 60.4019 19.9276L59.7798 20.5315L59.1576 21.1353C59.0021 21.2863 58.9502 21.4876 58.9502 21.6889C58.9502 21.8902 59.0021 22.0915 59.1576 22.2424L59.7798 22.8463L60.4019 23.4502C60.5575 23.6011 60.7649 23.6515 60.9723 23.6515C61.1796 23.6515 61.387 23.6011 61.5426 23.4502L62.1647 22.8463L62.7869 22.2424C62.8387 22.1921 62.8387 22.1418 62.8906 22.0915C62.9424 22.1418 62.9424 22.1921 62.9943 22.2424L63.6165 22.8463L64.2386 23.4502C64.3942 23.6011 64.6015 23.6515 64.8089 23.6515C65.0163 23.6515 65.2237 23.6011 65.3792 23.4502L66.0014 22.8463L66.6236 22.2424C66.7791 22.0915 66.831 21.8902 66.831 21.6889C66.831 21.4876 66.7791 21.2863 66.6236 21.1353L66.0014 20.5315Z" fill="#FBB600"/>
    <path d="M79.1705 20.5315L78.5483 19.9276C78.3927 19.7766 78.1854 19.7263 77.978 19.7263C77.7706 19.7263 77.5632 19.7766 77.4077 19.9276L76.7855 20.5315L76.1633 21.1353C76.1115 21.1857 76.1115 21.236 76.0596 21.2863C76.0078 21.236 76.0078 21.1857 75.9559 21.1353L75.3338 20.5315L74.7116 19.9276C74.5561 19.7766 74.3487 19.7263 74.1413 19.7263C73.9339 19.7263 73.7265 19.7766 73.571 19.9276L72.9488 20.5315L72.3267 21.1353C72.2748 21.1857 72.2748 21.236 72.223 21.2863C72.1711 21.236 72.1711 21.1857 72.1193 21.1353L71.4971 20.5315L70.8749 19.9276C70.7194 19.7766 70.512 19.7263 70.3046 19.7263C70.0972 19.7263 69.8898 19.7766 69.7343 19.9276L69.1121 20.5315L68.49 21.1353C68.3344 21.2863 68.2826 21.4876 68.2826 21.6889C68.2826 21.8902 68.3344 22.0915 68.49 22.2424L69.1121 22.8463L69.7343 23.4502C69.8898 23.6011 70.0972 23.6515 70.3046 23.6515C70.512 23.6515 70.7194 23.6011 70.8749 23.4502L71.4971 22.8463L72.1193 22.2424C72.1711 22.1921 72.1711 22.1418 72.223 22.0915C72.2748 22.1418 72.2748 22.1921 72.3267 22.2424L72.9488 22.8463L73.571 23.4502C73.7265 23.6011 73.9339 23.6515 74.1413 23.6515C74.3487 23.6515 74.5561 23.6011 74.7116 23.4502L75.3338 22.8463L75.9559 22.2424C76.0078 22.1921 76.0078 22.1418 76.0596 22.0915C76.1115 22.1418 76.1115 22.1921 76.1633 22.2424L76.7855 22.8463L77.4077 23.4502C77.5632 23.6011 77.7706 23.6515 77.978 23.6515C78.1854 23.6515 78.3927 23.6011 78.5483 23.4502L79.1705 22.8463L79.7926 22.2424C79.9482 22.0915 80 21.8902 80 21.6889C80 21.4876 79.9482 21.2863 79.7926 21.1353L79.1705 20.5315Z" fill="#FBB600"/>
</svg>
