<svg xmlns:xlink="http://www.w3.org/1999/xlink" xmlns="http://www.w3.org/2000/svg" _nk="iwnZ31" style="width: 24px; height: 24px;" width="24"  height="24" ><defs><symbol id="adActive" xmlns="http://www.w3.org/2000/svg" viewBox="0 0 24 24"><path fill-rule="evenodd" d="M17.127 1.762l-4.986 1.322-7.917 5.17-2.741.727a1.976 1.976 0 00-1.414 2.423l1.553 5.733a2.002 2.002 0 002.449 1.4l2.741-.727.336.02c-.195 2.04 1.29 3.883 3.37 4.128 1.904.225 3.683-.973 4.171-2.806l.204-.766 1.427-.024 4.948-1.312-4.14-15.288zm-15.126 9.13l1.931-.512 1.553 5.733-1.932.512-1.552-5.733zm6.36 5.028l-.872-.052-1.697-6.267L11.95 5.58l2.932 10.827-.728.012-5.792-.5zm8.526.243L13.78 4.698l1.932-.513 3.106 11.467-1.932.511zm-7.743 1.81l3.705.32-.094.355a1.841 1.841 0 01-2 1.346 1.827 1.827 0 01-1.611-2.02z" clip-rule="evenodd"></path><path d="M20.389 9.982l2.898-.768-.518-1.91-2.898.767.518 1.911zM21.285 5.648l-1.931.512-.518-1.91 1.932-.513.517 1.911zM23.356 13.292l-1.932.512-.517-1.91 1.931-.513.518 1.911z"></path></symbol></defs><use xlink:href="#adActive" _nk="iwnZ41"></use></svg>