<svg xmlns:xlink="http://www.w3.org/1999/xlink" xmlns="http://www.w3.org/2000/svg" _nk="iwnZ31" style="width: 24px; height: 24px; fill: var(--color-icon-low-emphasis);" width="24"  height="24" ><defs><symbol id="profileCircleOutline" xmlns="http://www.w3.org/2000/svg" viewBox="0 0 24 24"><path fill-rule="evenodd" d="M12 3.5a8.5 8.5 0 00-6.458 14.027c.2-.361.47-.773.83-1.186C7.424 15.14 9.192 14 12 14c2.808 0 4.576 1.14 5.628 2.341.36.413.63.825.83 1.186A8.5 8.5 0 0012 3.5zM7.143 18.792a4.21 4.21 0 00-.061.141A8.461 8.461 0 0012 20.5c1.833 0 3.53-.58 4.918-1.567a4.726 4.726 0 00-.796-1.275C15.424 16.86 14.192 16 12 16s-3.424.86-4.122 1.659c-.361.412-.594.825-.735 1.133zM1.5 12C1.5 6.201 6.201 1.5 12 1.5S22.5 6.201 22.5 12 17.799 22.5 12 22.5 1.5 17.799 1.5 12zM12 5a3.5 3.5 0 00-3.5 3.5v1a3.5 3.5 0 107 0v-1A3.5 3.5 0 0012 5zm-1.5 3.5a1.5 1.5 0 013 0v1a1.5 1.5 0 01-3 0v-1z" clip-rule="evenodd"></path></symbol></defs><use xlink:href="#profileCircleOutline" _nk="iwnZ41" fill="#A1A3A8"></use></svg>