<svg xmlns:xlink="http://www.w3.org/1999/xlink" xmlns="http://www.w3.org/2000/svg" _nk="iwnZ31" style="width: 24px; height: 24px; fill: var(--color-icon-low-emphasis);" width="24"  height="24" ><defs><symbol id="basketOutline" xmlns="http://www.w3.org/2000/svg" viewBox="0 0 24 24"><path d="M11 17a1 1 0 102 0v-3a1 1 0 10-2 0v3zM16 18a1 1 0 01-1-1v-3a1 1 0 112 0v3a1 1 0 01-1 1zM7 17a1 1 0 102 0v-3a1 1 0 10-2 0v3z"></path><path fill-rule="evenodd" d="M10.304 1.827a2 2 0 013.392 0L17.554 8h2.286a3 3 0 012.942 3.588l-1.8 9A3 3 0 0118.04 23H5.96a3 3 0 01-2.943-2.412l-1.8-9A3 3 0 014.16 8h2.287l3.858-6.173zM12 2.887L15.196 8H8.804L12 2.887zM19.84 10H4.16a1 1 0 00-.981 1.196l1.8 9a1 1 0 00.98.804H18.04a1 1 0 00.981-.804l1.8-9a1 1 0 00-.98-1.196z" clip-rule="evenodd"></path></symbol></defs><use xlink:href="#basketOutline" _nk="iwnZ41" fill="#A1A3A8"></use></svg>