<svg xmlns:xlink="http://www.w3.org/1999/xlink" xmlns="http://www.w3.org/2000/svg" width="106" height="41" viewBox="0 0 106 41" fill="none">
    <g clip-path="url(#clip0_15461_149787)">
        <path d="M73.8148 5.55762C73.8148 2.76437 76.1123 0.5 78.9465 0.5H100.263C103.097 0.5 105.395 2.76437 105.395 5.55762V24.9381C105.395 26.2795 104.854 27.5659 103.892 28.5144L93.2335 39.0187C91.2294 40.9938 87.9802 40.9938 85.9761 39.0187L75.3178 28.5144C74.3554 27.5659 73.8148 26.2795 73.8148 24.9381V5.55762Z" fill="#FFCE00"/>
        <path d="M81.1393 14.2676C80.7835 13.9178 80.7835 13.3508 81.1393 13.0011L82.4276 11.7346C82.7833 11.3849 83.3601 11.3849 83.7159 11.7346L85.0042 13.0011C85.3599 13.3508 85.3599 13.9178 85.0042 14.2676L83.7159 15.534C83.3601 15.8838 82.7833 15.8838 82.4276 15.534L81.1393 14.2676Z" fill="#28367F"/>
        <path d="M94.5001 14.2676C94.1443 13.9178 94.1443 13.3508 94.5001 13.0011L95.7884 11.7346C96.1441 11.3849 96.7209 11.3849 97.0767 11.7346L98.365 13.0011C98.7207 13.3508 98.7207 13.9178 98.365 14.2676L97.0767 15.534C96.7209 15.8838 96.1441 15.8838 95.7884 15.534L94.5001 14.2676Z" fill="#28367F"/>
        <path d="M80.3018 20.087L82.2827 18.1831C82.5018 17.9726 82.8449 17.9624 83.0851 18.1486C89.821 23.3696 98.3698 21.3755 98.3698 21.3755C91.0598 26.8725 83.2016 23.6712 80.2855 20.8949C80.0532 20.6737 80.0706 20.3093 80.3018 20.087Z" fill="url(#paint0_linear_15461_149787)"/>
        <path d="M98.9111 20.0903L96.9369 18.1928C96.7131 17.9777 96.3587 17.9674 96.1127 18.1577C89.3786 23.3673 80.8397 21.3755 80.8397 21.3755C88.1527 26.8748 96.0145 23.6686 98.9277 20.8914C99.159 20.6709 99.1415 20.3118 98.9111 20.0903Z" fill="url(#paint1_linear_15461_149787)"/>
        <path d="M66.528 8.34631C66.225 8.30375 65.9219 8.2612 65.6188 8.2612C64.9694 8.2612 64.4932 8.38888 64.1901 8.60168C63.887 8.85705 63.7139 9.24009 63.7139 9.79339V18.3056C63.7139 19.3696 63.4108 20.1357 62.8047 20.6464C62.1985 21.1572 61.376 21.4126 60.3369 21.4126C59.5576 21.4126 58.8648 21.3274 58.2587 21.1146C57.6526 20.9018 57.1331 20.689 56.7001 20.4762V8.55912C56.6767 8.55144 56.6504 8.54238 56.6216 8.53243C56.4907 8.48723 56.3069 8.42376 56.094 8.38888H56.0507C55.7909 8.34632 55.4879 8.30375 55.1415 8.30375C54.4921 8.30375 54.0158 8.43144 53.7128 8.64425C53.4097 8.89961 53.2365 9.28266 53.2365 9.83595V18.3482C53.2365 19.4122 52.9335 20.1783 52.3273 20.689C51.7212 21.1997 50.8986 21.4551 49.8595 21.4551C49.0802 21.4551 48.3875 21.37 47.7814 21.1572C47.1752 20.9444 46.6557 20.7316 46.2228 20.5188V12.7301H46.1795V12.6875C46.0063 12.6024 45.7898 12.5599 45.53 12.5173C45.227 12.4747 44.9239 12.4322 44.6208 12.4322C43.9714 12.4322 43.4952 12.5599 43.1921 12.7727C42.8891 13.028 42.7159 13.4111 42.7159 13.9644V18.3056C42.7159 19.3696 42.4128 20.1357 41.8067 20.6464C41.2006 21.1572 39.3389 21.1146 39.3389 21.1146L29.814 21.0721C29.1646 21.0721 28.6883 20.9444 28.3853 20.6464C28.0822 20.3485 27.8225 19.9229 27.606 19.2845L23.493 8.34631C23.3198 8.34631 23.1033 8.34632 22.8003 8.38888C22.4972 8.43144 22.1941 8.51656 21.8911 8.64425C21.2849 8.85705 20.8953 9.15498 20.6788 9.4529C20.4623 9.79339 20.4623 10.219 20.6788 10.7297L23.5796 18.3056V18.3482C24.0125 19.4973 23.1033 20.689 21.8478 20.689H15.4401C15.3535 20.8593 15.3103 21.0721 15.267 21.3274C15.2237 21.5828 15.1804 21.8807 15.1804 22.2212C15.1804 22.8596 15.3103 23.3278 15.5267 23.6257C15.7865 23.9236 16.1761 24.0939 16.739 24.0939H23.1899C25.0516 24.0939 26.0907 22.9873 26.4803 22.3489C26.9566 23.0724 27.4328 23.5406 27.9523 23.8385C28.4286 24.0939 29.1646 24.179 29.7707 24.179C29.7707 24.179 39.7718 24.1365 39.945 24.1365C41.7201 24.0513 43.1055 23.6257 44.1879 22.8171C44.794 23.1575 45.53 23.4555 46.4392 23.7108C47.435 24.0088 48.5607 24.179 49.8162 24.179C51.8944 24.179 53.5396 23.7108 54.7518 22.8596C55.3147 23.1576 56.0507 23.4555 56.9166 23.7534C57.9124 24.0513 59.038 24.2216 60.2936 24.2216C62.415 24.2216 64.1035 23.7534 65.3158 22.8171C66.528 21.8807 67.1342 20.4336 67.1342 18.5184V8.60168C67.0476 8.474 66.8311 8.38888 66.528 8.34631Z" fill="#FBB600"/>
        <path fill-rule="evenodd" clip-rule="evenodd" d="M15.397 16.0924C15.397 14.9007 15.2238 13.8367 14.8341 12.9004C14.4878 11.964 13.9682 11.1553 13.3188 10.4744C12.6694 9.7934 11.8468 9.28267 10.9376 8.89962C9.98512 8.51657 8.98933 8.34632 7.86367 8.34632C6.738 8.34632 5.69892 8.51657 4.78973 8.89962C3.83724 9.28267 3.05794 9.79339 2.40851 10.4318C1.75909 11.1128 1.23955 11.9214 0.893196 12.8578C0.546837 13.8367 0.330368 14.9007 0.330368 16.0924C0.330368 17.2841 0.503542 18.3482 0.893196 19.3271C1.23955 20.306 1.75909 21.1146 2.40851 21.753C3.05794 22.434 3.83724 22.9448 4.78973 23.2852C5.69892 23.6257 6.69471 23.796 7.77708 23.8385L6.26177 25.5835C5.9587 26.0091 5.82881 26.3922 5.9154 26.7327C6.00199 27.0732 6.30505 27.4137 6.738 27.7967C6.8138 27.8464 6.88592 27.8961 6.9565 27.9447C7.12779 28.0627 7.29005 28.1745 7.47401 28.2649C7.73378 28.3926 7.90696 28.4777 8.08014 28.5202L14.0115 21.0721C14.3579 20.5613 14.7043 20.008 14.9207 19.3696C15.2238 18.3482 15.397 17.2416 15.397 16.0924ZM10.8943 19.8378C10.1583 20.7316 9.16251 21.1572 7.82037 21.1572C6.52152 21.1572 5.48246 20.7316 4.74645 19.8378C4.01043 18.944 3.66408 17.7097 3.66408 16.0499C3.66408 14.4325 4.05372 13.1557 4.78973 12.2619C5.52574 11.3682 6.52152 10.9 7.82037 10.9C9.11921 10.9 10.115 11.3682 10.851 12.2619C11.587 13.1557 11.9334 14.4325 11.9334 16.0499C11.9767 17.7097 11.6303 18.944 10.8943 19.8378Z" fill="#FBB600"/>
        <path d="M44.0584 11.4533L43.0193 10.4318C42.8894 10.3041 42.8461 10.1339 42.8461 9.96365C42.8461 9.79341 42.8894 9.62316 43.0193 9.49548L44.0584 8.47402C44.1882 8.34633 44.3614 8.30376 44.5346 8.30376C44.7078 8.30376 44.881 8.34633 45.0108 8.47402L46.0499 9.49548C46.1798 9.62316 46.2231 9.79341 46.2231 9.96365C46.2231 10.1339 46.1798 10.3041 46.0499 10.4318L45.0108 11.4533C44.881 11.581 44.7078 11.6235 44.5346 11.6235C44.3614 11.6235 44.1882 11.581 44.0584 11.4533Z" fill="#FBB600"/>
        <path d="M54.9253 25.1154C54.7954 24.9877 54.6222 24.9451 54.4491 24.9451C54.2759 24.9451 54.1027 24.9877 53.9728 25.1154L52.9337 26.1368C52.9121 26.1581 52.9013 26.1794 52.8904 26.2007C52.8796 26.2219 52.8688 26.2432 52.8471 26.2645C52.8255 26.2432 52.8147 26.2219 52.8038 26.2007C52.793 26.1794 52.7822 26.1581 52.7606 26.1368L51.7215 25.1154C51.5916 24.9877 51.4184 24.9451 51.2452 24.9451C51.0721 24.9451 50.8989 24.9877 50.769 25.1154L49.7299 26.1368C49.6 26.2645 49.5567 26.4347 49.5567 26.605C49.5567 26.7752 49.6 26.9455 49.7299 27.0732L50.769 28.0946C50.8989 28.2223 51.0721 28.2649 51.2452 28.2649C51.4184 28.2649 51.5916 28.2223 51.7215 28.0946L52.7606 27.0732C52.7822 27.0519 52.793 27.0306 52.8038 27.0093C52.8147 26.988 52.8255 26.9668 52.8471 26.9455C52.8688 26.9668 52.8796 26.988 52.8904 27.0093C52.9013 27.0306 52.9121 27.0519 52.9337 27.0732L53.9728 28.0946C54.1027 28.2223 54.2759 28.2649 54.4491 28.2649C54.6222 28.2649 54.7954 28.2223 54.9253 28.0946L55.9644 27.0732C56.0943 26.9455 56.1375 26.7752 56.1375 26.605C56.1375 26.4347 56.0943 26.2645 55.9644 26.1368L54.9253 25.1154Z" fill="#FBB600"/>
        <path d="M65.9221 25.1154L66.9612 26.1368C67.0911 26.2645 67.1344 26.4347 67.1344 26.605C67.1344 26.7752 67.0911 26.9455 66.9612 27.0732L65.9221 28.0946C65.7922 28.2223 65.619 28.2649 65.4459 28.2649C65.2727 28.2649 65.0995 28.2223 64.9696 28.0946L63.9305 27.0732C63.9089 27.0519 63.8981 27.0306 63.8873 27.0093C63.8764 26.988 63.8656 26.9668 63.844 26.9455C63.8223 26.9668 63.8115 26.988 63.8007 27.0093C63.7898 27.0306 63.779 27.0519 63.7574 27.0732L62.7183 28.0946C62.5884 28.2223 62.4152 28.2649 62.2421 28.2649C62.0689 28.2649 61.8957 28.2223 61.7658 28.0946L60.7267 27.0732C60.7051 27.0519 60.6943 27.0306 60.6834 27.0093C60.6726 26.988 60.6618 26.9668 60.6401 26.9455C60.6185 26.9668 60.6077 26.988 60.5968 27.0093C60.586 27.0306 60.5752 27.0519 60.5536 27.0732L59.5145 28.0946C59.3846 28.2223 59.2114 28.2649 59.0382 28.2649C58.8651 28.2649 58.6919 28.2223 58.562 28.0946L57.5229 27.0732C57.393 26.9455 57.3497 26.7752 57.3497 26.605C57.3497 26.4347 57.393 26.2645 57.5229 26.1368L58.562 25.1154C58.6919 24.9877 58.8651 24.9451 59.0382 24.9451C59.2114 24.9451 59.3846 24.9877 59.5145 25.1154L60.5536 26.1368C60.5752 26.1581 60.586 26.1794 60.5968 26.2007C60.6077 26.2219 60.6185 26.2432 60.6401 26.2645C60.6618 26.2432 60.6726 26.2219 60.6834 26.2007C60.6943 26.1794 60.7051 26.1581 60.7267 26.1368L61.7658 25.1154C61.8957 24.9877 62.0689 24.9451 62.2421 24.9451C62.4152 24.9451 62.5884 24.9877 62.7183 25.1154L63.7574 26.1368C63.779 26.1581 63.7898 26.1794 63.8007 26.2007C63.8115 26.2219 63.8223 26.2432 63.844 26.2645C63.8656 26.2432 63.8764 26.2219 63.8873 26.2007C63.8981 26.1794 63.9089 26.1581 63.9305 26.1368L64.9696 25.1154C65.0995 24.9877 65.2727 24.9451 65.4459 24.9451C65.619 24.9451 65.7922 24.9877 65.9221 25.1154Z" fill="#FBB600"/>
    </g>
    <defs>
        <linearGradient id="paint0_linear_15461_149787" x1="80.1966" y1="24.3439" x2="98.7269" y2="24.3439" gradientUnits="userSpaceOnUse">
            <stop stop-color="#28367F"/>
            <stop offset="1" stop-color="#008DEB"/>
        </linearGradient>
        <linearGradient id="paint1_linear_15461_149787" x1="99.0129" y1="24.3439" x2="80.4826" y2="24.3439" gradientUnits="userSpaceOnUse">
            <stop stop-color="#28367F"/>
            <stop offset="1" stop-color="#008DEB"/>
        </linearGradient>
        <clipPath id="clip0_15461_149787">
            <rect width="105.672" height="40" fill="white" transform="translate(0.328369 0.5)"/>
        </clipPath>
    </defs>
</svg>