<svg xmlns:xlink="http://www.w3.org/1999/xlink" xmlns="http://www.w3.org/2000/svg" _nk="iwnZ31" style="width: 24px; height: 24px; fill: var(--color-icon-high-emphasis);" width="24"  height="24" ><defs><symbol id="seller" xmlns="http://www.w3.org/2000/svg" viewBox="0 0 24 24"><path fill-rule="evenodd" d="M19.5 3h-15a1 1 0 00-.959.715l-1.5 5.053A1 1 0 002 9.053V12a1 1 0 001 1h.006l.038 7.006A1 1 0 004.048 21l9.956-.035a1 1 0 00.996-1V13h4v8h2v-8a1 1 0 001-1V9.053a1 1 0 00-.041-.285l-1.5-5.053A1 1 0 0019.5 3zm.5 8V9.198L18.754 5H5.246L4 9.198V11h16zm-7 2H5.006l.033 5.997L13 18.968V13z" clip-rule="evenodd"></path></symbol></defs><use xlink:href="#seller" _nk="iwnZ41" fill="#424750"></use></svg>